<?xml version="1.0" encoding="utf-8"?>
<!-- Generator: Adobe Illustrator 21.0.0, SVG Export Plug-In . SVG Version: 6.00 Build 0)  -->
<svg version="1.1" id="Layer_1" xmlns="http://www.w3.org/2000/svg" xmlns:xlink="http://www.w3.org/1999/xlink" x="0px" y="0px"
	 viewBox="0 0 512 512" style="enable-background:new 0 0 512 512;" xml:space="preserve">
<style type="text/css">
	.st0{fill:#FFFFFF;}
</style>
<path class="st0" d="M472,208h-32v-24h-16v24H312v-59.2c24.8-8.8,38.4-36,29.6-60.8c-6.4-18.4-23.2-30.4-41.6-32
	c-13.6-32.8-51.2-48.8-84-35.2C200,27.2,187.2,40,180.8,56c-22.4,1.6-40,18.4-44,40H80c-13.6,0-24,10.4-24,24v136
	c-22.4,0-40,17.6-40,40v112c0,19.2,13.6,35.2,32,39.2V480H16v16h480V232C496,218.4,485.6,208,472,208z M32,408V296
	c0-13.6,10.4-24,24-24s24,10.4,24,24v112c0,13.6-10.4,24-24,24S32,421.6,32,408z M64,447.2c18.4-4,32-20,32-39.2V296
	c0-16-9.6-30.4-24-36.8V120c0-4.8,3.2-8,8-8h56.8c4,23.2,24,40,47.2,40h32v-16h-32c-17.6,0-32-14.4-32-32c0-14.4,10.4-28,24.8-31.2
	V80v8h16v-8c0-26.4,21.6-48,48-48s48,21.6,48,48v8h16v-8c0-2.4,0-4.8,0-7.2c16.8,4,28,21.6,23.2,38.4c-3.2,14.4-16,24.8-31.2,24.8
	h-32v16h32v56h-16c-13.6,0-24,10.4-24,24v248h-24v-64H120v64H64L64,447.2z M216,480h-80v-48h80V480z M272,480V232c0-4.8,3.2-8,8-8
	h192c4.8,0,8,3.2,8,8v248H272z"/>
<path class="st0" d="M232,88h16v80h-16V88z"/>
<path class="st0" d="M288,304h48v-64h-48V304z M304,256h16v32h-16V256z"/>
<path class="st0" d="M288,384h48v-64h-48V384z M304,336h16v32h-16V336z"/>
<path class="st0" d="M352,304h48v-64h-48V304z M368,256h16v32h-16V256z"/>
<path class="st0" d="M352,384h48v-64h-48V384z M368,336h16v32h-16V336z"/>
<path class="st0" d="M416,304h48v-64h-48V304z M432,256h16v32h-16V256z"/>
<path class="st0" d="M416,384h48v-64h-48V384z M432,336h16v32h-16V336z"/>
<path class="st0" d="M288,464h48v-64h-48V464z M304,416h16v32h-16V416z"/>
<path class="st0" d="M352,464h48v-64h-48V464z M368,416h16v32h-16V416z"/>
<path class="st0" d="M416,464h48v-64h-48V464z M432,416h16v32h-16V416z"/>
<path class="st0" d="M120,392h112v-56H120V392z M216,376h-32v-24h32V376z M136,352h32v24h-32V352z"/>
<path class="st0" d="M120,320h112v-56H120V320z M216,304h-32v-24h32V304z M136,280h32v24h-32V280z"/>
<path class="st0" d="M232,184H88v64h144V184z M104,200h48v32h-48V200z M216,232h-48v-32h48V232z"/>
<path class="st0" d="M362.4,113.6l10.4,12c33.6-29.6,84-29.6,117.6,0l10.4-12C461.6,79.2,402.4,79.2,362.4,113.6z"/>
<path class="st0" d="M477.6,138.4c-25.6-24-65.6-24-91.2,0l11.2,11.2c19.2-18.4,49.6-18.4,68.8,0L477.6,138.4z"/>
<path class="st0" d="M403.2,161.6l10.4,12.8c11.2-8,26.4-8,37.6,0l10.4-12.8C444,148.8,420,148.8,403.2,161.6z"/>
</svg>
