<svg height="512pt" viewBox="0 0 512 512" width="512pt" xmlns="http://www.w3.org/2000/svg"><path d="m258.277344 186.269531c-4.507813-1.0625-9.164063 1.113281-11.242188 5.257813l-59.996094 120c-1.550781 3.101562-1.386718 6.78125.4375 9.730468 1.820313 2.949219 5.039063 4.742188 8.503907 4.742188h50v70c0 5.535156 4.496093 10 10.003906 10 3.71875 0 7.21875-2.085938 8.941406-5.527344l60-120c1.550781-3.101562 1.382813-6.78125-.4375-9.730468-1.824219-2.945313-5.042969-4.742188-8.507812-4.742188h-50v-70c0-4.636719-3.1875-8.664062-7.703125-9.730469zm41.523437 99.730469-33.820312 67.640625v-37.640625c0-5.519531-4.476563-10-10-10h-43.820313l33.820313-67.636719v37.636719c0 5.523438 4.476562 10 10 10zm0 0"/><path d="m10.515625 287.027344c13.816406 13.523437 35.964844 13.273437 49.496094-.5625l5.96875-6.105469v52.640625c0 5.523438 4.476562 10 10 10 5.523437 0 10-4.476562 10-10v-73.09375l170-173.832031 170 173.832031v192.09375h-340v-39c0-5.523438-4.476563-10-10-10-5.523438 0-10 4.476562-10 10v39h-10c-16.574219 0-30 13.425781-30 30 0 16.542969 13.460937 30 30 30h400c16.574219 0 30-13.425781 30-30 0-16.542969-13.457031-30-30-30h-10v-171.640625l5.964843 6.097656c13.597657 13.929688 35.75 14.007813 49.496094.574219 13.800782-13.496094 14.058594-35.695312.589844-49.472656l-221.019531-227.324219c-6.351563-6.503906-15.476563-10.234375-25.03125-10.234375-9.554688 0-18.675781 3.730469-25.050781 10.253906l-84.949219 87.375v-47.628906c0-5.519531-4.476563-10-10-10h-60c-5.523438 0-10 4.480469-10 10v129.914062l-56.027344 57.628907c-13.488281 13.792969-13.234375 35.996093.5625 49.484375zm455.464844 194.972656c0 5.519531-4.476563 10-10 10h-400c-5.511719 0-10-4.484375-10-10 0-5.519531 4.480469-10 10-10h400c5.515625 0 10 4.484375 10 10zm-380-422h40v58.199219l-40 41.140625zm-61.707031 191.503906c1.039062-1.0625 218.324218-224.535156 220.980468-227.292968 2.613282-2.675782 6.523438-4.210938 10.726563-4.210938s8.113281 1.535156 10.710937 4.191406l221.019532 227.332032c5.777343 5.910156 5.664062 15.421874-.25 21.207031-5.894532 5.761719-15.382813 5.71875-21.210938-.25l-203.117188-207.699219c-1.882812-1.925781-4.460937-3.007812-7.152343-3.007812-2.6875 0-5.265625 1.082031-7.148438 3.007812l-203.121093 207.699219c-5.785157 5.917969-15.257813 6.074219-21.207032.25-5.917968-5.785157-6.03125-15.296875-.230468-21.226563zm0 0"/><path d="m75.980469 383c5.519531 0 10-4.480469 10-10s-4.480469-10-10-10-10 4.480469-10 10 4.480469 10 10 10zm0 0"/></svg>