<svg id="Layer_1" data-name="Layer 1" xmlns="http://www.w3.org/2000/svg" xmlns:xlink="http://www.w3.org/1999/xlink" viewBox="0 0 69.41 68.54"><defs><style>.cls-1{fill:url(#linear-gradient);}.cls-2{fill:url(#linear-gradient-2);}.cls-3,.cls-4{fill:#369;}.cls-4{stroke:#369;stroke-miterlimit:10;stroke-width:0.25px;}.cls-5,.cls-6{fill:none;stroke-linecap:round;stroke-linejoin:round;stroke-width:2px;}.cls-5{stroke:url(#linear-gradient-3);}.cls-6{stroke:url(#linear-gradient-4);}.cls-7{fill:url(#linear-gradient-5);}.cls-8{fill:url(#linear-gradient-6);}</style><linearGradient id="linear-gradient" x1="15.41" y1="24.9" x2="55.63" y2="24.9" gradientUnits="userSpaceOnUse"><stop offset="0" stop-color="#ff1597"/><stop offset="0.04" stop-color="#e22299"/><stop offset="0.21" stop-color="#695ba0"/><stop offset="0.28" stop-color="#3971a3"/><stop offset="0.44" stop-color="#3b75a7"/><stop offset="0.59" stop-color="#4180b1"/><stop offset="0.73" stop-color="#4a92c4"/><stop offset="0.86" stop-color="#58acdd"/><stop offset="0.99" stop-color="#69cefe"/><stop offset="1" stop-color="#6acfff"/></linearGradient><linearGradient id="linear-gradient-2" x1="17.93" y1="18.6" x2="40.52" y2="18.6" xlink:href="#linear-gradient"/><linearGradient id="linear-gradient-3" x1="20.66" y1="44.15" x2="27.57" y2="37.24" xlink:href="#linear-gradient"/><linearGradient id="linear-gradient-4" x1="-165.34" y1="75.26" x2="-158.43" y2="68.35" gradientTransform="translate(-112.19 79.27) rotate(180)" xlink:href="#linear-gradient"/><linearGradient id="linear-gradient-5" x1="54.56" y1="34.1" x2="50.77" y2="17.69" gradientUnits="userSpaceOnUse"><stop offset="0" stop-color="#ff1597"/><stop offset="0.1" stop-color="#e22299"/><stop offset="0.55" stop-color="#695ba0"/><stop offset="0.75" stop-color="#3971a3"/><stop offset="0.81" stop-color="#3b75a7"/><stop offset="0.86" stop-color="#4180b1"/><stop offset="0.9" stop-color="#4a92c4"/><stop offset="0.95" stop-color="#58acdd"/><stop offset="1" stop-color="#69cefe"/><stop offset="1" stop-color="#6acfff"/></linearGradient><linearGradient id="linear-gradient-6" x1="53.52" y1="29.57" x2="51.8" y2="22.11" gradientTransform="translate(36.93 -30.67) rotate(48.3)" xlink:href="#linear-gradient-5"/></defs><title>1-3</title><path class="cls-1" d="M55.46,41.33,46,31.88a.59.59,0,0,0-.83,0l-.25.25L40,27.22a13.83,13.83,0,1,0-2.17,2.17l4.92,4.92-.25.25a.59.59,0,0,0,0,.83L52,44.83a.6.6,0,0,0,.83,0l2.67-2.67A.59.59,0,0,0,55.46,41.33ZM29.23,31.23A12.63,12.63,0,1,1,41.86,18.6,12.65,12.65,0,0,1,29.23,31.23Zm9.51-2.62.5-.5L44.09,33l-.5.5Zm13.64,15L43.76,35l1.84-1.84,8.61,8.61Z"/><path class="cls-2" d="M37.22,10.63a.59.59,0,0,0-.84.83A10.09,10.09,0,1,1,34,9.69a.59.59,0,0,0,.56-1,11.31,11.31,0,1,0,2.65,2Z"/><path class="cls-3" d="M25.13,11.71h-.31a.59.59,0,0,0-.59.59V24.58a1.53,1.53,0,0,0,3.07,0V19.82H28a.59.59,0,0,0,.59-.59V15.14A3.43,3.43,0,0,0,25.13,11.71Zm2.24,6.93h-.67a.59.59,0,0,0-.59.59v5.35a.35.35,0,1,1-.71,0V12.91a2.25,2.25,0,0,1,2,2.23v3.5Z"/><path class="cls-3" d="M34.26,11.71a.59.59,0,0,0-.59.59v2.56H33V12.3a.59.59,0,1,0-1.18,0v2.56h-.71V12.3a.59.59,0,1,0-1.18,0v3.78a1.85,1.85,0,0,0,.94,1.61v6.89a1.53,1.53,0,0,0,3.07,0V17.69a1.85,1.85,0,0,0,.94-1.61V12.3A.59.59,0,0,0,34.26,11.71Zm-.59,4.37a.67.67,0,0,1-.5.65.59.59,0,0,0-.44.57v7.28a.35.35,0,1,1-.71,0V17.3a.59.59,0,0,0-.44-.57.67.67,0,0,1-.5-.65v0h2.6v0Z"/><path class="cls-4" d="M22.39,53.43h-6.3a2.44,2.44,0,0,1-.65,1.23,2.29,2.29,0,0,1-3.4,0,2.54,2.54,0,0,1-.71-1.82l0-1.86h.63c0,.66,0,1.29,0,1.86a1.9,1.9,0,0,0,.53,1.36,1.7,1.7,0,0,0,1.27.56A1.67,1.67,0,0,0,15,54.21a1.94,1.94,0,0,0,.53-1.37l0-1.85h.62v.85a3.25,3.25,0,0,1,1.33-1.38,2.25,2.25,0,0,1,1.33-.34,1.86,1.86,0,0,1,1.53,1,4.58,4.58,0,0,1,.43,1.79h1.64Zm-2.28-.58A4,4,0,0,0,20,51.79c-.22-.72-.61-1.09-1.16-1.13-1.1-.07-2,.64-2.64,2.14v.05Z"/><path class="cls-4" d="M26.05,53.43h-.81a.87.87,0,0,1-.69-.35,1.16,1.16,0,0,1-.23-.39,1.26,1.26,0,0,1-1.14.74H22v-.58h1a.87.87,0,0,0,.47-.14.57.57,0,0,0,.28-.5c0,.15,0-.55,0-2.1h.63c0,.58,0,1.16,0,1.73a1.11,1.11,0,0,0,.28.76.7.7,0,0,0,.5.25h.87v.58Zm-2.13,1.35h-.68v-.7h.68Zm1.11,0h-.67v-.7H25Z"/><path class="cls-4" d="M30.55,53.43H25.83v-.58h4a2.59,2.59,0,0,0-.55-1.66,1.48,1.48,0,0,0-1.18-.6,2.58,2.58,0,0,0-1.25.35l-.25-.54A3.54,3.54,0,0,1,28.1,50a2.1,2.1,0,0,1,2,1.11A4.62,4.62,0,0,1,30.55,53.43Zm-2.56-4h-.67v-.7H28Z"/><path class="cls-4" d="M34.69,52.85c0,.1,0,.3,0,.58h-.81a1,1,0,0,1-.85-.56,2.77,2.77,0,0,1-.72,1.76,2.41,2.41,0,0,1-1.64.77c-.06-.11-.16-.3-.27-.56a1.88,1.88,0,0,0,1.46-.63,2.21,2.21,0,0,0,.55-1.53V50.12H33v1.81a1,1,0,0,0,.28.68.74.74,0,0,0,.5.24Z"/><path class="cls-4" d="M38.35,53.43h-.81a.87.87,0,0,1-.69-.35,1.16,1.16,0,0,1-.23-.39,1.26,1.26,0,0,1-1.14.74h-1v-.58h.84a.87.87,0,0,0,.47-.14.56.56,0,0,0,.27-.49c0,.15,0-.55,0-2.1h.63c0,.58,0,1.16,0,1.73a1.11,1.11,0,0,0,.28.76.7.7,0,0,0,.5.25h.87v.58Zm-2.22-4.06h-.67v-.7h.67Zm1.12,0h-.68v-.7h.68Z"/><path class="cls-4" d="M40,52.25a1.11,1.11,0,0,1-1.24,1.18h-.59v-.58h.58a.57.57,0,0,0,.62-.62c0-.57,0-1.36,0-2.34,0-1.14,0-1.92,0-2.35H40c0,.42,0,1.2,0,2.36C40,50.89,40,51.67,40,52.25Z"/><path class="cls-4" d="M41.85,53.43h-.63l0-5.88h.63Z"/><path class="cls-4" d="M47.89,53.43H44.94l.32-.57h.85a1.41,1.41,0,0,1,0-1.79,1.11,1.11,0,0,1,.86-.38,1,1,0,0,1,.85.44l-.26.4a.71.71,0,0,0-.56-.31q-.57,0-.57.85c0,.58.24.8.78.8h.66Z"/><path class="cls-4" d="M50.83,53.43H50a.88.88,0,0,1-.65-.26,1.08,1.08,0,0,1-.31-.81l0-4.81h.63l0,4.73c0,.34.15.53.43.57h.68Z"/><path class="cls-4" d="M56.43,53.43h-1.8A1.19,1.19,0,0,1,53.7,53a3.29,3.29,0,0,1-1.56.44h-1.5v-.58h1.48a2.83,2.83,0,0,0,1.23-.3,6.54,6.54,0,0,0-.93-1,2.25,2.25,0,0,0-1.24-.5v-.75a3.17,3.17,0,0,1,2.3-.75A3.79,3.79,0,0,1,55.3,50a2.45,2.45,0,0,1,.75.55,5.91,5.91,0,0,1-1.89,2.14.68.68,0,0,0,.37.13h1.91Zm-1.13-2.72-.47-.3a3.08,3.08,0,0,0-1.31-.27,3.22,3.22,0,0,0-1.82.45,4.09,4.09,0,0,1,2.09,1.69A5.09,5.09,0,0,0,55.31,50.71ZM54,49h-.67v-.71H54Z"/><path class="cls-4" d="M58.07,52.25a1.11,1.11,0,0,1-1.24,1.18h-.59v-.58h.58a.57.57,0,0,0,.62-.62c0-.57,0-1.36,0-2.34,0-1.14,0-1.92,0-2.35H58c0,.42,0,1.2,0,2.36C58.06,50.89,58.07,51.67,58.07,52.25Z"/><path class="cls-4" d="M60,55.32H58.56l.16-.28h.41a.69.69,0,0,1-.15-.44.61.61,0,0,1,.6-.64.51.51,0,0,1,.42.21l-.14.2a.36.36,0,0,0-.27-.15c-.19,0-.28.14-.28.42s.13.4.38.4H60Zm-.1-1.89h-.63l0-5.88h.63Z"/><path class="cls-4" d="M29.62,63.76a2.54,2.54,0,0,1-.71,1.81,2.29,2.29,0,0,1-3.4,0,2.54,2.54,0,0,1-.71-1.82c0-.23,0-.59,0-1.11h.63c0,.19,0,.56,0,1.12a1.9,1.9,0,0,0,.53,1.36,1.69,1.69,0,0,0,1.27.56,1.67,1.67,0,0,0,1.27-.57A1.94,1.94,0,0,0,29,63.74l0-.52H26.73c-.06-1.55.42-2.32,1.46-2.32a1.3,1.3,0,0,1,1.23.9l-.52.2a.76.76,0,0,0-.67-.54.75.75,0,0,0-.68.38,1.41,1.41,0,0,0-.18.79h2.23ZM27.4,67.71h-.67V67h.67Zm1.11,0h-.67V67h.67Z"/><path class="cls-4" d="M35.79,64.34H31l.19-.58h2.48a3,3,0,0,0-.45-1.56c-.25-.41-.53-.61-.83-.61V61a1.47,1.47,0,0,1,1.19.67,3.93,3.93,0,0,1,.67,2.06h1.55Z"/><path class="cls-4" d="M39,64.34h-.81a.88.88,0,0,1-.69-.35,1.16,1.16,0,0,1-.23-.39,1.26,1.26,0,0,1-1.14.74h-.6v-.58H36a.92.92,0,0,0,.47-.14.58.58,0,0,0,.27-.5c0-1.26,0-2.83,0-4.68h.63c0,1.23,0,2.7,0,4.42a1,1,0,0,0,.29.66.71.71,0,0,0,.5.25H39Z"/><path class="cls-4" d="M42.68,64.34h-.81a.87.87,0,0,1-.69-.35,1.16,1.16,0,0,1-.23-.39,1.26,1.26,0,0,1-1.14.74h-1v-.58h.84a.86.86,0,0,0,.46-.14.57.57,0,0,0,.28-.5c0,.15,0-.55,0-2.1H41c0,.58,0,1.16,0,1.73a1.11,1.11,0,0,0,.28.76.7.7,0,0,0,.5.25h.87v.58Zm-1.62,1.34h-.67V65h.67Z"/><path class="cls-4" d="M44.33,63.16a1.11,1.11,0,0,1-1.24,1.18H42.5v-.58h.58a.57.57,0,0,0,.62-.62c0-.57,0-1.36,0-2.34,0-1.14,0-1.92,0-2.35h.63c0,.42,0,1.2,0,2.36C44.32,61.8,44.33,62.58,44.33,63.16Z"/><path class="cls-4" d="M46.18,64.34h-.63l0-5.88h.63Z"/><polyline class="cls-5" points="21.31 32.65 21.31 43.38 32.29 43.38"/><polyline class="cls-6" points="52.5 15.52 52.5 4.79 41.52 4.79"/><path class="cls-7" d="M52.66,17.48a8.42,8.42,0,1,0,8.42,8.42A8.43,8.43,0,0,0,52.66,17.48Zm0,15.53a7.11,7.11,0,1,1,7.11-7.11A7.12,7.12,0,0,1,52.66,33Z"/><path class="cls-8" d="M55.32,27.84l-1.73-1.95,1.95-1.73a.65.65,0,1,0-.87-1l-1.95,1.73L51,23a.65.65,0,1,0-1,.87l1.73,1.95L49.8,27.52a.65.65,0,0,0,.87,1l1.95-1.73,1.73,1.95a.65.65,0,0,0,1-.87Z"/></svg>