<svg id="Layer_1" data-name="Layer 1" xmlns="http://www.w3.org/2000/svg" xmlns:xlink="http://www.w3.org/1999/xlink" viewBox="0 0 69.41 68.54"><defs><style>.cls-1{fill:url(#linear-gradient);}.cls-2{fill:url(#linear-gradient-2);}.cls-3{fill:#369;}.cls-4,.cls-5{fill:none;stroke-linecap:round;stroke-linejoin:round;stroke-width:2px;}.cls-4{stroke:url(#linear-gradient-3);}.cls-5{stroke:url(#linear-gradient-4);}</style><linearGradient id="linear-gradient" x1="15.41" y1="24.9" x2="55.63" y2="24.9" gradientUnits="userSpaceOnUse"><stop offset="0" stop-color="#ff1597"/><stop offset="0.04" stop-color="#e22299"/><stop offset="0.21" stop-color="#695ba0"/><stop offset="0.28" stop-color="#3971a3"/><stop offset="0.44" stop-color="#3b75a7"/><stop offset="0.59" stop-color="#4180b1"/><stop offset="0.73" stop-color="#4a92c4"/><stop offset="0.86" stop-color="#58acdd"/><stop offset="0.99" stop-color="#69cefe"/><stop offset="1" stop-color="#6acfff"/></linearGradient><linearGradient id="linear-gradient-2" x1="17.93" y1="18.6" x2="40.52" y2="18.6" xlink:href="#linear-gradient"/><linearGradient id="linear-gradient-3" x1="20.66" y1="44.15" x2="27.57" y2="37.24" xlink:href="#linear-gradient"/><linearGradient id="linear-gradient-4" x1="467.25" y1="71.01" x2="482.53" y2="55.73" gradientTransform="translate(524.64 79.27) rotate(180)" xlink:href="#linear-gradient"/></defs><title>1</title><path class="cls-1" d="M55.46,41.33,46,31.88a.59.59,0,0,0-.83,0l-.25.25L40,27.22a13.83,13.83,0,1,0-2.17,2.17l4.92,4.92-.25.25a.59.59,0,0,0,0,.83L52,44.83a.6.6,0,0,0,.83,0l2.67-2.67A.59.59,0,0,0,55.46,41.33ZM29.23,31.23A12.63,12.63,0,1,1,41.86,18.6,12.65,12.65,0,0,1,29.23,31.23Zm9.51-2.62.5-.5L44.09,33l-.5.5Zm13.64,15L43.76,35l1.84-1.84,8.61,8.61Z"/><path class="cls-2" d="M37.22,10.63a.59.59,0,0,0-.84.83A10.09,10.09,0,1,1,34,9.69a.59.59,0,0,0,.56-1,11.31,11.31,0,1,0,2.65,2Z"/><path class="cls-3" d="M25.13,11.71h-.31a.59.59,0,0,0-.59.59V24.58a1.53,1.53,0,0,0,3.07,0V19.82H28a.59.59,0,0,0,.59-.59V15.14A3.43,3.43,0,0,0,25.13,11.71Zm2.24,6.93h-.67a.59.59,0,0,0-.59.59v5.35a.35.35,0,1,1-.71,0V12.91a2.25,2.25,0,0,1,2,2.23v3.5Z"/><path class="cls-3" d="M34.26,11.71a.59.59,0,0,0-.59.59v2.56H33V12.3a.59.59,0,1,0-1.18,0v2.56h-.71V12.3a.59.59,0,1,0-1.18,0v3.78a1.85,1.85,0,0,0,.94,1.61v6.89a1.53,1.53,0,0,0,3.07,0V17.69a1.85,1.85,0,0,0,.94-1.61V12.3A.59.59,0,0,0,34.26,11.71Zm-.59,4.37a.67.67,0,0,1-.5.65.59.59,0,0,0-.44.57v7.28a.35.35,0,1,1-.71,0V17.3a.59.59,0,0,0-.44-.57.67.67,0,0,1-.5-.65v0h2.6v0Z"/><path class="cls-3" d="M13.05,55.85a2.54,2.54,0,0,1-.71,1.81,2.29,2.29,0,0,1-3.4,0,2.54,2.54,0,0,1-.71-1.82c0-.23,0-.59,0-1.11h.63c0,.19,0,.56,0,1.12a1.9,1.9,0,0,0,.53,1.36,1.69,1.69,0,0,0,1.27.56,1.67,1.67,0,0,0,1.27-.57,1.94,1.94,0,0,0,.53-1.37l0-.52H10.16c-.06-1.55.42-2.32,1.46-2.32a1.3,1.3,0,0,1,1.23.9l-.52.2a.76.76,0,0,0-.67-.54.75.75,0,0,0-.68.38,1.42,1.42,0,0,0-.18.79H13ZM10.83,59.8h-.67v-.71h.67Zm1.11,0h-.67v-.71h.67Z"/><path class="cls-3" d="M12.07,59.92h-.92V59h.92Zm-.67-.25h.42v-.46h-.42Zm-.44.25H10V59H11Zm-.67-.25h.42v-.46h-.42Zm.36-1.13a2.39,2.39,0,0,1-1.79-.79,2.68,2.68,0,0,1-.74-1.9c0-.11,0-.26,0-.46l0-.78h.88v.13c0,.12,0,.31,0,.57v.55a1.77,1.77,0,0,0,.49,1.28,1.57,1.57,0,0,0,1.18.52,1.54,1.54,0,0,0,1.18-.53,1.81,1.81,0,0,0,.49-1.29v-.39H10v-.12a2.71,2.71,0,0,1,.51-2,1.48,1.48,0,0,1,2.42.56L13,54l-.75.29,0-.11c-.14-.31-.33-.46-.56-.46a.63.63,0,0,0-.57.32,1.23,1.23,0,0,0-.16.6h2.22l0,1.24a2.67,2.67,0,0,1-.74,1.9A2.36,2.36,0,0,1,10.64,58.54ZM8.33,54.86l0,.52c0,.19,0,.34,0,.46A2.41,2.41,0,0,0,9,57.57a2.17,2.17,0,0,0,3.22,0,2.4,2.4,0,0,0,.68-1.72l0-1H10.68v-.12a1.55,1.55,0,0,1,.2-.86.87.87,0,0,1,.79-.44.83.83,0,0,1,.73.5l.29-.11a1.13,1.13,0,0,0-1.06-.71,1.18,1.18,0,0,0-.9.33,2.42,2.42,0,0,0-.44,1.73h2.26l0,.64A2.06,2.06,0,0,1,12,57.29a1.78,1.78,0,0,1-1.37.61,1.83,1.83,0,0,1-1.36-.6,2,2,0,0,1-.56-1.45v-.54c0-.19,0-.33,0-.45Z"/><path class="cls-3" d="M19.22,56.43H14.41l.19-.58h2.48a3,3,0,0,0-.45-1.56c-.25-.41-.53-.61-.83-.61v-.56a1.47,1.47,0,0,1,1.19.67,3.93,3.93,0,0,1,.67,2.06h1.55Z"/><path class="cls-3" d="M19.35,56.56H14.24l.27-.83H17a2.79,2.79,0,0,0-.42-1.37c-.23-.37-.47-.55-.72-.55h-.12V53h.13a1.59,1.59,0,0,1,1.29.72,4,4,0,0,1,.69,2h1.56Zm-4.76-.25H19.1V56H17.56v-.12a3.83,3.83,0,0,0-.65-2,1.38,1.38,0,0,0-1-.62v.32a1.24,1.24,0,0,1,.81.66,3.1,3.1,0,0,1,.46,1.63V56H14.7Z"/><path class="cls-3" d="M22.45,56.43h-.81a.88.88,0,0,1-.69-.35,1.16,1.16,0,0,1-.23-.39,1.26,1.26,0,0,1-1.14.74H19v-.58h.43a.92.92,0,0,0,.47-.14.58.58,0,0,0,.27-.5c0-1.26,0-2.83,0-4.68h.63c0,1.23,0,2.7,0,4.42a1,1,0,0,0,.29.66.71.71,0,0,0,.5.25h.87Z"/><path class="cls-3" d="M22.58,56.56h-.93a1,1,0,0,1-.79-.39,1.42,1.42,0,0,1-.14-.19,1.45,1.45,0,0,1-1.12.58h-.73v-.83h.55a.8.8,0,0,0,.41-.12.45.45,0,0,0,.21-.39c0-1.13,0-2.57,0-4.68V50.4h.88v.68c0,1.11,0,2.4,0,3.87a.85.85,0,0,0,.26.57.59.59,0,0,0,.41.21h1Zm-1.84-1.23.11.33A1,1,0,0,0,21,56a.75.75,0,0,0,.6.3h.68V56h-.75a.82.82,0,0,1-.59-.28,1.11,1.11,0,0,1-.33-.74c0-1.47,0-2.76,0-3.87v-.43h-.38c0,2,0,3.45,0,4.56a.71.71,0,0,1-.33.6,1,1,0,0,1-.54.16h-.3v.33h.48a1.13,1.13,0,0,0,1-.66Z"/><path class="cls-3" d="M26.12,56.43h-.81a.87.87,0,0,1-.69-.35,1.16,1.16,0,0,1-.23-.39,1.26,1.26,0,0,1-1.14.74h-1v-.58h.84a.86.86,0,0,0,.46-.14.57.57,0,0,0,.28-.5c0,.15,0-.55,0-2.1h.63c0,.58,0,1.16,0,1.73a1.11,1.11,0,0,0,.28.76.7.7,0,0,0,.5.25h.87v.58ZM24.5,57.77h-.67v-.7h.67Z"/><path class="cls-3" d="M24.62,57.89H23.7v-1h.92Zm-.67-.25h.42v-.45h-.42Zm2.29-1.09h-.93a1,1,0,0,1-.79-.39,1.32,1.32,0,0,1-.14-.19,1.45,1.45,0,0,1-1.12.58H22.12v-.83h1a.73.73,0,0,0,.4-.12.44.44,0,0,0,.22-.39h0c0-.07,0-.65,0-2.09V53h.88v.13c0,.58,0,1.15,0,1.73a1,1,0,0,0,.25.68.58.58,0,0,0,.41.21h1ZM24.4,55.33l.11.33a1,1,0,0,0,.2.35.75.75,0,0,0,.6.3H26V56h-.75a.82.82,0,0,1-.59-.28,1.23,1.23,0,0,1-.32-.85c0-.53,0-1.07,0-1.61h-.37c0,1.23,0,1.75,0,2h0v0h0a.7.7,0,0,1-.34.6,1,1,0,0,1-.53.16h-.71v.33h.88a1.13,1.13,0,0,0,1-.66Z"/><path class="cls-3" d="M27.76,55.25a1.11,1.11,0,0,1-1.24,1.18h-.59v-.58h.58a.57.57,0,0,0,.62-.62c0-.57,0-1.36,0-2.34,0-1.14,0-1.92,0-2.35h.63c0,.42,0,1.2,0,2.36C27.75,53.89,27.76,54.67,27.76,55.25Z"/><path class="cls-3" d="M26.52,56.56h-.72v-.83h.71a.45.45,0,0,0,.49-.49c0-.45,0-1,0-1.73V52c0-.66,0-1.14,0-1.44v-.12h.88v.13q0,.4,0,1.24v1.49c0,.81,0,1.46,0,2A1.23,1.23,0,0,1,26.52,56.56Zm-.47-.25h.47a1,1,0,0,0,1.11-1.06c0-.5,0-1.16,0-2V51.79c0-.48,0-.86,0-1.12h-.38c0,.3,0,.74,0,1.32V53.5c0,.7,0,1.28,0,1.73a.7.7,0,0,1-.74.74h-.46Z"/><path class="cls-3" d="M29.61,56.43H29l0-5.88h.63Z"/><path class="cls-3" d="M29.74,56.56h-.88l0-6.13h.88Zm-.63-.25h.38l0-5.63h-.38Z"/><path class="cls-3" d="M43.29,56.43H37a2.44,2.44,0,0,1-.65,1.23,2.29,2.29,0,0,1-3.4,0,2.54,2.54,0,0,1-.71-1.82l0-1.86h.63c0,.66,0,1.29,0,1.86a1.9,1.9,0,0,0,.53,1.36,1.7,1.7,0,0,0,1.27.56,1.67,1.67,0,0,0,1.27-.57,1.94,1.94,0,0,0,.53-1.37l0-1.85H37v.85a3.25,3.25,0,0,1,1.33-1.38,2.25,2.25,0,0,1,1.33-.34,1.86,1.86,0,0,1,1.53,1,4.58,4.58,0,0,1,.43,1.79h1.64ZM41,55.85a4,4,0,0,0-.15-1.06c-.22-.72-.61-1.09-1.16-1.13-1.1-.07-2,.64-2.64,2.14v.05Z"/><path class="cls-3" d="M34.64,58.54a2.39,2.39,0,0,1-1.79-.79,2.68,2.68,0,0,1-.74-1.9l0-2h.88V54c0,.66,0,1.29,0,1.86a1.77,1.77,0,0,0,.49,1.28,1.59,1.59,0,0,0,1.18.52,1.54,1.54,0,0,0,1.18-.53,1.81,1.81,0,0,0,.5-1.29l0-2h.87v.53a3.3,3.3,0,0,1,1.15-1,2.35,2.35,0,0,1,1.4-.35,2,2,0,0,1,1.62,1,4.48,4.48,0,0,1,.43,1.73h1.65v.83H37.09a2.58,2.58,0,0,1-.66,1.19A2.36,2.36,0,0,1,34.64,58.54Zm-2.32-4.43,0,1.73A2.41,2.41,0,0,0,33,57.57a2.17,2.17,0,0,0,3.22,0,2.32,2.32,0,0,0,.61-1.17l0-.1h6.28V56H41.54v-.11a4.44,4.44,0,0,0-.41-1.74,1.73,1.73,0,0,0-1.43-.89,2.15,2.15,0,0,0-1.25.32,3.13,3.13,0,0,0-1.28,1.33l-.23.44V54.1h-.37l0,1.73A2.05,2.05,0,0,1,36,57.29a1.78,1.78,0,0,1-1.36.61,1.83,1.83,0,0,1-1.36-.6,2,2,0,0,1-.56-1.45c0-.54,0-1.12,0-1.74ZM41.13,56H36.93v-.23c.67-1.54,1.61-2.28,2.76-2.21.61,0,1,.45,1.28,1.22a4.13,4.13,0,0,1,.16,1.1Zm-3.91-.25h3.66a3.74,3.74,0,0,0-.14-.9c-.2-.67-.55-1-1.05-1C38.68,53.72,37.84,54.37,37.22,55.73Z"/><path class="cls-3" d="M47,56.43h-.81a.87.87,0,0,1-.69-.35,1.16,1.16,0,0,1-.23-.39,1.26,1.26,0,0,1-1.14.74H42.89v-.58h1a.87.87,0,0,0,.47-.14.57.57,0,0,0,.28-.5c0,.15,0-.55,0-2.1h.63c0,.58,0,1.16,0,1.73a1.11,1.11,0,0,0,.28.76.7.7,0,0,0,.5.25H47v.58Zm-2.13,1.35h-.68v-.7h.68Zm1.11,0h-.67v-.7h.67Z"/><path class="cls-3" d="M46.06,57.9h-.92V57h.92Zm-.67-.25h.42V57.2h-.42Zm-.44.25H44V57h.93Zm-.68-.25h.43V57.2h-.43Zm2.81-1.1h-.93a1,1,0,0,1-.79-.39,1.32,1.32,0,0,1-.14-.19,1.45,1.45,0,0,1-1.12.58H42.77v-.83H43.9a.74.74,0,0,0,.41-.12.44.44,0,0,0,.22-.39h0c0-.06,0-.65,0-2.09V53h.88v.13c0,.58,0,1.15,0,1.73a1,1,0,0,0,.25.68.58.58,0,0,0,.41.21h1Zm-1.85-1.23.11.33a1,1,0,0,0,.2.35.75.75,0,0,0,.6.3h.68V56h-.75a.82.82,0,0,1-.59-.28,1.23,1.23,0,0,1-.32-.85c0-.53,0-1.07,0-1.61h-.37c0,1.23,0,1.75,0,2h0a.7.7,0,0,1-.34.6,1,1,0,0,1-.54.16H43v.33h1.07a1.13,1.13,0,0,0,1-.66Z"/><path class="cls-3" d="M51.45,56.43H46.73v-.58h4a2.59,2.59,0,0,0-.55-1.66,1.48,1.48,0,0,0-1.18-.6,2.58,2.58,0,0,0-1.25.35l-.25-.54A3.54,3.54,0,0,1,49,53a2.1,2.1,0,0,1,2,1.11A4.62,4.62,0,0,1,51.45,56.43Zm-2.56-4h-.67v-.7h.67Z"/><path class="cls-3" d="M51.58,56.56h-5v-.83h4a2.42,2.42,0,0,0-.52-1.46A1.35,1.35,0,0,0,49,53.71a2.47,2.47,0,0,0-1.19.34l-.12.06-.37-.77.11-.05A3.68,3.68,0,0,1,49,52.9a2.22,2.22,0,0,1,2.06,1.17,4.71,4.71,0,0,1,.52,2.36Zm-4.72-.25h4.47a4.36,4.36,0,0,0-.48-2.11,2,2,0,0,0-1.85-1,3.31,3.31,0,0,0-1.31.32l.14.3a2.66,2.66,0,0,1,1.2-.31,1.61,1.61,0,0,1,1.28.65,2.71,2.71,0,0,1,.58,1.74V56h-4ZM49,52.51H48.1v-1H49Zm-.67-.25h.42v-.45h-.42Z"/><path class="cls-3" d="M55.59,55.85c0,.1,0,.3,0,.58h-.81a1,1,0,0,1-.85-.56,2.77,2.77,0,0,1-.72,1.76,2.41,2.41,0,0,1-1.64.77c-.06-.11-.16-.3-.27-.56a1.88,1.88,0,0,0,1.46-.63,2.21,2.21,0,0,0,.55-1.53V53.12h.63v1.81a1,1,0,0,0,.28.68.74.74,0,0,0,.5.24Z"/><path class="cls-3" d="M51.5,58.54l0-.07c-.06-.11-.15-.29-.28-.58l-.08-.18h.19a1.75,1.75,0,0,0,1.36-.59,2.1,2.1,0,0,0,.51-1.44V53H54v1.93a.84.84,0,0,0,.24.59.61.61,0,0,0,.41.2h1v.14c0,.09,0,.29,0,.57v.13h-.93a1,1,0,0,1-.76-.35,2.83,2.83,0,0,1-.71,1.51,2.54,2.54,0,0,1-1.72.81Zm0-.58.15.31a2.25,2.25,0,0,0,1.48-.73,2.63,2.63,0,0,0,.69-1.69l0-.42.21.37a.83.83,0,0,0,.74.5h.68c0-.14,0-.25,0-.33H54.7a.85.85,0,0,1-.59-.27,1.1,1.1,0,0,1-.32-.77V53.25h-.38v2.44a2.35,2.35,0,0,1-.58,1.61A2,2,0,0,1,51.48,58Z"/><path class="cls-3" d="M59.25,56.43h-.81a.87.87,0,0,1-.69-.35,1.16,1.16,0,0,1-.23-.39,1.26,1.26,0,0,1-1.14.74h-1v-.58h.84a.87.87,0,0,0,.47-.14.56.56,0,0,0,.27-.49c0,.15,0-.55,0-2.1h.63c0,.58,0,1.16,0,1.73a1.11,1.11,0,0,0,.28.76.7.7,0,0,0,.5.25h.87v.58ZM57,52.38h-.67v-.7H57Zm1.12,0h-.68v-.7h.68Z"/><path class="cls-3" d="M59.38,56.56h-.93a1,1,0,0,1-.79-.39,1.32,1.32,0,0,1-.14-.19,1.45,1.45,0,0,1-1.12.58H55.25v-.83h1a.76.76,0,0,0,.41-.12.43.43,0,0,0,.21-.38h0c0-.07,0-.65,0-2.09V53h.88v.13c0,.58,0,1.15,0,1.73a1,1,0,0,0,.25.68.58.58,0,0,0,.41.21h1Zm-1.85-1.23.11.33a1,1,0,0,0,.2.35.75.75,0,0,0,.6.3h.68V56h-.75a.82.82,0,0,1-.59-.28,1.23,1.23,0,0,1-.32-.85c0-.53,0-1.07,0-1.61h-.37c0,1.23,0,1.75,0,2h0v0h0a.68.68,0,0,1-.33.6,1,1,0,0,1-.54.16H55.5v.33h.88a1.13,1.13,0,0,0,1-.66Zm.74-2.83h-.93v-1h.93Zm-.68-.25H58V51.8h-.43Zm-.44.25h-.92v-1h.92Zm-.67-.25h.42V51.8h-.42Z"/><path class="cls-3" d="M60.89,55.25a1.11,1.11,0,0,1-1.24,1.18h-.59v-.58h.58a.57.57,0,0,0,.62-.62c0-.57,0-1.36,0-2.34,0-1.14,0-1.92,0-2.35h.63c0,.42,0,1.2,0,2.36C60.89,53.89,60.89,54.67,60.89,55.25Z"/><path class="cls-3" d="M59.66,56.56h-.72v-.83h.71a.45.45,0,0,0,.49-.49c0-.45,0-1,0-1.73V52c0-.66,0-1.14,0-1.44v-.12H61v.13q0,.4,0,1.24v1.49c0,.81,0,1.46,0,2A1.23,1.23,0,0,1,59.66,56.56Zm-.47-.25h.47a1,1,0,0,0,1.11-1.06c0-.5,0-1.16,0-2V51.79c0-.48,0-.86,0-1.12h-.38c0,.3,0,.74,0,1.32V53.5c0,.7,0,1.28,0,1.73a.7.7,0,0,1-.74.74h-.46Z"/><path class="cls-3" d="M62.75,56.43h-.63l0-5.88h.63Z"/><path class="cls-3" d="M62.87,56.56H62l0-6.13h.88Zm-.63-.25h.38l0-5.63H62.2Z"/><polyline class="cls-4" points="21.31 32.65 21.31 43.38 32.29 43.38"/><polyline class="cls-5" points="52.5 32.52 52.5 4.79 41.52 4.79"/></svg>