<svg id="Layer_1" data-name="Layer 1" xmlns="http://www.w3.org/2000/svg" viewBox="0 0 55.17 35.75"><defs><style>.cls-1,.cls-4,.cls-5{fill:none;stroke:#fff;stroke-miterlimit:10;stroke-width:0.15px;}.cls-1{fill-rule:evenodd;}.cls-1,.cls-2,.cls-4{opacity:0.4;}.cls-3{fill:#fff;}</style></defs><title>1pattern</title><polygon class="cls-1" points="23.63 9.84 0.15 9.84 0.15 4.17 20.43 4.17 23.63 9.84"/><g class="cls-2"><path class="cls-3" d="M40.36,11.4c-13,0-26,.43-38.93,0-.67,0-1.34-.29-.9.25C0,11,.53,7.46.53,6.53c0-.54-.11-4.1-.17-4s1.77.13,2.19.13H26.27c2.56,0,4.21-.4,5.73.88C34.95,6,37.45,9.24,40.09,12c.33.35.86-.18.53-.53C38,8.76,35.21,4.34,32,2.4c-1.61-1-3.77-.53-5.73-.53H.15a.38.38,0,0,0-.38.38v9.53a.38.38,0,0,0,.38.38H40.36A.38.38,0,0,0,40.36,11.4Z"/></g><g class="cls-2"><path class="cls-3" d="M.15,22.12h5.2a15.79,15.79,0,0,1,3.27,0c1.31.31.31-.4.61,0,.74,1.07,0,5.27,0,6.57v5a.38.38,0,0,0,.38.38H48.79a.38.38,0,0,0,.38-.38V20c0-3.49.17-4.19-2.83-6.41-.68-.5-2.5-1.16-2.63-1.3-.27-.29.15-1.15-.05-1.58s-.94-.88-1.32-1.26c-1.6-1.61-3.6-4.12-5.58-5.23-1.07-.6-2-.44-3.36-.44a.38.38,0,0,0,0,.75c3,0,3.48.83,5.72,2.92C41.12,9.36,43,10.23,43,13a.38.38,0,0,0,.38.38c7.34,0,5.08,10.19,5.08,14.7,0,1.35.48,3.76,0,5-.36.95.85,0-.42.26-2.75.62-6.42,0-9.21,0H13.51c-.87,0-2.41.31-3.23,0s-.16.76-.28-.82C9.72,29,10,25.3,10,21.74a.38.38,0,0,0-.38-.38H.15a.38.38,0,0,0,0,.75Z"/></g><line class="cls-4" x1="48.33" y1="16.02" x2="0.15" y2="16.02"/><g class="cls-2"><rect class="cls-5" x="13.43" y="6.78" width="0.26" height="1.48"/><rect class="cls-5" x="13.43" y="6.33" width="0.23" height="0.35"/><rect class="cls-5" x="12.51" y="6.78" width="0.26" height="1.48"/><rect class="cls-5" x="12.51" y="6.33" width="0.23" height="0.35"/><rect class="cls-5" x="11.65" y="6.78" width="0.26" height="1.48"/><rect class="cls-5" x="11.65" y="6.33" width="0.23" height="0.35"/><rect class="cls-5" x="10.89" y="6.78" width="0.26" height="1.48"/><rect class="cls-5" x="10.89" y="6.33" width="0.23" height="0.35"/><rect class="cls-5" x="10.13" y="6.78" width="0.26" height="1.48"/><rect class="cls-5" x="10.13" y="6.33" width="0.23" height="0.35"/><rect class="cls-5" x="9.21" y="6.78" width="0.26" height="1.48"/><rect class="cls-5" x="9.21" y="6.33" width="0.23" height="0.35"/><rect class="cls-5" x="8.35" y="6.78" width="0.26" height="1.48"/><rect class="cls-5" x="8.35" y="6.33" width="0.23" height="0.35"/><rect class="cls-5" x="6.22" y="6.78" width="0.26" height="1.48"/><rect class="cls-5" x="6.22" y="6.33" width="0.23" height="0.35"/><rect class="cls-5" x="5.3" y="6.78" width="0.26" height="1.48"/><rect class="cls-5" x="5.3" y="6.33" width="0.23" height="0.35"/><rect class="cls-5" x="4.43" y="6.78" width="0.26" height="1.48"/><rect class="cls-5" x="4.43" y="6.33" width="0.23" height="0.35"/><rect class="cls-5" x="3.68" y="6.78" width="0.26" height="1.48"/><rect class="cls-5" x="3.68" y="6.33" width="0.23" height="0.35"/><rect class="cls-5" x="2.92" y="6.78" width="0.26" height="1.48"/><rect class="cls-5" x="2.92" y="6.33" width="0.23" height="0.35"/><rect class="cls-5" x="2" y="6.78" width="0.26" height="1.48"/><rect class="cls-5" x="2" y="6.33" width="0.23" height="0.35"/><rect class="cls-5" x="1.14" y="6.78" width="0.26" height="1.48"/><rect class="cls-5" x="1.14" y="6.33" width="0.23" height="0.35"/></g><rect class="cls-4" x="45.26" y="25.02" width="1.17" height="1.6"/><rect class="cls-4" x="43.28" y="25.08" width="1.17" height="1.6"/><rect class="cls-4" x="43.28" y="22" width="1.17" height="1.6"/><rect class="cls-4" x="45.26" y="21.94" width="1.17" height="1.6"/><rect class="cls-4" x="40.92" y="25.08" width="1.17" height="1.6"/><rect class="cls-4" x="38.5" y="25.08" width="1.17" height="1.6"/><rect class="cls-4" x="40.92" y="22" width="1.17" height="1.6"/><rect class="cls-4" x="38.5" y="22" width="1.17" height="1.6"/><rect class="cls-4" x="36.14" y="25.08" width="1.17" height="1.6"/><rect class="cls-4" x="33.72" y="25.08" width="1.17" height="1.6"/><rect class="cls-4" x="36.14" y="22" width="1.17" height="1.6"/><rect class="cls-4" x="33.72" y="22" width="1.17" height="1.6"/><rect class="cls-4" x="31.37" y="25.08" width="1.17" height="1.6"/><rect class="cls-4" x="28.95" y="25.08" width="1.17" height="1.6"/><rect class="cls-4" x="31.37" y="22" width="1.17" height="1.6"/><rect class="cls-4" x="28.95" y="22" width="1.17" height="1.6"/><rect class="cls-4" x="26.34" y="25.08" width="1.17" height="1.6"/><rect class="cls-4" x="23.92" y="25.08" width="1.17" height="1.6"/><rect class="cls-4" x="26.34" y="22" width="1.17" height="1.6"/><rect class="cls-4" x="23.92" y="22" width="1.17" height="1.6"/><rect class="cls-4" x="21.56" y="25.08" width="1.17" height="1.6"/><rect class="cls-4" x="19.14" y="25.08" width="1.17" height="1.6"/><rect class="cls-4" x="21.56" y="22" width="1.17" height="1.6"/><rect class="cls-4" x="19.14" y="22" width="1.17" height="1.6"/><rect class="cls-4" x="16.78" y="25.08" width="1.17" height="1.6"/><rect class="cls-4" x="14.09" y="25.08" width="1.17" height="1.6"/><rect class="cls-4" x="16.78" y="22" width="1.17" height="1.6"/><rect class="cls-4" x="14.09" y="22" width="1.17" height="1.6"/><rect class="cls-4" x="11.73" y="25.08" width="1.17" height="1.6"/><rect class="cls-4" x="11.73" y="22" width="1.17" height="1.6"/><rect class="cls-4" x="46.12" y="18.32" width="0.42" height="2.19"/><rect class="cls-4" x="46.12" y="17.65" width="0.39" height="0.52"/><rect class="cls-4" x="45.03" y="18.38" width="0.42" height="2.19"/><rect class="cls-4" x="45.03" y="17.71" width="0.39" height="0.52"/><rect class="cls-4" x="43.61" y="18.38" width="0.42" height="2.19"/><rect class="cls-4" x="43.61" y="17.71" width="0.39" height="0.52"/><rect class="cls-4" x="42.36" y="18.38" width="0.42" height="2.19"/><rect class="cls-4" x="42.36" y="17.71" width="0.39" height="0.52"/><rect class="cls-4" x="41.11" y="18.38" width="0.42" height="2.19"/><rect class="cls-4" x="41.11" y="17.71" width="0.39" height="0.52"/><rect class="cls-4" x="39.59" y="18.38" width="0.42" height="2.19"/><rect class="cls-4" x="39.59" y="17.71" width="0.39" height="0.52"/><rect class="cls-4" x="38.16" y="18.38" width="0.42" height="2.19"/><rect class="cls-4" x="38.16" y="17.71" width="0.39" height="0.52"/><rect class="cls-4" x="36.64" y="18.38" width="0.42" height="2.19"/><rect class="cls-4" x="36.64" y="17.71" width="0.39" height="0.52"/><rect class="cls-4" x="35.19" y="18.38" width="0.42" height="2.19"/><rect class="cls-4" x="35.19" y="17.71" width="0.39" height="0.52"/><rect class="cls-4" x="33.67" y="18.38" width="0.42" height="2.19"/><rect class="cls-4" x="33.67" y="17.71" width="0.39" height="0.52"/><rect class="cls-4" x="32.25" y="18.38" width="0.42" height="2.19"/><rect class="cls-4" x="32.25" y="17.71" width="0.39" height="0.52"/><rect class="cls-4" x="31" y="18.38" width="0.42" height="2.19"/><rect class="cls-4" x="31" y="17.71" width="0.39" height="0.52"/><rect class="cls-4" x="29.74" y="18.38" width="0.42" height="2.19"/><rect class="cls-4" x="29.74" y="17.71" width="0.39" height="0.52"/><rect class="cls-4" x="28.22" y="18.38" width="0.42" height="2.19"/><rect class="cls-4" x="28.22" y="17.71" width="0.39" height="0.52"/><rect class="cls-4" x="26.8" y="18.38" width="0.42" height="2.19"/><rect class="cls-4" x="26.8" y="17.71" width="0.39" height="0.52"/><rect class="cls-4" x="25.28" y="18.38" width="0.42" height="2.19"/><rect class="cls-4" x="25.28" y="17.71" width="0.39" height="0.52"/><rect class="cls-4" x="23.39" y="18.38" width="0.42" height="2.19"/><rect class="cls-4" x="23.39" y="17.71" width="0.39" height="0.52"/><rect class="cls-4" x="21.87" y="18.38" width="0.42" height="2.19"/><rect class="cls-4" x="21.87" y="17.71" width="0.39" height="0.52"/><rect class="cls-4" x="20.44" y="18.38" width="0.42" height="2.19"/><rect class="cls-4" x="20.44" y="17.71" width="0.39" height="0.52"/><rect class="cls-4" x="19.2" y="18.38" width="0.42" height="2.19"/><rect class="cls-4" x="19.2" y="17.71" width="0.39" height="0.52"/><rect class="cls-4" x="17.53" y="18.38" width="0.42" height="2.19"/><rect class="cls-4" x="17.53" y="17.71" width="0.39" height="0.52"/><rect class="cls-4" x="16.11" y="18.38" width="0.42" height="2.19"/><rect class="cls-4" x="16.11" y="17.71" width="0.39" height="0.52"/><rect class="cls-4" x="14.68" y="18.38" width="0.42" height="2.19"/><rect class="cls-4" x="14.68" y="17.71" width="0.39" height="0.52"/><rect class="cls-4" x="13.15" y="18.38" width="0.42" height="2.19"/><rect class="cls-4" x="13.15" y="17.71" width="0.39" height="0.52"/><rect class="cls-4" x="11.73" y="18.38" width="0.42" height="2.19"/><rect class="cls-4" x="11.73" y="17.71" width="0.39" height="0.52"/><rect class="cls-4" x="8.81" y="18.38" width="0.42" height="2.19"/><rect class="cls-4" x="8.81" y="17.71" width="0.39" height="0.52"/><rect class="cls-4" x="7.2" y="18.38" width="0.42" height="2.19"/><rect class="cls-4" x="7.2" y="17.71" width="0.39" height="0.52"/><rect class="cls-4" x="5.76" y="18.38" width="0.42" height="2.19"/><rect class="cls-4" x="5.76" y="17.71" width="0.39" height="0.52"/><rect class="cls-4" x="4.16" y="18.38" width="0.42" height="2.19"/><rect class="cls-4" x="4.16" y="17.71" width="0.39" height="0.52"/><rect class="cls-4" x="2.78" y="18.38" width="0.42" height="2.19"/><rect class="cls-4" x="2.78" y="17.71" width="0.39" height="0.52"/><rect class="cls-4" x="38.39" y="11.86" width="0.39" height="4.1"/><rect class="cls-4" x="0.15" y="12.55" width="18.85" height="0.32"/><rect class="cls-4" x="0.15" y="13.29" width="18.85" height="0.32"/><rect class="cls-4" x="0.15" y="14.02" width="18.85" height="0.32"/><rect class="cls-4" x="0.15" y="14.68" width="18.85" height="0.32"/><rect class="cls-4" x="0.15" y="12.17" width="36.62" height="0.12"/><rect class="cls-4" x="0.15" y="12.45" width="36.62" height="0.12"/><rect class="cls-4" x="0.15" y="12.73" width="36.62" height="0.12"/><rect class="cls-4" x="0.15" y="14.4" width="36.62" height="0.12"/><rect class="cls-4" x="0.15" y="12.98" width="36.62" height="0.12"/><rect class="cls-4" x="23.58" y="12.56" width="13.18" height="0.32"/><rect class="cls-4" x="23.58" y="13.3" width="13.18" height="0.32"/><rect class="cls-4" x="23.58" y="14.02" width="13.18" height="0.32"/><rect class="cls-4" x="23.58" y="14.68" width="13.18" height="0.32"/><rect class="cls-4" x="0.15" y="15.97" width="48.33" height="0.57"/><polygon class="cls-1" points="25.45 5.57 32.8 5.4 36.28 9.61 27.95 9.81 25.45 5.57"/><g class="cls-2"><path class="cls-5" d="M3.62,27v6.86H3.4V27c0-1.65-.73-2.24-1.94-3.22-.37-.3-.78-.63-1.2-1l-.11.1v-.37l.11-.1c.46.44.91.81,1.31,1.13C2.8,24.52,3.62,25.18,3.62,27Z"/><path class="cls-5" d="M3.47,27.18v6.61H3.26V27.18c0-1.6-.7-2.17-1.86-3.11-.35-.29-.74-.61-1.15-1l-.1.09v-.36l.1-.09c.44.42.87.78,1.26,1.09C2.69,24.77,3.47,25.41,3.47,27.18Z"/></g><path class="cls-4" d="M2.69,28v5.77H2.53V28a3.16,3.16,0,0,0-1.41-2.71,11.89,11.89,0,0,1-.87-.87l-.1.1v-.3l.1-.11c.33.37.66.68.95,1A3.43,3.43,0,0,1,2.69,28Z"/><path class="cls-4" d="M4.89,33.63v-4a2.22,2.22,0,0,1,1-1.9c.19-.17.4-.37.61-.6.21.23.42.43.61.6a2.22,2.22,0,0,1,1,1.9v4H8.2v-4a2.4,2.4,0,0,0-1-2.06c-.2-.19-.43-.41-.67-.67-.23.26-.46.48-.67.67a2.4,2.4,0,0,0-1,2.06v4Z"/><g class="cls-2"><path class="cls-5" d="M4.28,33.81V28.9c0-1.19.5-1.61,1.32-2.31.25-.21.53-.45.82-.74.29.29.57.52.82.74.82.7,1.32,1.12,1.32,2.31v4.92H8.7V28.9a2.86,2.86,0,0,0-1.39-2.51c-.27-.23-.58-.49-.89-.81-.31.32-.62.58-.89.81A2.86,2.86,0,0,0,4.13,28.9v4.92Z"/><path class="cls-5" d="M4.37,33.76V29a2.57,2.57,0,0,1,1.27-2.24c.24-.21.51-.44.79-.71.28.28.55.51.79.71A2.57,2.57,0,0,1,8.47,29v4.76h.14V29a2.77,2.77,0,0,0-1.34-2.43c-.26-.23-.56-.48-.86-.79-.3.31-.6.56-.86.79A2.77,2.77,0,0,0,4.22,29v4.76Z"/></g></svg>