<svg id="Layer_1" data-name="Layer 1" xmlns="http://www.w3.org/2000/svg" xmlns:xlink="http://www.w3.org/1999/xlink" viewBox="0 0 69.41 68.54"><defs><style>.cls-1{fill:url(#linear-gradient);}.cls-2{fill:url(#linear-gradient-2);}.cls-3,.cls-4{fill:#369;}.cls-4{stroke:#369;stroke-miterlimit:10;stroke-width:0.25px;}.cls-5{fill:url(#linear-gradient-3);}.cls-6{fill:url(#linear-gradient-4);}.cls-7{fill:url(#linear-gradient-5);}.cls-8{fill:url(#linear-gradient-6);}</style><linearGradient id="linear-gradient" x1="15.41" y1="24.9" x2="55.63" y2="24.9" gradientUnits="userSpaceOnUse"><stop offset="0" stop-color="#ff1597"/><stop offset="0.04" stop-color="#e22299"/><stop offset="0.21" stop-color="#695ba0"/><stop offset="0.28" stop-color="#3971a3"/><stop offset="0.44" stop-color="#3b75a7"/><stop offset="0.59" stop-color="#4180b1"/><stop offset="0.73" stop-color="#4a92c4"/><stop offset="0.86" stop-color="#58acdd"/><stop offset="0.99" stop-color="#69cefe"/><stop offset="1" stop-color="#6acfff"/></linearGradient><linearGradient id="linear-gradient-2" x1="17.93" y1="18.6" x2="40.52" y2="18.6" xlink:href="#linear-gradient"/><linearGradient id="linear-gradient-3" x1="7.58" y1="38.92" x2="47.91" y2="38.92" xlink:href="#linear-gradient"/><linearGradient id="linear-gradient-4" x1="44.1" y1="33.42" x2="68.73" y2="33.42" xlink:href="#linear-gradient"/><linearGradient id="linear-gradient-5" x1="56.62" y1="18.64" x2="52.83" y2="2.23" gradientUnits="userSpaceOnUse"><stop offset="0" stop-color="#ff1597"/><stop offset="0.1" stop-color="#e22299"/><stop offset="0.55" stop-color="#695ba0"/><stop offset="0.75" stop-color="#3971a3"/><stop offset="0.81" stop-color="#3b75a7"/><stop offset="0.86" stop-color="#4180b1"/><stop offset="0.9" stop-color="#4a92c4"/><stop offset="0.95" stop-color="#58acdd"/><stop offset="1" stop-color="#69cefe"/><stop offset="1" stop-color="#6acfff"/></linearGradient><linearGradient id="linear-gradient-6" x1="116.16" y1="-23.26" x2="114.44" y2="-30.72" gradientTransform="translate(-42.12 -57.76) rotate(48.3)" xlink:href="#linear-gradient-5"/></defs><title>2-3</title><path class="cls-1" d="M55.46,41.33,46,31.88a.59.59,0,0,0-.83,0l-.25.25L40,27.22a13.83,13.83,0,1,0-2.17,2.17l4.92,4.92-.25.25a.59.59,0,0,0,0,.83L52,44.83a.6.6,0,0,0,.83,0l2.67-2.67A.59.59,0,0,0,55.46,41.33ZM29.23,31.23A12.63,12.63,0,1,1,41.86,18.6,12.65,12.65,0,0,1,29.23,31.23Zm9.51-2.62.5-.5L44.09,33l-.5.5Zm13.64,15L43.76,35l1.84-1.84,8.61,8.61Z"/><path class="cls-2" d="M37.22,10.63a.59.59,0,0,0-.84.83A10.09,10.09,0,1,1,34,9.69a.59.59,0,0,0,.56-1,11.31,11.31,0,1,0,2.65,2Z"/><path class="cls-3" d="M25.13,11.71h-.31a.59.59,0,0,0-.59.59V24.58a1.53,1.53,0,0,0,3.07,0V19.82H28a.59.59,0,0,0,.59-.59V15.14A3.43,3.43,0,0,0,25.13,11.71Zm2.24,6.93h-.67a.59.59,0,0,0-.59.59v5.35a.35.35,0,1,1-.71,0V12.91a2.25,2.25,0,0,1,2,2.23v3.5Z"/><path class="cls-3" d="M34.26,11.71a.59.59,0,0,0-.59.59v2.56H33V12.3a.59.59,0,1,0-1.18,0v2.56h-.71V12.3a.59.59,0,1,0-1.18,0v3.78a1.85,1.85,0,0,0,.94,1.61v6.89a1.53,1.53,0,0,0,3.07,0V17.69a1.85,1.85,0,0,0,.94-1.61V12.3A.59.59,0,0,0,34.26,11.71Zm-.59,4.37a.67.67,0,0,1-.5.65.59.59,0,0,0-.44.57v7.28a.35.35,0,1,1-.71,0V17.3a.59.59,0,0,0-.44-.57.67.67,0,0,1-.5-.65v0h2.6v0Z"/><path class="cls-4" d="M24,53.43h-6.3a2.44,2.44,0,0,1-.65,1.23,2.29,2.29,0,0,1-3.4,0A2.54,2.54,0,0,1,13,52.84l0-1.86h.63c0,.66,0,1.29,0,1.86a1.9,1.9,0,0,0,.53,1.36,1.7,1.7,0,0,0,1.27.56,1.67,1.67,0,0,0,1.27-.57,1.94,1.94,0,0,0,.53-1.37l0-1.85h.62v.85a3.25,3.25,0,0,1,1.33-1.38,2.25,2.25,0,0,1,1.33-.34,1.86,1.86,0,0,1,1.53,1,4.58,4.58,0,0,1,.43,1.79H24Zm-2.28-.58a4,4,0,0,0-.15-1.06c-.22-.72-.61-1.09-1.16-1.13q-1.65-.11-2.64,2.14v.05Z"/><path class="cls-4" d="M27.68,53.43h-.81a.87.87,0,0,1-.69-.35A1.16,1.16,0,0,1,26,52.7a1.26,1.26,0,0,1-1.14.74H23.63v-.58h1a.87.87,0,0,0,.47-.14.57.57,0,0,0,.28-.5c0,.15,0-.55,0-2.1H26c0,.58,0,1.16,0,1.73a1.11,1.11,0,0,0,.28.76.7.7,0,0,0,.5.25h.87v.58Zm-2.13,1.35h-.68v-.7h.68Zm1.11,0H26v-.7h.67Z"/><path class="cls-4" d="M32.18,53.43H27.46v-.58h4a2.59,2.59,0,0,0-.55-1.66,1.48,1.48,0,0,0-1.18-.6,2.58,2.58,0,0,0-1.25.35l-.25-.54A3.54,3.54,0,0,1,29.73,50a2.1,2.1,0,0,1,2,1.11A4.62,4.62,0,0,1,32.18,53.43Zm-2.56-4H29v-.7h.67Z"/><path class="cls-4" d="M34,53.43h-.63l0-5.88H34Z"/><path class="cls-4" d="M38.17,52.85c0,.1,0,.3,0,.58h-.81a1,1,0,0,1-.85-.56,2.77,2.77,0,0,1-.72,1.76,2.41,2.41,0,0,1-1.64.77c-.06-.11-.16-.3-.27-.56a1.88,1.88,0,0,0,1.46-.63,2.21,2.21,0,0,0,.55-1.53V50.12h.63v1.81a1,1,0,0,0,.28.68.74.74,0,0,0,.5.24Z"/><path class="cls-4" d="M40.21,52.25A1.11,1.11,0,0,1,39,53.43H38v-.58h1a.57.57,0,0,0,.62-.62c0,.08,0-.62,0-2.12h.63C40.2,51.55,40.21,52.26,40.21,52.25ZM39.1,49.38h-.67v-.7h.67Zm1.12,0h-.67v-.7h.67Z"/><path class="cls-4" d="M46.25,53.43H43.31l.32-.57h.85a1.4,1.4,0,0,1,0-1.79,1.11,1.11,0,0,1,.86-.38,1,1,0,0,1,.85.44l-.26.4a.71.71,0,0,0-.56-.31q-.57,0-.57.85c0,.58.24.8.78.8h.66Z"/><path class="cls-4" d="M49.2,53.43h-.78a.88.88,0,0,1-.65-.26,1.08,1.08,0,0,1-.31-.81l0-4.81h.63l0,4.73c0,.34.15.53.43.57h.68Z"/><path class="cls-4" d="M54.8,53.43H53a1.19,1.19,0,0,1-.93-.44,3.29,3.29,0,0,1-1.56.44H49v-.58h1.48a2.83,2.83,0,0,0,1.23-.3,6.54,6.54,0,0,0-.93-1,2.25,2.25,0,0,0-1.24-.5v-.75a3.17,3.17,0,0,1,2.3-.75,3.79,3.79,0,0,1,1.81.45,2.45,2.45,0,0,1,.75.55,5.91,5.91,0,0,1-1.89,2.14.68.68,0,0,0,.37.13H54.8Zm-1.13-2.72-.47-.3a3.08,3.08,0,0,0-1.31-.27,3.22,3.22,0,0,0-1.82.45,4.09,4.09,0,0,1,2.09,1.69A5.11,5.11,0,0,0,53.67,50.71ZM52.36,49h-.67v-.71h.67Z"/><path class="cls-4" d="M56.43,52.25a1.11,1.11,0,0,1-1.24,1.18h-.59v-.58h.58a.57.57,0,0,0,.62-.62c0-.57,0-1.36,0-2.34,0-1.14,0-1.92,0-2.35h.63c0,.42,0,1.2,0,2.36C56.43,50.89,56.43,51.67,56.43,52.25Z"/><path class="cls-4" d="M58.39,55.32H56.93l.16-.28h.41a.69.69,0,0,1-.15-.44.61.61,0,0,1,.6-.64.51.51,0,0,1,.42.21l-.14.2a.36.36,0,0,0-.27-.15c-.19,0-.28.14-.28.42s.13.4.38.4h.34Zm-.1-1.89h-.63l0-5.88h.63Z"/><path class="cls-4" d="M27,63.63a.81.81,0,0,1-.84.71H23.42a1.78,1.78,0,0,1-1.59-.85,3.57,3.57,0,0,1-.48-1.83l0-.65h.54l0,.65a2.33,2.33,0,0,0,.64,1.74,1.31,1.31,0,0,0,.9.35H26c.25,0,.36-.17.36-.51s0-.95,0-2.23H27C27,61.49,27,62.36,27,63.63ZM24,61h-.67v-.7H24Zm1.11,0H24.4v-.7h.67Z"/><path class="cls-4" d="M28.89,64.34h-.63l0-5.88h.63Z"/><path class="cls-4" d="M31.37,63.5a2.92,2.92,0,0,1-.66,2,2.36,2.36,0,0,1-1.71.86c-.06-.11-.16-.3-.27-.56a1.85,1.85,0,0,0,1.44-.62,2.21,2.21,0,0,0,.56-1.54V61h.63Z"/><path class="cls-4" d="M34.31,64.34h-.78a.88.88,0,0,1-.65-.26,1.08,1.08,0,0,1-.31-.81l0-4.81h.63l0,4.73c0,.34.15.53.43.57h.68Z"/><path class="cls-4" d="M38.05,64.34h-.81a.87.87,0,0,1-.69-.35,1.16,1.16,0,0,1-.23-.39,1.26,1.26,0,0,1-1.14.74H34v-.58h1a.87.87,0,0,0,.47-.14.57.57,0,0,0,.28-.5c0,.15,0-.55,0-2.1h.63c0,.58,0,1.16,0,1.73a1.11,1.11,0,0,0,.28.76.7.7,0,0,0,.5.25h.87v.58Zm-2.13,1.35h-.68V65h.68Zm1.11,0h-.67V65H37Z"/><path class="cls-4" d="M46.37,63.76v.58h-.91a1,1,0,0,1-.9-.68,1.16,1.16,0,0,1-1.16.81,1.46,1.46,0,0,1-.73-.15,1.35,1.35,0,0,1-.5-.58,1.06,1.06,0,0,1-1.14.72,1.58,1.58,0,0,1-.72-.14,1.07,1.07,0,0,1-.38-.37v.4H37.89v-.58h1.44V62.34c0-.28,0-.64,0-1.05h.63v1.59c0,.67.37,1,1.07,1a.57.57,0,0,0,.62-.62c0-.19,0-.85,0-2h.63c0,.35,0,.87,0,1.59a1,1,0,0,0,.33.76,1.16,1.16,0,0,0,.78.25.6.6,0,0,0,.65-.62c0-.17,0-.92,0-2.25h.63c0,.39,0,1,0,1.81a1,1,0,0,0,.29.7.7.7,0,0,0,.5.23Z"/><path class="cls-4" d="M48,63.16a1.11,1.11,0,0,1-1.24,1.18h-.59v-.58h.58a.57.57,0,0,0,.62-.62c0-.57,0-1.36,0-2.34,0-1.14,0-1.92,0-2.35H48c0,.42,0,1.2,0,2.36C48,61.8,48,62.58,48,63.16Z"/><path class="cls-4" d="M49.9,64.34h-.63l0-5.88h.63Z"/><path class="cls-5" d="M45.35,41.51h-20a6.21,6.21,0,0,0-12.34,0h-.53a2.61,2.61,0,0,1-2.65-2.57V35.77a2.63,2.63,0,0,1,1.94-2.52l7.41-2-2.1-1.8L11.2,31a4.93,4.93,0,0,0-3.62,4.73v3.18a4.89,4.89,0,0,0,4.93,4.85h.69a6.21,6.21,0,0,0,12,0H47.91ZM19.21,46.19a3.93,3.93,0,1,1,3.93-3.93A3.93,3.93,0,0,1,19.21,46.19Z"/><path class="cls-6" d="M66.11,31.33l-4-1.8L58.65,24a5.53,5.53,0,0,0-4.72-2.62H44.74L44.1,23.4h9.83a3.48,3.48,0,0,1,3,1.65l3.65,5.84a1,1,0,0,0,.45.4l4.26,1.93a2.4,2.4,0,0,1,1.4,2.16v3.26A2.36,2.36,0,0,1,64.26,41h-1A5.62,5.62,0,0,0,57,36a5.73,5.73,0,0,0-3.25,1.52L55.24,39a3.48,3.48,0,0,1,2.39-.94,3.56,3.56,0,0,1,3.56,3.55A3.48,3.48,0,0,1,60.25,44L61.7,45.5A5.6,5.6,0,0,0,63.08,43h1.18a4.43,4.43,0,0,0,4.47-4.4V35.37A4.45,4.45,0,0,0,66.11,31.33Z"/><path class="cls-7" d="M54.73,2a8.42,8.42,0,1,0,8.42,8.42A8.43,8.43,0,0,0,54.73,2Zm0,15.53a7.11,7.11,0,1,1,7.11-7.11A7.12,7.12,0,0,1,54.73,17.55Z"/><path class="cls-8" d="M57.38,12.38l-1.73-1.95L57.6,8.7a.65.65,0,1,0-.87-1L54.78,9.46,53,7.51a.65.65,0,0,0-1,.87l1.73,1.95-1.95,1.73a.65.65,0,0,0,.87,1l1.95-1.73,1.73,1.95a.65.65,0,0,0,1-.87Z"/></svg>