<svg id="Layer_1" data-name="Layer 1" xmlns="http://www.w3.org/2000/svg" xmlns:xlink="http://www.w3.org/1999/xlink" viewBox="0 0 69.41 68.54"><defs><style>.cls-1{fill:url(#linear-gradient);}.cls-2{fill:url(#linear-gradient-2);}.cls-3,.cls-4{fill:#369;}.cls-4{stroke:#369;stroke-miterlimit:10;stroke-width:0.25px;}.cls-5{fill:url(#linear-gradient-3);}.cls-6{fill:none;stroke-linecap:round;stroke-linejoin:round;stroke-width:2px;stroke:url(#linear-gradient-4);}.cls-7{fill:url(#linear-gradient-5);}.cls-8{fill:url(#linear-gradient-6);}</style><linearGradient id="linear-gradient" x1="15.41" y1="24.9" x2="55.63" y2="24.9" gradientUnits="userSpaceOnUse"><stop offset="0" stop-color="#ff1597"/><stop offset="0.04" stop-color="#e22299"/><stop offset="0.21" stop-color="#695ba0"/><stop offset="0.28" stop-color="#3971a3"/><stop offset="0.44" stop-color="#3b75a7"/><stop offset="0.59" stop-color="#4180b1"/><stop offset="0.73" stop-color="#4a92c4"/><stop offset="0.86" stop-color="#58acdd"/><stop offset="0.99" stop-color="#69cefe"/><stop offset="1" stop-color="#6acfff"/></linearGradient><linearGradient id="linear-gradient-2" x1="17.93" y1="18.6" x2="40.52" y2="18.6" xlink:href="#linear-gradient"/><linearGradient id="linear-gradient-3" x1="43.61" y1="21.62" x2="60.47" y2="21.62" xlink:href="#linear-gradient"/><linearGradient id="linear-gradient-4" x1="15.56" y1="45.07" x2="21.67" y2="38.96" xlink:href="#linear-gradient"/><linearGradient id="linear-gradient-5" x1="37.2" y1="46.83" x2="33.98" y2="32.89" gradientUnits="userSpaceOnUse"><stop offset="0" stop-color="#ff1597"/><stop offset="0.1" stop-color="#e22299"/><stop offset="0.55" stop-color="#695ba0"/><stop offset="0.75" stop-color="#3971a3"/><stop offset="0.81" stop-color="#3b75a7"/><stop offset="0.86" stop-color="#4180b1"/><stop offset="0.9" stop-color="#4a92c4"/><stop offset="0.95" stop-color="#58acdd"/><stop offset="1" stop-color="#69cefe"/><stop offset="1" stop-color="#6acfff"/></linearGradient><linearGradient id="linear-gradient-6" x1="206.17" y1="-26.23" x2="204.7" y2="-32.57" gradientTransform="translate(-123.01 -94.03) rotate(48.3)" xlink:href="#linear-gradient-5"/></defs><title>3-3</title><path class="cls-1" d="M55.46,41.33,46,31.88a.59.59,0,0,0-.83,0l-.25.25L40,27.22a13.83,13.83,0,1,0-2.17,2.17l4.92,4.92-.25.25a.59.59,0,0,0,0,.83L52,44.83a.6.6,0,0,0,.83,0l2.67-2.67A.59.59,0,0,0,55.46,41.33ZM29.23,31.23A12.63,12.63,0,1,1,41.86,18.6,12.65,12.65,0,0,1,29.23,31.23Zm9.51-2.62.5-.5L44.09,33l-.5.5Zm13.64,15L43.76,35l1.84-1.84,8.61,8.61Z"/><path class="cls-2" d="M37.22,10.63a.59.59,0,0,0-.84.83A10.09,10.09,0,1,1,34,9.69a.59.59,0,0,0,.56-1,11.31,11.31,0,1,0,2.65,2Z"/><path class="cls-3" d="M25.13,11.71h-.31a.59.59,0,0,0-.59.59V24.58a1.53,1.53,0,0,0,3.07,0V19.82H28a.59.59,0,0,0,.59-.59V15.14A3.43,3.43,0,0,0,25.13,11.71Zm2.24,6.93h-.67a.59.59,0,0,0-.59.59v5.35a.35.35,0,1,1-.71,0V12.91a2.25,2.25,0,0,1,2,2.23v3.5Z"/><path class="cls-3" d="M34.26,11.71a.59.59,0,0,0-.59.59v2.56H33V12.3a.59.59,0,1,0-1.18,0v2.56h-.71V12.3a.59.59,0,1,0-1.18,0v3.78a1.85,1.85,0,0,0,.94,1.61v6.89a1.53,1.53,0,0,0,3.07,0V17.69a1.85,1.85,0,0,0,.94-1.61V12.3A.59.59,0,0,0,34.26,11.71Zm-.59,4.37a.67.67,0,0,1-.5.65.59.59,0,0,0-.44.57v7.28a.35.35,0,1,1-.71,0V17.3a.59.59,0,0,0-.44-.57.67.67,0,0,1-.5-.65v0h2.6v0Z"/><path class="cls-4" d="M32.32,54.43H29.37l.32-.57h.85a1.41,1.41,0,0,1,0-1.79,1.11,1.11,0,0,1,.86-.38,1,1,0,0,1,.85.44l-.26.4a.71.71,0,0,0-.56-.31q-.57,0-.57.85c0,.58.24.8.78.8h.66Z"/><path class="cls-4" d="M35.26,54.43h-.78a.88.88,0,0,1-.65-.26,1.08,1.08,0,0,1-.31-.81l0-4.81h.63l0,4.73c0,.34.15.53.43.57h.68Z"/><path class="cls-4" d="M40.87,54.43h-1.8a1.19,1.19,0,0,1-.93-.44,3.29,3.29,0,0,1-1.56.44h-1.5v-.58h1.48a2.83,2.83,0,0,0,1.23-.3,6.54,6.54,0,0,0-.93-1,2.25,2.25,0,0,0-1.24-.5v-.75a3.17,3.17,0,0,1,2.3-.75,3.79,3.79,0,0,1,1.81.45,2.45,2.45,0,0,1,.75.55,5.91,5.91,0,0,1-1.89,2.14.68.68,0,0,0,.37.13h1.91Zm-1.13-2.72-.47-.3A3.08,3.08,0,0,0,38,51.14a3.22,3.22,0,0,0-1.82.45,4.09,4.09,0,0,1,2.09,1.69A5.11,5.11,0,0,0,39.74,51.71ZM38.43,50h-.67v-.71h.67Z"/><path class="cls-4" d="M42.5,53.25a1.11,1.11,0,0,1-1.24,1.18h-.59v-.58h.58a.57.57,0,0,0,.62-.62c0-.57,0-1.36,0-2.34,0-1.14,0-1.92,0-2.35h.63c0,.42,0,1.2,0,2.36C42.49,51.89,42.5,52.67,42.5,53.25Z"/><path class="cls-4" d="M44.45,56.32H43l.16-.28h.41a.69.69,0,0,1-.15-.44A.61.61,0,0,1,44,55a.51.51,0,0,1,.42.21l-.14.2a.36.36,0,0,0-.27-.15c-.19,0-.28.14-.28.42s.13.4.38.4h.34Zm-.1-1.89h-.63l0-5.88h.63Z"/><path class="cls-4" d="M16,64.76a2.54,2.54,0,0,1-.71,1.81,2.23,2.23,0,0,1-1.69.75,2.28,2.28,0,0,1-1.71-.75,2.54,2.54,0,0,1-.71-1.82c0-.47,0-1.09,0-1.86h.62c0,1.16,0,1.79,0,1.87a1.9,1.9,0,0,0,.53,1.36,1.71,1.71,0,0,0,1.28.56,1.67,1.67,0,0,0,1.27-.57,1.9,1.9,0,0,0,.52-1.37l-.05-5.38H16Q16,63.24,16,64.76Z"/><path class="cls-4" d="M19,65.34h-.78a.88.88,0,0,1-.65-.26,1.08,1.08,0,0,1-.31-.81l0-4.81h.63l0,4.73c0,.34.15.53.43.57H19Z"/><path class="cls-4" d="M23.83,65.34h-1.1a1.34,1.34,0,0,1-1.35.83A1.42,1.42,0,0,1,20,65.34H18.84v-.58h1c0-.1,0-.2,0-.3,0-1.06.56-1.7,1.51-1.7a1.43,1.43,0,0,1,1.16.53,1.78,1.78,0,0,1,.41,1.17c0,.1,0,.2,0,.3h.93Zm-1.57-.88a1.38,1.38,0,0,0-.28-.91.81.81,0,0,0-.63-.28.76.76,0,0,0-.62.28,1.43,1.43,0,0,0-.25.91,1.32,1.32,0,0,0,.29.9.82.82,0,0,0,.63.29.76.76,0,0,0,.61-.29A1.41,1.41,0,0,0,22.25,64.46Z"/><path class="cls-4" d="M29.38,65.34h-1.8a1.19,1.19,0,0,1-.93-.44,3.29,3.29,0,0,1-1.56.44h-1.5v-.58h1.49a2.83,2.83,0,0,0,1.22-.3,6.54,6.54,0,0,0-.93-1,2.25,2.25,0,0,0-1.24-.5v-.75a3.17,3.17,0,0,1,2.3-.75,3.8,3.8,0,0,1,1.81.46,2.45,2.45,0,0,1,.75.55,5.91,5.91,0,0,1-1.89,2.14.68.68,0,0,0,.37.13h1.91Zm-1.13-2.72-.47-.3A3.08,3.08,0,0,0,26.47,62a3.21,3.21,0,0,0-1.82.46,4.08,4.08,0,0,1,2.09,1.69A5.11,5.11,0,0,0,28.25,62.62Z"/><path class="cls-4" d="M31,64.16a1.11,1.11,0,0,1-1.24,1.18h-.59v-.58h.58a.57.57,0,0,0,.62-.62c0-.57,0-1.36,0-2.34,0-1.14,0-1.92,0-2.35H31c0,.42,0,1.2,0,2.36C31,62.8,31,63.58,31,64.16Z"/><path class="cls-4" d="M32.87,65.34h-.63l0-5.88h.63Z"/><path class="cls-4" d="M41.17,64.63a.81.81,0,0,1-.84.71H37.55A1.78,1.78,0,0,1,36,64.5a3.57,3.57,0,0,1-.48-1.83l0-.65H36l0,.65a2.33,2.33,0,0,0,.64,1.74,1.31,1.31,0,0,0,.9.35h2.63c.25,0,.36-.17.36-.51s0-.95,0-2.23h.65C41.16,62.49,41.17,63.36,41.17,64.63ZM38.1,62h-.67v-.7h.67Zm1.11,0h-.67v-.7h.67Z"/><path class="cls-4" d="M44.12,65.34h-.78a.88.88,0,0,1-.65-.26,1.08,1.08,0,0,1-.31-.81l0-4.81H43l0,4.73c0,.34.15.53.43.57h.68Z"/><path class="cls-4" d="M47.56,64.54a.74.74,0,0,1-.82.8H44v-.58h2.62c.24,0,.36-.14.37-.42v-.39H46a1.26,1.26,0,0,1-1-.48,1.7,1.7,0,0,1-.37-1.16A1.79,1.79,0,0,1,45.17,61a1.42,1.42,0,0,1,1-.37A1.28,1.28,0,0,1,47.56,62ZM45.91,60h-.67v-.71h.67Zm1,3.39V61.85c0-.54-.25-.81-.71-.81a.8.8,0,0,0-.63.3,1.56,1.56,0,0,0-.3.93,1,1,0,0,0,.87,1.1ZM47,60h-.67v-.71H47Z"/><path class="cls-4" d="M50.51,65.34h-.78a.88.88,0,0,1-.65-.26,1.08,1.08,0,0,1-.31-.81l0-4.81h.63l0,4.73c0,.34.15.53.43.57h.68Z"/><path class="cls-4" d="M58,65.34H50.35v-.58h1l0-4.81H52L51.89,64a3.4,3.4,0,0,1,1.48-1.68A2.22,2.22,0,0,1,54.65,62c1.24.1,1.89,1,2,2.75H58Zm-2-.59a3.61,3.61,0,0,0-.16-1.06c-.21-.72-.6-1.09-1.16-1.12-1.12-.06-2,.66-2.66,2.18Z"/><path class="cls-4" d="M60,64.16a1.11,1.11,0,0,1-1.24,1.18h-1v-.58h1a.57.57,0,0,0,.62-.62c0,.08,0-.62,0-2.12H60C60,63.46,60,64.17,60,64.16Zm-.54,2.52H58.8V66h.67Z"/><path class="cls-5" d="M44,20.07l.43,0H46.8v.29a.87.87,0,0,0,.19.53l1.85,2.38v1h1.74v-1l1.85-2.38a.87.87,0,0,0,.18-.53v-.29h2.61l.81.08.61.25.33.26a3.77,3.77,0,0,1,1.74,3.18l.14,15.94,1.6,2c.07-.13,0-11.29,0-11.44v-6.5a5.52,5.52,0,0,0-5.52-5.52H52.6v-.74a6.11,6.11,0,0,0,3.19-5.36V7.57a6.1,6.1,0,0,0-12.19,0v4.64a6.1,6.1,0,0,0,3.19,5.36v.74l-2.76,0M45.51,7.57a4.35,4.35,0,1,1,8.71,0v.24A3.31,3.31,0,0,1,51.8,6a.87.87,0,0,0-1.56,0,3.31,3.31,0,0,1-3,1.84H45.51ZM51,20l-1.16,1.49L48.71,20V18.2a6.23,6.23,0,0,0,2.32,0Zm-1.16-3.48a4.36,4.36,0,0,1-4.35-4.35V9.61h1.76A5,5,0,0,0,51,7.94a5,5,0,0,0,3.19,1.63v2.64A4.36,4.36,0,0,1,49.87,16.57Z"/><path class="cls-6" d="M15.41,34.36v8a2.7,2.7,0,0,0,2.7,2.7h8.28"/><path class="cls-7" d="M35.59,32.7a7.15,7.15,0,1,0,7.15,7.15A7.16,7.16,0,0,0,35.59,32.7Zm0,13.2a6,6,0,1,1,6-6A6.05,6.05,0,0,1,35.59,45.9Z"/><path class="cls-8" d="M37.85,41.51l-1.47-1.65L38,38.38a.55.55,0,0,0-.74-.83L35.64,39l-1.47-1.65a.55.55,0,0,0-.83.74l1.47,1.65-1.65,1.47a.55.55,0,0,0,.74.83l1.65-1.47L37,42.24a.55.55,0,0,0,.83-.74Z"/></svg>