<svg id="Layer_1" data-name="Layer 1" xmlns="http://www.w3.org/2000/svg" xmlns:xlink="http://www.w3.org/1999/xlink" viewBox="0 0 69.41 68.54"><defs><style>.cls-1{fill:url(#linear-gradient);}.cls-2{fill:url(#linear-gradient-2);}.cls-3{fill:url(#linear-gradient-3);}.cls-4{fill:url(#linear-gradient-4);}.cls-5{fill:#369;stroke:#369;}.cls-5,.cls-6,.cls-7{stroke-miterlimit:10;stroke-width:0.25px;}.cls-6{fill:url(#linear-gradient-5);stroke:url(#linear-gradient-6);}.cls-7{fill:url(#linear-gradient-7);stroke:url(#linear-gradient-8);}</style><linearGradient id="linear-gradient" x1="396.38" y1="730.02" x2="414.79" y2="767.75" gradientTransform="matrix(1, 0, 0, -1, -375.49, 771.6)" gradientUnits="userSpaceOnUse"><stop offset="0" stop-color="#ff1597"/><stop offset="0.1" stop-color="#e22299"/><stop offset="0.55" stop-color="#695ba0"/><stop offset="0.75" stop-color="#3971a3"/><stop offset="0.81" stop-color="#3b75a7"/><stop offset="0.86" stop-color="#4180b1"/><stop offset="0.9" stop-color="#4a92c4"/><stop offset="0.95" stop-color="#58acdd"/><stop offset="1" stop-color="#69cefe"/><stop offset="1" stop-color="#6acfff"/></linearGradient><linearGradient id="linear-gradient-2" x1="26.59" y1="31.44" x2="32.31" y2="31.44" gradientTransform="matrix(1, 0, 0, 1, 0, 0)" xlink:href="#linear-gradient"/><linearGradient id="linear-gradient-3" x1="26.59" y1="15.44" x2="44.87" y2="15.44" gradientTransform="matrix(1, 0, 0, 1, 0, 0)" xlink:href="#linear-gradient"/><linearGradient id="linear-gradient-4" x1="26.59" y1="23.44" x2="35.74" y2="23.44" gradientTransform="matrix(1, 0, 0, 1, 0, 0)" xlink:href="#linear-gradient"/><linearGradient id="linear-gradient-5" x1="40.58" y1="39.45" x2="51.71" y2="28.32" gradientTransform="matrix(1, 0, 0, 1, 0, 0)" xlink:href="#linear-gradient"/><linearGradient id="linear-gradient-6" x1="35.61" y1="36.41" x2="55.76" y2="36.41" gradientUnits="userSpaceOnUse"><stop offset="0" stop-color="#ff1597"/><stop offset="0.04" stop-color="#e22299"/><stop offset="0.21" stop-color="#695ba0"/><stop offset="0.28" stop-color="#3971a3"/><stop offset="0.44" stop-color="#3b75a7"/><stop offset="0.59" stop-color="#4180b1"/><stop offset="0.73" stop-color="#4a92c4"/><stop offset="0.86" stop-color="#58acdd"/><stop offset="0.99" stop-color="#69cefe"/><stop offset="1" stop-color="#6acfff"/></linearGradient><linearGradient id="linear-gradient-7" x1="40.91" y1="33.87" x2="51.86" y2="22.92" gradientTransform="matrix(1, 0, 0, 1, 0, 0)" xlink:href="#linear-gradient"/><linearGradient id="linear-gradient-8" x1="36.76" y1="26.07" x2="56.47" y2="26.07" xlink:href="#linear-gradient-6"/></defs><title>4-2</title><path class="cls-1" d="M49.44,8.59A1.14,1.14,0,0,0,48.3,7.44H22a1.14,1.14,0,0,0-1.14,1.15v29.7A1.14,1.14,0,0,0,22,39.43H33.45v2.29H20.88a2.29,2.29,0,0,1-2.29-2.29v-32a2.28,2.28,0,0,1,2.29-2.28H49.45a2.28,2.28,0,0,1,2.28,2.28V17.73H49.45V8.59Z"/><path class="cls-2" d="M27.16,30.29h4.57a.58.58,0,0,1,.57.58V32a.57.57,0,0,1-.57.57H27.16a.57.57,0,0,1-.57-.57V30.87a.57.57,0,0,1,.57-.58"/><path class="cls-3" d="M26.59,16V14.87a.57.57,0,0,1,.57-.57H44.3a.58.58,0,0,1,.57.57V16a.58.58,0,0,1-.57.57H27.16a.57.57,0,0,1-.57-.57"/><path class="cls-4" d="M26.59,24V22.87a.57.57,0,0,1,.57-.57h8a.58.58,0,0,1,.57.57V24a.57.57,0,0,1-.57.57h-8a.57.57,0,0,1-.57-.57"/><path class="cls-5" d="M19.43,52.43H14.62l.19-.58H17.3a3,3,0,0,0-.45-1.56c-.25-.41-.53-.61-.83-.61v-.56a1.47,1.47,0,0,1,1.19.67,3.93,3.93,0,0,1,.67,2.06h1.55Z"/><path class="cls-5" d="M23.94,51.85v.58H23a3.36,3.36,0,0,1-1.37-.31,3.29,3.29,0,0,1-1.37.31h-1v-.58h1.06a4.6,4.6,0,0,0,.77,0,2.16,2.16,0,0,1-.76-.88,2,2,0,0,1-.22-.88,1.54,1.54,0,0,1,.46-1.18,1.68,1.68,0,0,1,2.17,0A1.52,1.52,0,0,1,23.18,50a2,2,0,0,1-.22.88,2.16,2.16,0,0,1-.76.88,4.6,4.6,0,0,0,.77,0Zm-2.56-4.08h-.67v-.7h.67ZM22.52,50a1.26,1.26,0,0,0-.23-.77.82.82,0,0,0-.68-.35.8.8,0,0,0-.67.35,1.26,1.26,0,0,0-.23.77,1.59,1.59,0,0,0,.39,1.06c.21.26.38.39.52.39s.32-.13.53-.39A1.66,1.66,0,0,0,22.52,50Zm0-2.27h-.67v-.7h.67Z"/><path class="cls-5" d="M29.53,52.43h-1.8A1.19,1.19,0,0,1,26.8,52a3.29,3.29,0,0,1-1.56.44h-1.5v-.58h1.49a2.83,2.83,0,0,0,1.22-.3,6.54,6.54,0,0,0-.93-1,2.25,2.25,0,0,0-1.24-.5v-.75a3.17,3.17,0,0,1,2.3-.75A3.79,3.79,0,0,1,28.4,49a2.45,2.45,0,0,1,.75.55,5.91,5.91,0,0,1-1.89,2.14.68.68,0,0,0,.37.13h1.91Zm-1.13-2.72-.47-.3a3.08,3.08,0,0,0-1.31-.27,3.22,3.22,0,0,0-1.82.45,4.09,4.09,0,0,1,2.09,1.69A5.09,5.09,0,0,0,28.41,49.71Z"/><path class="cls-5" d="M31.17,51.25a1.11,1.11,0,0,1-1.24,1.18h-.59v-.58h.58a.57.57,0,0,0,.62-.62c0-.57,0-1.36,0-2.34,0-1.14,0-1.92,0-2.35h.63c0,.42,0,1.2,0,2.36C31.16,49.89,31.17,50.67,31.17,51.25Z"/><path class="cls-5" d="M33,52.43h-.63l0-5.88H33Z"/><path class="cls-5" d="M40.92,52.43H36.11l.19-.58h2.48a3,3,0,0,0-.45-1.56c-.25-.41-.53-.61-.83-.61v-.56a1.47,1.47,0,0,1,1.19.67,3.93,3.93,0,0,1,.67,2.06h1.55Z"/><path class="cls-5" d="M43,51.25a1.11,1.11,0,0,1-1.24,1.18H40.55v-.58h1.18a.57.57,0,0,0,.62-.62c0,.08,0-.62,0-2.12h.63C43,50.55,43,51.26,43,51.25Zm-1.46,2.53h-.67v-.7h.67Zm1.12,0H42v-.7h.67Z"/><path class="cls-5" d="M48.88,52.43H44.07l.19-.58h2.48a3,3,0,0,0-.45-1.56c-.25-.41-.53-.61-.83-.61v-.56a1.47,1.47,0,0,1,1.19.67,3.93,3.93,0,0,1,.67,2.06h1.55Z"/><path class="cls-5" d="M54.19,52.43H48.67v-.58h3.89A2.64,2.64,0,0,0,52,50.19a1.5,1.5,0,0,0-1.18-.6,2.58,2.58,0,0,0-1.25.35l-.26-.54A3.54,3.54,0,0,1,50.78,49a2.1,2.1,0,0,1,1.82.88,4,4,0,0,1,.62,1.95h1Zm-3.12,1.34h-.67v-.7h.67Z"/><path class="cls-5" d="M56.24,51.25A1.11,1.11,0,0,1,55,52.43H54v-.58h1a.57.57,0,0,0,.62-.62c0,.08,0-.62,0-2.12h.63C56.23,50.55,56.24,51.26,56.24,51.25Zm-1.11-2.87h-.67v-.7h.67Zm1.12,0h-.67v-.7h.67Z"/><path class="cls-5" d="M25.11,62.76v.58h-.74a1,1,0,0,1-.7-.3,1.17,1.17,0,0,1-.36-.77,3.59,3.59,0,0,0-.24-1.16.94.94,0,0,0-.91-.58,1,1,0,0,0-.76.32,1.13,1.13,0,0,0-.3.79h1.63l0,1.12A2.54,2.54,0,0,1,22,64.57a2.29,2.29,0,0,1-3.4,0,2.54,2.54,0,0,1-.71-1.82c0-.23,0-.59,0-1.11h.63c0,.19,0,.56,0,1.12a1.9,1.9,0,0,0,.53,1.36,1.7,1.7,0,0,0,1.27.56,1.67,1.67,0,0,0,1.27-.57,1.94,1.94,0,0,0,.53-1.37l0-.52H20.44c0-1.53.58-2.29,1.74-2.29a1.47,1.47,0,0,1,1.44.91,4.35,4.35,0,0,1,.3,1.35.63.63,0,0,0,.57.57Zm-4.93,3.95h-.67V66h.67Zm1.12,0h-.67V66h.67Z"/><path class="cls-5" d="M27.17,62.16a1.11,1.11,0,0,1-1.24,1.18H24.74v-.58h1.18a.57.57,0,0,0,.62-.62c0,.08,0-.62,0-2.12h.63C27.16,61.46,27.17,62.17,27.17,62.16Zm0-2.86h-.67v-.7h.67Z"/><path class="cls-5" d="M31.3,62.5a3,3,0,0,1-.65,2,2.4,2.4,0,0,1-1.71.87l-.27-.57a1.87,1.87,0,0,0,1.19-.39,2.09,2.09,0,0,0,.69-1h-.82a1.25,1.25,0,0,1-1-.47,1.93,1.93,0,0,1,.19-2.5,1.44,1.44,0,0,1,1-.36,1.26,1.26,0,0,1,1.42,1.44Zm-.63.26,0-1.52c0-.54-.25-.81-.71-.81a.76.76,0,0,0-.62.31,1.4,1.4,0,0,0-.3.93c0,.61.34,1.09.87,1.09Z"/><path class="cls-5" d="M35.45,62.76c0,.1,0,.3,0,.58h-.81a1,1,0,0,1-.85-.56,2.77,2.77,0,0,1-.72,1.76,2.41,2.41,0,0,1-1.64.77c-.06-.11-.16-.3-.27-.56a1.88,1.88,0,0,0,1.46-.63,2.21,2.21,0,0,0,.55-1.53V60h.63v1.81a1,1,0,0,0,.28.68.74.74,0,0,0,.5.24Z"/><path class="cls-5" d="M39.11,63.34H38.3a.87.87,0,0,1-.69-.35,1.16,1.16,0,0,1-.23-.39,1.26,1.26,0,0,1-1.14.74h-1v-.58h.84a.87.87,0,0,0,.47-.14.56.56,0,0,0,.27-.49c0,.15,0-.55,0-2.1h.63c0,.58,0,1.16,0,1.73a1.11,1.11,0,0,0,.28.76.7.7,0,0,0,.5.25h.87v.58Zm-2.22-4.06h-.67v-.7h.67Zm1.12,0h-.68v-.7H38Z"/><path class="cls-5" d="M45.2,62.76v.58H38.81v-.58h4.13a2.38,2.38,0,0,0-.61-1.58A1.78,1.78,0,0,0,41,60.57a2.47,2.47,0,0,0-1.25.37l-.29-.53,0,0,2.17-2.26.42.41-1.58,1.54a3.53,3.53,0,0,1,.6-.05,2.31,2.31,0,0,1,2.39,2.08,4.94,4.94,0,0,1,.1.66Z"/><path class="cls-5" d="M46.86,62.16a1.11,1.11,0,0,1-1.24,1.18H45v-.58h.58a.57.57,0,0,0,.62-.62c0-.57,0-1.36,0-2.34,0-1.14,0-1.92,0-2.35h.63c0,.42,0,1.2,0,2.36C46.85,60.8,46.86,61.58,46.86,62.16Z"/><path class="cls-5" d="M50.6,61.56a1.54,1.54,0,0,1-.66,1.29,2.75,2.75,0,0,1-1.69.49h-.44v-.59h.4a2.37,2.37,0,0,0,1.11-.25A1.13,1.13,0,0,0,50,61.43c0-.13,0-1.46,0-4h.63Zm-1.7.6a1,1,0,0,1-.64.13c0-.8,0-2.42,0-4.85h.63Z"/><path class="cls-5" d="M52.46,63.34h-.63l0-5.88h.63Z"/><path class="cls-6" d="M55.1,31.9a.6.6,0,0,0-.67.53A8.3,8.3,0,0,1,38.2,33.65l.72.4A.6.6,0,0,0,39.5,33l-1.85-1a.6.6,0,0,0-.82.24l-1,1.85a.6.6,0,0,0,1.06.58l.24-.43a9.51,9.51,0,0,0,18.53-1.64A.6.6,0,0,0,55.1,31.9Z"/><path class="cls-7" d="M56,27.1a.6.6,0,0,0-.79.32l-.19.44a9.51,9.51,0,0,0-18.1,1.61.6.6,0,0,0,1.18.25A8.3,8.3,0,0,1,54,28.53l-.76-.33a.6.6,0,1,0-.48,1.11l1.94.84a.59.59,0,0,0,.79-.32l.84-1.94A.6.6,0,0,0,56,27.1Z"/></svg>