<svg id="Layer_1" data-name="Layer 1" xmlns="http://www.w3.org/2000/svg" xmlns:xlink="http://www.w3.org/1999/xlink" viewBox="0 0 69.41 68.54"><defs><style>.cls-1{fill:#369;stroke:#369;stroke-miterlimit:10;stroke-width:0.25px;}.cls-2{fill:url(#linear-gradient);}.cls-3{fill:url(#linear-gradient-2);}.cls-4{fill:url(#linear-gradient-3);}.cls-5{fill:url(#linear-gradient-4);}.cls-6{fill:url(#linear-gradient-5);}.cls-7{fill:url(#linear-gradient-6);}</style><linearGradient id="linear-gradient" x1="186.33" y1="-528.24" x2="199.27" y2="-515.29" gradientTransform="matrix(1, 0, 0, -1, -148.99, -489.24)" gradientUnits="userSpaceOnUse"><stop offset="0" stop-color="#ff1597"/><stop offset="0.1" stop-color="#e22299"/><stop offset="0.55" stop-color="#695ba0"/><stop offset="0.75" stop-color="#3971a3"/><stop offset="0.81" stop-color="#3b75a7"/><stop offset="0.86" stop-color="#4180b1"/><stop offset="0.9" stop-color="#4a92c4"/><stop offset="0.95" stop-color="#58acdd"/><stop offset="1" stop-color="#69cefe"/><stop offset="1" stop-color="#6acfff"/></linearGradient><linearGradient id="linear-gradient-2" x1="188.91" y1="-524.18" x2="195.81" y2="-517.28" xlink:href="#linear-gradient"/><linearGradient id="linear-gradient-3" x1="169.65" y1="-530.78" x2="187" y2="-495.2" xlink:href="#linear-gradient"/><linearGradient id="linear-gradient-4" x1="26.04" y1="31.98" x2="31.43" y2="31.98" gradientTransform="matrix(1, 0, 0, 1, 0, 0)" xlink:href="#linear-gradient"/><linearGradient id="linear-gradient-5" x1="26.04" y1="16.89" x2="43.28" y2="16.89" gradientTransform="matrix(1, 0, 0, 1, 0, 0)" xlink:href="#linear-gradient"/><linearGradient id="linear-gradient-6" x1="26.04" y1="24.43" x2="34.66" y2="24.43" gradientTransform="matrix(1, 0, 0, 1, 0, 0)" xlink:href="#linear-gradient"/></defs><title>4</title><path class="cls-1" d="M13.37,53.85v.58h-.74a1,1,0,0,1-.7-.3,1.17,1.17,0,0,1-.36-.77,3.59,3.59,0,0,0-.24-1.16.94.94,0,0,0-.91-.58,1,1,0,0,0-.76.32,1.13,1.13,0,0,0-.3.79H11l0,1.12a2.54,2.54,0,0,1-.71,1.81,2.29,2.29,0,0,1-3.4,0,2.54,2.54,0,0,1-.71-1.82c0-.23,0-.59,0-1.11h.63c0,.19,0,.56,0,1.12a1.9,1.9,0,0,0,.53,1.36,1.7,1.7,0,0,0,1.27.56,1.67,1.67,0,0,0,1.27-.57,1.94,1.94,0,0,0,.53-1.37l0-.52H8.7c0-1.53.58-2.29,1.74-2.29a1.47,1.47,0,0,1,1.44.91,4.35,4.35,0,0,1,.3,1.35.63.63,0,0,0,.57.57ZM8.44,57.8H7.77v-.71h.67Zm1.12,0H8.89v-.71h.67Z"/><path class="cls-1" d="M15.42,53.25a1.11,1.11,0,0,1-1.24,1.18H13v-.58h1.18a.57.57,0,0,0,.62-.62c0,.08,0-.62,0-2.12h.63C15.41,52.55,15.42,53.26,15.42,53.25Zm0-2.86h-.67v-.7h.67Z"/><path class="cls-1" d="M19.56,53.59a3,3,0,0,1-.65,2,2.4,2.4,0,0,1-1.71.87l-.27-.57a1.87,1.87,0,0,0,1.19-.39,2.09,2.09,0,0,0,.69-1H18A1.25,1.25,0,0,1,17,54a1.93,1.93,0,0,1,.19-2.5,1.44,1.44,0,0,1,1-.36,1.26,1.26,0,0,1,1.42,1.44Zm-.63.26,0-1.52c0-.54-.25-.81-.71-.81a.76.76,0,0,0-.62.31,1.4,1.4,0,0,0-.3.93c0,.61.34,1.09.87,1.09Z"/><path class="cls-1" d="M23.7,53.85c0,.1,0,.3,0,.58h-.81a1,1,0,0,1-.85-.56,2.77,2.77,0,0,1-.72,1.76,2.41,2.41,0,0,1-1.64.77c-.06-.11-.16-.3-.27-.56a1.88,1.88,0,0,0,1.46-.63,2.21,2.21,0,0,0,.55-1.53V51.12H22v1.81a1,1,0,0,0,.28.68.74.74,0,0,0,.5.24Z"/><path class="cls-1" d="M27.37,54.43h-.81a.87.87,0,0,1-.69-.35,1.16,1.16,0,0,1-.23-.39,1.26,1.26,0,0,1-1.14.74h-1v-.58h.84a.87.87,0,0,0,.47-.14.56.56,0,0,0,.27-.49c0,.15,0-.55,0-2.1h.63c0,.58,0,1.16,0,1.73a1.11,1.11,0,0,0,.28.76.7.7,0,0,0,.5.25h.87v.58Zm-2.22-4.06h-.67v-.7h.67Zm1.12,0h-.68v-.7h.68Z"/><path class="cls-1" d="M33.46,53.85v.58H27.07v-.58H31.2a2.39,2.39,0,0,0-.61-1.58,1.78,1.78,0,0,0-1.37-.61A2.46,2.46,0,0,0,28,52l-.29-.53,0,0,2.17-2.26.42.41-1.58,1.54a3.53,3.53,0,0,1,.6-.05,2.31,2.31,0,0,1,2.39,2.08,4.9,4.9,0,0,1,.1.65Z"/><path class="cls-1" d="M35.11,53.25a1.11,1.11,0,0,1-1.24,1.18h-.59v-.58h.58a.57.57,0,0,0,.62-.62c0-.57,0-1.36,0-2.34,0-1.14,0-1.92,0-2.35h.63c0,.42,0,1.2,0,2.36C35.1,51.89,35.11,52.67,35.11,53.25Z"/><path class="cls-1" d="M38.86,52.65a1.54,1.54,0,0,1-.66,1.29,2.75,2.75,0,0,1-1.69.49h-.44v-.59h.4a2.37,2.37,0,0,0,1.11-.25,1.13,1.13,0,0,0,.65-1.07c0-.13,0-1.46,0-4h.63Zm-1.7.6a1,1,0,0,1-.64.13c0-.8,0-2.42,0-4.85h.63Z"/><path class="cls-1" d="M40.71,54.43h-.63l0-5.88h.63Z"/><path class="cls-1" d="M48.61,54.43H43.8l.19-.58h2.48A3,3,0,0,0,46,52.29c-.25-.41-.53-.61-.83-.61v-.56a1.47,1.47,0,0,1,1.19.67,3.93,3.93,0,0,1,.67,2.06h1.55Z"/><path class="cls-1" d="M53.12,53.85v.58h-.95a3.36,3.36,0,0,1-1.37-.31,3.29,3.29,0,0,1-1.37.31h-1v-.58h1.06a4.6,4.6,0,0,0,.77,0,2.16,2.16,0,0,1-.76-.88,2,2,0,0,1-.22-.88,1.54,1.54,0,0,1,.46-1.18,1.68,1.68,0,0,1,2.17,0A1.52,1.52,0,0,1,52.36,52a2,2,0,0,1-.22.88,2.16,2.16,0,0,1-.76.88,4.6,4.6,0,0,0,.77,0Zm-2.56-4.08h-.67v-.7h.67ZM51.7,52a1.25,1.25,0,0,0-.23-.77.82.82,0,0,0-.68-.35.8.8,0,0,0-.67.35,1.26,1.26,0,0,0-.23.77,1.58,1.58,0,0,0,.39,1.06c.21.26.38.39.52.39s.32-.13.53-.39A1.67,1.67,0,0,0,51.7,52Zm0-2.27H51v-.7h.67Z"/><path class="cls-1" d="M58.71,54.43h-1.8A1.19,1.19,0,0,1,56,54a3.29,3.29,0,0,1-1.56.44h-1.5v-.58h1.49a2.83,2.83,0,0,0,1.22-.3,6.54,6.54,0,0,0-.93-1,2.25,2.25,0,0,0-1.24-.5v-.75a3.17,3.17,0,0,1,2.3-.75,3.79,3.79,0,0,1,1.81.45,2.45,2.45,0,0,1,.75.55,5.91,5.91,0,0,1-1.89,2.14.68.68,0,0,0,.37.13h1.91Zm-1.13-2.72-.47-.3a3.08,3.08,0,0,0-1.31-.27,3.22,3.22,0,0,0-1.82.45,4.09,4.09,0,0,1,2.09,1.69A5.11,5.11,0,0,0,57.59,51.71Z"/><path class="cls-1" d="M60.35,53.25a1.11,1.11,0,0,1-1.24,1.18h-.59v-.58h.58a.57.57,0,0,0,.62-.62c0-.57,0-1.36,0-2.34,0-1.14,0-1.92,0-2.35h.63c0,.42,0,1.2,0,2.36C60.34,51.89,60.35,52.67,60.35,53.25Z"/><path class="cls-1" d="M62.2,54.43h-.63l0-5.88h.63Z"/><path class="cls-2" d="M43.81,41.68A9.16,9.16,0,1,1,53,32.52a9.15,9.15,0,0,1-9.16,9.16m0-16.16a7,7,0,1,0,7,7,7,7,0,0,0-7-7"/><path class="cls-3" d="M48.48,30.33,43,36.2a.58.58,0,0,1-.76.06l-.83-.62-3.3-2.49a.45.45,0,0,1-.07-.69l.69-.75a.58.58,0,0,1,.76-.06l2.89,2.18,4.41-4.76a.58.58,0,0,1,.76-.06l.83.62a.45.45,0,0,1,.06.68"/><path class="cls-4" d="M47.59,10.43a1.08,1.08,0,0,0-1.08-1.08H21.73a1.08,1.08,0,0,0-1.08,1.08v28a1.07,1.07,0,0,0,1.08,1.08H32.51v2.16H20.66a2.16,2.16,0,0,1-2.16-2.16V9.35A2.15,2.15,0,0,1,20.66,7.2H47.59a2.15,2.15,0,0,1,2.15,2.15V19H47.59V10.43Z"/><path class="cls-5" d="M26.58,30.9h4.31a.54.54,0,0,1,.54.54v1.08a.54.54,0,0,1-.54.53H26.58a.54.54,0,0,1-.54-.53V31.44a.54.54,0,0,1,.54-.54"/><path class="cls-6" d="M26,17.43V16.35a.54.54,0,0,1,.54-.54H42.74a.54.54,0,0,1,.54.54v1.08a.54.54,0,0,1-.54.54H26.58a.54.54,0,0,1-.54-.54"/><path class="cls-7" d="M26,25V23.9a.54.54,0,0,1,.54-.54h7.54a.54.54,0,0,1,.54.54V25a.54.54,0,0,1-.54.53H26.58A.53.53,0,0,1,26,25"/></svg>