<svg id="Layer_1" data-name="Layer 1" xmlns="http://www.w3.org/2000/svg" xmlns:xlink="http://www.w3.org/1999/xlink" viewBox="0 0 69.41 68.54"><defs><style>.cls-1{fill:none;stroke-width:1.5px;stroke:url(#linear-gradient);}.cls-2{fill:#fff;}.cls-3{fill:url(#linear-gradient-2);}.cls-4{fill:url(#linear-gradient-3);}.cls-5{fill:#369;stroke:#369;stroke-miterlimit:10;stroke-width:0.25px;}</style><linearGradient id="linear-gradient" x1="15.87" y1="45.37" x2="51.55" y2="9.69" gradientUnits="userSpaceOnUse"><stop offset="0" stop-color="#ff1597"/><stop offset="0.04" stop-color="#e22299"/><stop offset="0.21" stop-color="#695ba0"/><stop offset="0.28" stop-color="#3971a3"/><stop offset="0.44" stop-color="#3b75a7"/><stop offset="0.59" stop-color="#4180b1"/><stop offset="0.73" stop-color="#4a92c4"/><stop offset="0.86" stop-color="#58acdd"/><stop offset="0.99" stop-color="#69cefe"/><stop offset="1" stop-color="#6acfff"/></linearGradient><linearGradient id="linear-gradient-2" x1="52.92" y1="44.33" x2="49.14" y2="27.92" gradientUnits="userSpaceOnUse"><stop offset="0" stop-color="#ff1597"/><stop offset="0.1" stop-color="#e22299"/><stop offset="0.55" stop-color="#695ba0"/><stop offset="0.75" stop-color="#3971a3"/><stop offset="0.81" stop-color="#3b75a7"/><stop offset="0.86" stop-color="#4180b1"/><stop offset="0.9" stop-color="#4a92c4"/><stop offset="0.95" stop-color="#58acdd"/><stop offset="1" stop-color="#69cefe"/><stop offset="1" stop-color="#6acfff"/></linearGradient><linearGradient id="linear-gradient-3" x1="51.89" y1="39.8" x2="50.17" y2="32.34" xlink:href="#linear-gradient-2"/></defs><path class="cls-1" d="M53.16,38.5V13.4a2.52,2.52,0,0,0-2.51-2.51h-10V38.5H38.1V5.88a2.51,2.51,0,0,0-2.51-2.51H20.53A2.51,2.51,0,0,0,18,5.88V38.5c-2.51,0-2.51,1.12-2.51,2.51v2.51H55.67V41C55.67,39.62,55.67,38.5,53.16,38.5ZM25.55,36H23V31h2.51Zm0-7.53H23v-5h2.51Zm0-7.53H23v-5h2.51ZM33.08,36H30.57V31h2.51Zm0-7.53H30.57v-5h2.51Zm0-15.06H30.57v-5h2.51ZM48.14,28.46H45.63v-5h2.51Zm0-7.53H45.63v-5h2.51Z"/><circle class="cls-2" cx="51.03" cy="36.13" r="9.66"/><path class="cls-3" d="M51,27.71a8.42,8.42,0,1,0,8.42,8.42A8.43,8.43,0,0,0,51,27.71Zm0,15.53a7.12,7.12,0,1,1,7.11-7.11A7.12,7.12,0,0,1,51,43.24Z"/><path class="cls-4" d="M54.29,35.41H51.68v-2.6a.65.65,0,0,0-1.3,0v2.6H47.77a.66.66,0,0,0-.65.66.65.65,0,0,0,.65.65h2.61v2.61a.65.65,0,0,0,1.3,0V36.72h2.61a.65.65,0,0,0,.65-.65A.66.66,0,0,0,54.29,35.41Z"/><path class="cls-5" d="M10.65,54.43H5.84L6,53.85H8.51a3,3,0,0,0-.44-1.56c-.26-.41-.53-.61-.83-.61v-.57a1.47,1.47,0,0,1,1.19.68,3.93,3.93,0,0,1,.67,2.06h1.55Z"/><path class="cls-5" d="M12.7,53.25a1.11,1.11,0,0,1-1.24,1.18H10.27v-.58h1.19a.57.57,0,0,0,.61-.62c0,.08,0-.62,0-2.12h.62C12.69,52.55,12.7,53.26,12.7,53.25Zm-1.46,2.53h-.68v-.7h.68Zm1.12,0h-.68v-.7h.68Z"/><path class="cls-5" d="M18.6,54.43H13.79l.19-.58h2.49A3,3,0,0,0,16,52.29c-.26-.41-.53-.61-.83-.61v-.57a1.44,1.44,0,0,1,1.19.68,3.93,3.93,0,0,1,.68,2.06H18.6Z"/><path class="cls-5" d="M23.18,54.43h-4.8v-.58h4.12A2.65,2.65,0,0,0,22,52.19a1.49,1.49,0,0,0-1.19-.6,2.53,2.53,0,0,0-1.25.35l-.26-.54A3.64,3.64,0,0,1,20.73,51a2.11,2.11,0,0,1,2,1.11A4.7,4.7,0,0,1,23.18,54.43Zm-2.37,1.34h-.67v-.7h.67Z"/><path class="cls-5" d="M29.15,54.43H26.2l.32-.57h.84a1.31,1.31,0,0,1-.31-.87,1.28,1.28,0,0,1,.34-.92,1.1,1.1,0,0,1,.87-.38,1,1,0,0,1,.84.43l-.26.4a.72.72,0,0,0-.57-.31c-.38,0-.57.28-.57.85s.24.8.78.8h.67Z"/><path class="cls-5" d="M32.09,54.43h-.78a.91.91,0,0,1-.65-.26,1.08,1.08,0,0,1-.31-.81l0-4.81H31l0,4.73a.51.51,0,0,0,.43.57h.68Z"/><path class="cls-5" d="M35.83,54.43H35a.89.89,0,0,1-.69-.34,1.33,1.33,0,0,1-.23-.39,1.26,1.26,0,0,1-1.14.73H31.77v-.58h1a.86.86,0,0,0,.47-.14.56.56,0,0,0,.28-.5c0,.15,0-.55,0-2.1h.62c0,.58,0,1.16,0,1.73a1.15,1.15,0,0,0,.28.77.72.72,0,0,0,.51.24h.87v.58Zm-1.68-4h-.68v-.7h.68Z"/><path class="cls-5" d="M37.87,53.25a1.1,1.1,0,0,1-1.23,1.18h-1v-.58h1a.58.58,0,0,0,.62-.62c0,.08,0-.62,0-2.12h.63C37.86,52.55,37.87,53.26,37.87,53.25Zm-.53,2.52h-.68v-.7h.68Z"/><path class="cls-5" d="M51.55,54.43h-6.3a2.38,2.38,0,0,1-.65,1.23,2.3,2.3,0,0,1-3.4,0,2.55,2.55,0,0,1-.71-1.82l0-1.85h.63c0,.66,0,1.29,0,1.86a1.86,1.86,0,0,0,.53,1.36,1.7,1.7,0,0,0,2.54,0,1.94,1.94,0,0,0,.53-1.38l0-1.85h.62v.84a3.23,3.23,0,0,1,1.33-1.38A2.34,2.34,0,0,1,48,51.1a1.85,1.85,0,0,1,1.52,1,4.46,4.46,0,0,1,.43,1.79h1.64Zm-2.28-.58a4,4,0,0,0-.16-1.06c-.22-.72-.61-1.1-1.16-1.13-1.1-.07-2,.64-2.64,2.14v.05Z"/><path class="cls-5" d="M55.21,54.43H54.4a.89.89,0,0,1-.69-.34,1.33,1.33,0,0,1-.23-.39,1.26,1.26,0,0,1-1.14.73H51.15v-.58h1a.9.9,0,0,0,.48-.14.56.56,0,0,0,.28-.5c0,.15,0-.55,0-2.1h.63c0,.58,0,1.16,0,1.73a1.11,1.11,0,0,0,.29.77.68.68,0,0,0,.5.24h.87v.58Zm-2.13,1.35H52.4v-.7h.68Zm1.11,0h-.67v-.7h.67Z"/><path class="cls-5" d="M59.71,54.43H55v-.58h4a2.54,2.54,0,0,0-.56-1.66,1.47,1.47,0,0,0-1.18-.6,2.5,2.5,0,0,0-1.25.35l-.26-.54A3.64,3.64,0,0,1,57.25,51a2.11,2.11,0,0,1,2,1.11A4.59,4.59,0,0,1,59.71,54.43Zm-2.56-4h-.67v-.7h.67Z"/><path class="cls-5" d="M63.85,53.85c0,.1,0,.3,0,.58H63a1,1,0,0,1-.85-.56,2.71,2.71,0,0,1-.72,1.76,2.41,2.41,0,0,1-1.63.78,5,5,0,0,1-.28-.57A1.89,1.89,0,0,0,61,55.21a2.19,2.19,0,0,0,.54-1.52V51.12h.63v1.81a1,1,0,0,0,.28.68.73.73,0,0,0,.5.24Z"/><path class="cls-5" d="M65.88,53.25a1.1,1.1,0,0,1-1.24,1.18h-1v-.58h1a.57.57,0,0,0,.61-.62c0,.08,0-.62,0-2.12h.62C65.87,52.55,65.88,53.26,65.88,53.25Zm-1.11-2.87H64.1v-.7h.67Zm1.12,0h-.67v-.7h.67Z"/><path class="cls-5" d="M7.73,62.4a2,2,0,0,0-.62,1.52,2.16,2.16,0,0,0,.59,1.43l-.35.18a2.51,2.51,0,0,1-.71-1.63A2,2,0,0,1,6.85,63a3.19,3.19,0,0,1,.55-.77Zm1.07,0a2.07,2.07,0,0,0-.62,1.52,2.23,2.23,0,0,0,.57,1.43l-.34.18a2.5,2.5,0,0,1-.7-1.63,2,2,0,0,1,.2-.91,2.94,2.94,0,0,1,.55-.77Z"/><path class="cls-5" d="M12.83,65.34H9.89l.32-.57h.84a1.31,1.31,0,0,1-.31-.87,1.28,1.28,0,0,1,.34-.92,1.1,1.1,0,0,1,.86-.38,1,1,0,0,1,.85.43l-.27.4a.69.69,0,0,0-.56-.31c-.38,0-.57.28-.57.85s.23.8.78.8h.66Z"/><path class="cls-5" d="M15.78,65.34H15a.89.89,0,0,1-.65-.26,1.08,1.08,0,0,1-.31-.81l0-4.81h.63l0,4.73a.5.5,0,0,0,.43.57h.68Z"/><path class="cls-5" d="M19.51,65.34h-.8A.91.91,0,0,1,18,65a1.1,1.1,0,0,1-.22-.39,1.28,1.28,0,0,1-1.14.73H15.46v-.58h1a.89.89,0,0,0,.47-.14.57.57,0,0,0,.27-.5c0,.15,0-.55,0-2.1h.63c0,.58,0,1.16,0,1.73a1.1,1.1,0,0,0,.28.76.69.69,0,0,0,.5.25h.87v.58Zm-1.67-4.05h-.68v-.7h.68Z"/><path class="cls-5" d="M21.56,64.16a1.11,1.11,0,0,1-1.24,1.18h-1v-.58h1a.57.57,0,0,0,.62-.62c0,.08,0-.62,0-2.12h.63C21.55,63.46,21.56,64.17,21.56,64.16ZM21,66.68h-.67V66H21Z"/><path class="cls-5" d="M28.4,65.34h-.92c-.66,0-1-.34-1-1H25.18c-.69,0-1-.44-1-1.3a1.78,1.78,0,0,1,.45-1.31,1.12,1.12,0,0,1,.86-.37,1.2,1.2,0,0,1,1,.52h0v-.45h.63V64.3c0,.31.12.46.38.46h.92Zm-1.92-1.56V62.43a1,1,0,0,0-.86-.56.68.68,0,0,0-.56.3,1.43,1.43,0,0,0-.25.91,1,1,0,0,0,.07.45.43.43,0,0,0,.43.25Zm-1-3.16h-.68v-.71h.68Zm1.11,0h-.68v-.71h.68Z"/><path class="cls-5" d="M32.94,65.34H28.22v-.58h4a2.59,2.59,0,0,0-.55-1.66,1.47,1.47,0,0,0-1.19-.61,2.54,2.54,0,0,0-1.25.36L29,62.31a3.64,3.64,0,0,1,1.48-.38A2.09,2.09,0,0,1,32.44,63,4.59,4.59,0,0,1,32.94,65.34Z"/><path class="cls-5" d="M35.89,65.34H35.1a.88.88,0,0,1-.64-.26,1.08,1.08,0,0,1-.31-.81l0-4.81h.63l0,4.73a.5.5,0,0,0,.42.57h.69Z"/><path class="cls-5" d="M38,64.16a1.11,1.11,0,0,1-1.24,1.18h-1v-.58h1a.58.58,0,0,0,.62-.62c0,.08,0-.62,0-2.12H38C38,63.46,38,64.17,38,64.16Zm-.54,2.52h-.67V66h.67Z"/><path class="cls-5" d="M39.85,65.34h-.63l0-5.88h.62Z"/><path class="cls-5" d="M46.69,65.34h-.92c-.66,0-1-.34-1-1H43.47c-.69,0-1-.44-1-1.3a1.78,1.78,0,0,1,.45-1.31,1.12,1.12,0,0,1,.86-.37,1.2,1.2,0,0,1,1,.52h0v-.45h.63V64.3c0,.31.12.46.38.46h.92Zm-1.92-1.56V62.43a1,1,0,0,0-.86-.56.68.68,0,0,0-.56.3,1.43,1.43,0,0,0-.25.91,1,1,0,0,0,.07.45.44.44,0,0,0,.44.25Zm-1-3.16H43.1v-.71h.68Zm1.11,0h-.68v-.71h.68Z"/><path class="cls-5" d="M54.84,65.34H46.57v-.58h1.48V62.89h.57v.8a3.29,3.29,0,0,1,1.3-1.34A2.35,2.35,0,0,1,51.25,62a1.88,1.88,0,0,1,1.53,1,4.63,4.63,0,0,1,.43,1.79h1.63Zm-2.28-.58a4.18,4.18,0,0,0-.15-1.07c-.22-.71-.61-1.09-1.17-1.12-1.09-.07-2,.62-2.62,2.09v.1Z"/><path class="cls-5" d="M59.36,65.34H54.64v-.58h4a2.54,2.54,0,0,0-.56-1.66,1.46,1.46,0,0,0-1.18-.61,2.51,2.51,0,0,0-1.25.36l-.26-.54a3.64,3.64,0,0,1,1.47-.38,2.1,2.1,0,0,1,2,1.11A4.59,4.59,0,0,1,59.36,65.34ZM56.8,61.29h-.67v-.7h.67Z"/><path class="cls-5" d="M61.84,64.5a2.94,2.94,0,0,1-.65,2,2.39,2.39,0,0,1-1.71.87,6.11,6.11,0,0,1-.28-.57,1.85,1.85,0,0,0,1.44-.62,2.22,2.22,0,0,0,.56-1.53V62h.62Z"/><path class="cls-5" d="M63.51,63.9a2.5,2.5,0,0,1-.7,1.63l-.34-.18a2.19,2.19,0,0,0,.58-1.43,2,2,0,0,0-.63-1.52l.35-.18a3.42,3.42,0,0,1,.54.77A2,2,0,0,1,63.51,63.9Zm1.07,0a2.51,2.51,0,0,1-.71,1.63l-.35-.18a2.21,2.21,0,0,0,.59-1.43,2.07,2.07,0,0,0-.62-1.52l.34-.18a3.42,3.42,0,0,1,.54.77A2.13,2.13,0,0,1,64.58,63.9Z"/></svg>