<svg id="Layer_1" data-name="Layer 1" xmlns="http://www.w3.org/2000/svg" xmlns:xlink="http://www.w3.org/1999/xlink" viewBox="0 0 69.41 68.54"><defs><style>.cls-1,.cls-4{fill:none;}.cls-1{stroke-width:1.5px;stroke:url(#linear-gradient);}.cls-2{fill:#fff;}.cls-3{fill:#369;stroke:#369;stroke-width:0.25px;}.cls-3,.cls-4{stroke-miterlimit:10;}.cls-4{stroke:url(#linear-gradient-2);}.cls-5{fill:url(#linear-gradient-3);}</style><linearGradient id="linear-gradient" x1="15.87" y1="45.37" x2="51.55" y2="9.69" gradientUnits="userSpaceOnUse"><stop offset="0" stop-color="#ff1597"/><stop offset="0.04" stop-color="#e22299"/><stop offset="0.21" stop-color="#695ba0"/><stop offset="0.28" stop-color="#3971a3"/><stop offset="0.44" stop-color="#3b75a7"/><stop offset="0.59" stop-color="#4180b1"/><stop offset="0.73" stop-color="#4a92c4"/><stop offset="0.86" stop-color="#58acdd"/><stop offset="0.99" stop-color="#69cefe"/><stop offset="1" stop-color="#6acfff"/></linearGradient><linearGradient id="linear-gradient-2" x1="43.92" y1="36.67" x2="58.39" y2="36.67" gradientUnits="userSpaceOnUse"><stop offset="0" stop-color="#ff1597"/><stop offset="0.1" stop-color="#e22299"/><stop offset="0.55" stop-color="#695ba0"/><stop offset="0.75" stop-color="#3971a3"/><stop offset="0.81" stop-color="#3b75a7"/><stop offset="0.86" stop-color="#4180b1"/><stop offset="0.9" stop-color="#4a92c4"/><stop offset="0.95" stop-color="#58acdd"/><stop offset="1" stop-color="#69cefe"/><stop offset="1" stop-color="#6acfff"/></linearGradient><linearGradient id="linear-gradient-3" x1="52.92" y1="44.33" x2="49.14" y2="27.92" xlink:href="#linear-gradient-2"/></defs><path class="cls-1" d="M53.16,38.5V13.4a2.52,2.52,0,0,0-2.51-2.51h-10V38.5H38.1V5.88a2.51,2.51,0,0,0-2.51-2.51H20.53A2.51,2.51,0,0,0,18,5.88V38.5c-2.51,0-2.51,1.12-2.51,2.51v2.51H55.67V41C55.67,39.62,55.67,38.5,53.16,38.5ZM25.55,36H23V31h2.51Zm0-7.53H23v-5h2.51Zm0-7.53H23v-5h2.51ZM33.08,36H30.57V31h2.51Zm0-7.53H30.57v-5h2.51Zm0-15.06H30.57v-5h2.51ZM48.14,28.46H45.63v-5h2.51Zm0-7.53H45.63v-5h2.51Z"/><circle class="cls-2" cx="51.03" cy="36.13" r="9.66"/><path class="cls-3" d="M21.46,53.43h-.8a1,1,0,0,1-.84-.54,2.53,2.53,0,0,1-.72,1.78,2.3,2.3,0,0,1-3.39,0A2.53,2.53,0,0,1,15,52.84c0-.48,0-1.1,0-1.86h.62c0,1.16,0,1.79,0,1.87a1.9,1.9,0,0,0,.52,1.36,1.72,1.72,0,0,0,2.56,0,1.93,1.93,0,0,0,.52-1.38l-.06-5.38h.63c0,1,0,2.51,0,4.51a.88.88,0,0,0,.28.67.71.71,0,0,0,.5.22h.86v.58Z"/><path class="cls-3" d="M25.14,53.43h-.81a.89.89,0,0,1-.69-.34,1.33,1.33,0,0,1-.23-.39,1.25,1.25,0,0,1-1.13.73H21.09v-.58h1a.89.89,0,0,0,.47-.14.56.56,0,0,0,.28-.5c0,.15,0-.55,0-2.1h.63c0,.58,0,1.16,0,1.73a1.15,1.15,0,0,0,.28.77.7.7,0,0,0,.5.24h.87v.58ZM23,54.78h-.68v-.7H23Zm1.11,0h-.67v-.7h.67Z"/><path class="cls-3" d="M31.61,53.43H24.89v-.58h1.57V51H27v.81a3.22,3.22,0,0,1,1.31-1.35,2.34,2.34,0,0,1,1.33-.34,1.91,1.91,0,0,1,1.63,1.2A5.7,5.7,0,0,1,31.61,53.43ZM31,52.85a3.64,3.64,0,0,0-.16-1.06c-.21-.72-.6-1.1-1.16-1.13-1.1-.07-2,.63-2.63,2.11v.08Z"/><path class="cls-3" d="M37,53.43H35.64a2.49,2.49,0,0,1-2.26,2c-.06-.12-.15-.3-.27-.57a1.92,1.92,0,0,0,1.2-.39,2.13,2.13,0,0,0,.69-1h-.82a1.24,1.24,0,0,1-1-.47,1.77,1.77,0,0,1-.37-1.16,1.74,1.74,0,0,1,.56-1.34,1.42,1.42,0,0,1,1-.37,1.27,1.27,0,0,1,1.42,1.44v1.32H37Zm-1.91-.58V51.33c0-.54-.26-.81-.72-.81a.76.76,0,0,0-.62.31,1.42,1.42,0,0,0-.3.93c0,.61.34,1.09.87,1.09Z"/><path class="cls-3" d="M39,52.25a1.1,1.1,0,0,1-1.24,1.18h-1v-.58h1a.57.57,0,0,0,.61-.62c0,.08,0-.62,0-2.12H39C39,51.55,39,52.26,39,52.25Zm-1.11-2.87h-.67v-.7h.67Zm1.12,0h-.67v-.7H39Z"/><path class="cls-3" d="M49,53.43h-.81a1,1,0,0,1-.89-.65.75.75,0,0,1-.79.65H43.72a1.75,1.75,0,0,1-1.58-.84,3.63,3.63,0,0,1-.49-1.83l0-.54h.54l0,.54a2.36,2.36,0,0,0,.63,1.74,1.36,1.36,0,0,0,.9.35h2.63c.25,0,.37-.17.37-.51s0-.94,0-2.23h.63l0,1.73a1.15,1.15,0,0,0,.28.77.7.7,0,0,0,.5.24H49Zm-3.89,1.34h-.67v-.7h.67Z"/><path class="cls-3" d="M52.21,53.43H51.4a.89.89,0,0,1-.69-.34,1.1,1.1,0,0,1-.22-.39,1.28,1.28,0,0,1-1.14.73h-.6v-.58h.43a.94.94,0,0,0,.47-.14.57.57,0,0,0,.27-.5c0-1.26,0-2.82,0-4.68h.62c0,1.23,0,2.7,0,4.42a1,1,0,0,0,.29.66.71.71,0,0,0,.5.24h.87Z"/><path class="cls-3" d="M58.24,53.43H52v-.58h1L53,48h.62l-.07,4.06A3.56,3.56,0,0,1,55,50.4a2.31,2.31,0,0,1,1.3-.3,1.9,1.9,0,0,1,1.62,1.2A5.68,5.68,0,0,1,58.24,53.43Zm-.63-.59a3.27,3.27,0,0,0-.16-1.05c-.21-.72-.6-1.1-1.16-1.13-1.11-.07-2,.65-2.66,2.18Z"/><path class="cls-3" d="M16.43,63.76v.58h-.74A1,1,0,0,1,15,64a1.12,1.12,0,0,1-.36-.77,3.72,3.72,0,0,0-.24-1.16.94.94,0,0,0-.91-.58,1,1,0,0,0-.76.32,1.13,1.13,0,0,0-.3.79H14l0,1.12a2.55,2.55,0,0,1-.71,1.81,2.3,2.3,0,0,1-3.4,0,2.55,2.55,0,0,1-.71-1.82c0-.23,0-.59,0-1.11h.62c0,.19,0,.56,0,1.12a1.86,1.86,0,0,0,.53,1.36,1.67,1.67,0,0,0,1.27.57,1.64,1.64,0,0,0,1.27-.58,1.9,1.9,0,0,0,.53-1.37l0-.52H11.75c0-1.53.58-2.29,1.74-2.29a1.48,1.48,0,0,1,1.44.91,4.79,4.79,0,0,1,.3,1.35.63.63,0,0,0,.57.57ZM11.5,67.71h-.68V67h.68Zm1.12,0h-.68V67h.68Z"/><path class="cls-3" d="M18.48,63.16a1.11,1.11,0,0,1-1.24,1.18h-1v-.58h1a.57.57,0,0,0,.62-.62c0,.08,0-.62,0-2.12h.63C18.47,62.46,18.48,63.17,18.48,63.16Zm-.22-2.87H16.61l.18-.31h.47a.73.73,0,0,1-.18-.5.69.69,0,0,1,.68-.72.57.57,0,0,1,.47.24l-.14.22a.4.4,0,0,0-.32-.16c-.22,0-.33.15-.32.47a.45.45,0,0,0,.44.45h.37Z"/><path class="cls-3" d="M21.42,64.34h-.78a.88.88,0,0,1-.64-.26,1.08,1.08,0,0,1-.31-.81l0-4.81h.63l0,4.73a.5.5,0,0,0,.42.57h.68Z"/><path class="cls-3" d="M23.53,63.16a1.1,1.1,0,0,1-1.23,1.18h-1v-.58h1a.58.58,0,0,0,.62-.62c0,.08,0-.62,0-2.12h.63C23.52,62.46,23.53,63.17,23.53,63.16ZM23,65.68h-.68V65H23Z"/><path class="cls-3" d="M27.67,63.76c0,.1,0,.3,0,.58h-.81a1,1,0,0,1-.84-.56,2.76,2.76,0,0,1-.72,1.76,2.41,2.41,0,0,1-1.64.78c-.06-.11-.15-.31-.27-.57a1.86,1.86,0,0,0,1.45-.63,2.19,2.19,0,0,0,.55-1.52V61H26v1.81a1,1,0,0,0,.28.68.71.71,0,0,0,.5.24Z"/><path class="cls-3" d="M34.06,64.34H27.3v-.58h1.48a1.44,1.44,0,0,1-.37-1,1.84,1.84,0,0,1,.36-1.16,2.21,2.21,0,0,0-.65.26l-.21-.44A4.64,4.64,0,0,1,29.73,61c1.64,0,2.58.91,2.81,2.74h1.52Zm-3.5-1.66a1.3,1.3,0,0,0-.25-.85.68.68,0,0,0-.54-.27.64.64,0,0,0-.53.27,1.46,1.46,0,0,0-.22.85,1.3,1.3,0,0,0,.25.83.69.69,0,0,0,.54.29C30.24,63.8,30.56,63.4,30.56,62.68Zm1.36,1.08a3.16,3.16,0,0,0-.38-1.22,1.58,1.58,0,0,0-.65-.73,1.64,1.64,0,0,1,.27.93,1.76,1.76,0,0,1-.27,1Z"/><path class="cls-3" d="M40.16,63.76v.58H33.77v-.58H37.9a2.4,2.4,0,0,0-.61-1.58,1.79,1.79,0,0,0-1.38-.61,2.43,2.43,0,0,0-1.25.37l-.29-.53h0l2.18-2.27.42.41-1.59,1.54A3.21,3.21,0,0,1,36,61a2.31,2.31,0,0,1,2.4,2.08,6.53,6.53,0,0,1,.1.66Z"/><path class="cls-3" d="M41.81,63.16a1.1,1.1,0,0,1-1.23,1.18H40v-.58h.58a.58.58,0,0,0,.62-.62c0-.57,0-1.35,0-2.34s0-1.91,0-2.34h.63c0,.42,0,1.2,0,2.35C41.81,61.8,41.81,62.58,41.81,63.16Z"/><path class="cls-3" d="M43.67,64.34H43l0-5.88h.62Z"/><path class="cls-3" d="M48.15,63.5a2.9,2.9,0,0,1-.66,2,2.36,2.36,0,0,1-1.7.87,6.11,6.11,0,0,1-.28-.57A1.85,1.85,0,0,0,47,65.13a2.22,2.22,0,0,0,.56-1.53V61h.63Z"/><path class="cls-3" d="M51.1,64.34h-.79a.88.88,0,0,1-.64-.26,1.08,1.08,0,0,1-.31-.81l0-4.81H50l0,4.73a.5.5,0,0,0,.42.57h.69Z"/><path class="cls-3" d="M54.83,64.34H54a.89.89,0,0,1-.69-.34,1.33,1.33,0,0,1-.23-.39,1.25,1.25,0,0,1-1.13.73H50.78v-.58h1a.89.89,0,0,0,.47-.14.56.56,0,0,0,.28-.5c0,.15,0-.55,0-2.1h.63c0,.58,0,1.16,0,1.73a1.1,1.1,0,0,0,.28.76.67.67,0,0,0,.5.25h.87v.58ZM52.7,65.69H52V65h.68Zm1.11,0h-.67V65h.67Z"/><path class="cls-3" d="M58.51,64.34H57.7A.91.91,0,0,1,57,64a1.29,1.29,0,0,1-.22-.39,1.28,1.28,0,0,1-1.14.73h-1v-.58h.84a.86.86,0,0,0,.47-.14.55.55,0,0,0,.27-.49c0,.15,0-.55,0-2.1h.63c0,.58,0,1.16,0,1.73a1.1,1.1,0,0,0,.28.76.69.69,0,0,0,.5.25h.88v.58Zm-2.22-4.05h-.68v-.7h.68Zm1.12,0h-.69v-.7h.69Z"/><path class="cls-3" d="M60.15,63.16a1.11,1.11,0,0,1-1.24,1.18h-.59v-.58h.58a.57.57,0,0,0,.62-.62c0-.57,0-1.35,0-2.34s0-1.91,0-2.34h.62c0,.42,0,1.2,0,2.35C60.14,61.8,60.15,62.58,60.15,63.16Z"/><path class="cls-3" d="M62,64.34h-.62l-.05-5.88H62Z"/><polyline class="cls-4" points="43.92 37.19 46.66 37.19 47.66 32.34 50.07 41.13 51.87 31.99 53.44 36.7 58.38 36.77"/><path class="cls-5" d="M51,27.71a8.42,8.42,0,1,0,8.42,8.42A8.43,8.43,0,0,0,51,27.71Zm0,15.53a7.12,7.12,0,1,1,7.11-7.11A7.12,7.12,0,0,1,51,43.24Z"/></svg>