<svg id="Layer_1" data-name="Layer 1" xmlns="http://www.w3.org/2000/svg" xmlns:xlink="http://www.w3.org/1999/xlink" viewBox="0 0 74 74"><defs><style>.cls-1{fill:#369;}.cls-2,.cls-6{fill:none;}.cls-2{stroke-linecap:round;stroke-linejoin:round;stroke-width:1.5px;stroke:url(#linear-gradient);}.cls-3{fill:url(#linear-gradient-2);}.cls-4{fill:url(#linear-gradient-3);}.cls-5{fill:url(#linear-gradient-4);}.cls-6{stroke-width:2px;stroke:url(#linear-gradient-5);}</style><linearGradient id="linear-gradient" x1="72.05" y1="8.15" x2="52.45" y2="23.46" gradientUnits="userSpaceOnUse"><stop offset="0" stop-color="#ff1597"/><stop offset="0.1" stop-color="#e22299"/><stop offset="0.55" stop-color="#695ba0"/><stop offset="0.75" stop-color="#3971a3"/><stop offset="0.81" stop-color="#3b75a7"/><stop offset="0.86" stop-color="#4180b1"/><stop offset="0.9" stop-color="#4a92c4"/><stop offset="0.95" stop-color="#58acdd"/><stop offset="1" stop-color="#69cefe"/><stop offset="1" stop-color="#6acfff"/></linearGradient><linearGradient id="linear-gradient-2" x1="47.39" y1="11.8" x2="65.43" y2="11.8" xlink:href="#linear-gradient"/><linearGradient id="linear-gradient-3" x1="47.39" y1="17.35" x2="65.43" y2="17.35" xlink:href="#linear-gradient"/><linearGradient id="linear-gradient-4" x1="55.27" y1="23.55" x2="65.43" y2="23.55" xlink:href="#linear-gradient"/><linearGradient id="linear-gradient-5" x1="15.59" y1="52.52" x2="50.49" y2="17.62" gradientUnits="userSpaceOnUse"><stop offset="0" stop-color="#ff1597"/><stop offset="0.04" stop-color="#e22299"/><stop offset="0.21" stop-color="#695ba0"/><stop offset="0.28" stop-color="#3971a3"/><stop offset="0.44" stop-color="#3b75a7"/><stop offset="0.59" stop-color="#4180b1"/><stop offset="0.73" stop-color="#4a92c4"/><stop offset="0.86" stop-color="#58acdd"/><stop offset="0.99" stop-color="#69cefe"/><stop offset="1" stop-color="#6acfff"/></linearGradient></defs><title>6-1</title><path class="cls-1" d="M22.89,57.22c0,.1,0,.3,0,.58h-.81a1,1,0,0,1-.85-.56A2.77,2.77,0,0,1,20.51,59a2.41,2.41,0,0,1-1.64.77c-.06-.11-.16-.3-.27-.56a1.88,1.88,0,0,0,1.46-.63,2.21,2.21,0,0,0,.55-1.53V54.5h.63v1.81a1,1,0,0,0,.28.68.74.74,0,0,0,.5.24Z"/><path class="cls-1" d="M18.8,59.91l0-.07c-.06-.11-.16-.3-.28-.58l-.08-.18h.19A1.75,1.75,0,0,0,20,58.5a2.11,2.11,0,0,0,.51-1.44V54.37h.88V56.3a.84.84,0,0,0,.25.59.61.61,0,0,0,.41.2h1v.14c0,.09,0,.29,0,.57v.13h-.93a1,1,0,0,1-.76-.35,2.83,2.83,0,0,1-.71,1.51,2.54,2.54,0,0,1-1.72.81Zm0-.58.15.31a2.26,2.26,0,0,0,1.47-.73,2.63,2.63,0,0,0,.69-1.69l0-.42.21.37a.83.83,0,0,0,.74.5h.68c0-.14,0-.25,0-.33H22a.85.85,0,0,1-.59-.27,1.1,1.1,0,0,1-.32-.77V54.62h-.38v2.44a2.35,2.35,0,0,1-.58,1.61A2,2,0,0,1,18.79,59.33Z"/><path class="cls-1" d="M27.38,57.22v.58h-.95a3.36,3.36,0,0,1-1.37-.31,3.29,3.29,0,0,1-1.37.31h-1v-.58h1.06a4.6,4.6,0,0,0,.77,0,2.16,2.16,0,0,1-.76-.88,2,2,0,0,1-.22-.88A1.54,1.54,0,0,1,24,54.23a1.68,1.68,0,0,1,2.17,0,1.52,1.52,0,0,1,.47,1.18,2,2,0,0,1-.22.88,2.16,2.16,0,0,1-.76.88,4.6,4.6,0,0,0,.77,0ZM26,55.42a1.26,1.26,0,0,0-.23-.77.82.82,0,0,0-.68-.35.8.8,0,0,0-.67.35,1.26,1.26,0,0,0-.23.77,1.59,1.59,0,0,0,.39,1.06c.21.26.38.39.52.39s.32-.13.53-.39A1.66,1.66,0,0,0,26,55.42Zm-.57-2.27h-.67v-.7h.67Z"/><path class="cls-1" d="M27.51,57.93H26.44a3.44,3.44,0,0,1-1.37-.3,3.39,3.39,0,0,1-1.37.3H22.53V57.1h1.64a2.29,2.29,0,0,1-.56-.74,2.12,2.12,0,0,1-.23-.94,1.61,1.61,0,0,1,1.67-1.71,1.7,1.7,0,0,1,1.18.43,1.65,1.65,0,0,1,.51,1.28,2.11,2.11,0,0,1-.23.94,2.27,2.27,0,0,1-.55.74h1.55Zm-2.45-.57.05,0a3.22,3.22,0,0,0,1.32.3h.82v-.33h-.85a4.85,4.85,0,0,1-.8,0l-.29-.06.25-.17a2,2,0,0,0,.72-.83,1.87,1.87,0,0,0,.21-.83,1.39,1.39,0,0,0-.43-1.09,1.55,1.55,0,0,0-2,0,1.41,1.41,0,0,0-.42,1.09,1.87,1.87,0,0,0,.21.83,2,2,0,0,0,.72.83l.25.17-.29.06a4.85,4.85,0,0,1-.8,0h-.94v.33h.91a3.15,3.15,0,0,0,1.32-.3Zm0-.37c-.18,0-.38-.14-.62-.44A1.71,1.71,0,0,1,24,55.42a1.37,1.37,0,0,1,.25-.85,1,1,0,0,1,1.56,0,1.37,1.37,0,0,1,.25.85,1.79,1.79,0,0,1-.4,1.14C25.45,56.86,25.25,57,25.06,57Zm0-2.57a.68.68,0,0,0-.57.3,1.14,1.14,0,0,0-.2.7,1.46,1.46,0,0,0,.36,1c.25.31.38.35.42.35s.19,0,.43-.34a1.54,1.54,0,0,0,.35-1,1.14,1.14,0,0,0-.2-.7A.69.69,0,0,0,25.05,54.42Zm.46-1.15h-.92v-1h.92ZM24.84,53h.42v-.45h-.42Z"/><path class="cls-1" d="M31.94,57.81H27.22v-.58h4a2.59,2.59,0,0,0-.55-1.66,1.48,1.48,0,0,0-1.18-.6,2.58,2.58,0,0,0-1.25.35L28,54.78a3.54,3.54,0,0,1,1.47-.38,2.1,2.1,0,0,1,2,1.11A4.62,4.62,0,0,1,31.94,57.81Z"/><path class="cls-1" d="M32.06,57.93h-5V57.1h4a2.42,2.42,0,0,0-.52-1.46,1.35,1.35,0,0,0-1.09-.56,2.47,2.47,0,0,0-1.19.34l-.12.06-.37-.77.11-.05a3.69,3.69,0,0,1,1.53-.39,2.22,2.22,0,0,1,2.06,1.17,4.7,4.7,0,0,1,.52,2.36Zm-4.72-.25h4.47a4.36,4.36,0,0,0-.48-2.11,2,2,0,0,0-1.85-1,3.31,3.31,0,0,0-1.31.32l.14.3a2.66,2.66,0,0,1,1.2-.31,1.61,1.61,0,0,1,1.28.65,2.71,2.71,0,0,1,.58,1.74v.13h-4Z"/><path class="cls-1" d="M40,57.81h-.39a1.36,1.36,0,0,1-.93-.35,1.27,1.27,0,0,1-.41-.81H36.44a1.26,1.26,0,0,0,0,2.53h1.2v.62H36.36a1.85,1.85,0,0,1-1.85-1.85,2,2,0,0,1,.5-1.33A1.5,1.5,0,0,1,36.23,56h2a2.35,2.35,0,0,0-.52-1.23,1.48,1.48,0,0,0-.9-.38,2.31,2.31,0,0,0-1.08.25l-.22-.48a2.29,2.29,0,0,1,1.34-.36c1.3.14,2,1.07,2,2.82a.69.69,0,0,0,.33.47.85.85,0,0,0,.44.13H40v.58Z"/><path class="cls-1" d="M37.76,59.91h-1.4a2,2,0,0,1-2-2,2.08,2.08,0,0,1,.53-1.41,1.63,1.63,0,0,1,1.27-.62h1.93a2.09,2.09,0,0,0-.46-1,1.36,1.36,0,0,0-.83-.34,2.17,2.17,0,0,0-1,.24l-.11,0-.32-.7.1-.06a2.37,2.37,0,0,1,1.41-.38c1.38.14,2.09,1.13,2.11,2.94a.57.57,0,0,0,.27.37.73.73,0,0,0,.37.11h.48v.83h-.52a1.49,1.49,0,0,1-1-.39,1.42,1.42,0,0,1-.43-.78H36.44a1.14,1.14,0,0,0,0,2.28h1.33ZM36.2,56.15a1.38,1.38,0,0,0-1.09.54,1.84,1.84,0,0,0-.47,1.25,1.72,1.72,0,0,0,1.72,1.72h1.15v-.37H36.44a1.35,1.35,0,0,1-1-.41,1.33,1.33,0,0,1-.41-1,1.4,1.4,0,0,1,1.39-1.39h2v.11a1.15,1.15,0,0,0,.37.73,1.23,1.23,0,0,0,.84.32h.26v-.33h-.23a1,1,0,0,1-.5-.14.82.82,0,0,1-.39-.56c0-1.7-.65-2.59-1.89-2.72a2.1,2.1,0,0,0-1.16.29l.12.27a2.31,2.31,0,0,1,1-.21,1.61,1.61,0,0,1,1,.42A2.48,2.48,0,0,1,38.4,56l0,.15H36.2Z"/><path class="cls-1" d="M42.05,56.62a1.11,1.11,0,0,1-1.24,1.18H39.63v-.58h1.18a.57.57,0,0,0,.62-.62c0,.08,0-.62,0-2.12H42C42,55.92,42.05,56.63,42.05,56.62Zm-1.46,2.53h-.67v-.7h.67Zm1.12,0H41v-.7h.67Z"/><path class="cls-1" d="M41.83,59.28h-.92v-1h.92ZM41.16,59h.42v-.45h-.42Zm-.45.25h-.92v-1h.92ZM40,59h.42v-.45H40Zm.78-1.1H39.5V57.1h1.31a.45.45,0,0,0,.49-.49h0c0-.21,0-.74-.05-2.12v-.13h.88v.12c0,1.41,0,2.12,0,2.14h0A1.23,1.23,0,0,1,40.82,57.93Zm-1.07-.25h1.07a1,1,0,0,0,1.11-1.06h0c0-.2,0-.71-.05-2h-.38c0,1.15,0,2,0,2v.13a.69.69,0,0,1-.74.62H39.75Z"/><path class="cls-1" d="M46.19,57.22c0,.1,0,.3,0,.58h-.81a1,1,0,0,1-.85-.56A2.77,2.77,0,0,1,43.81,59a2.41,2.41,0,0,1-1.64.77c-.06-.11-.16-.3-.27-.56a1.88,1.88,0,0,0,1.46-.63,2.21,2.21,0,0,0,.55-1.53V54.5h.63v1.81a1,1,0,0,0,.28.68.74.74,0,0,0,.5.24Z"/><path class="cls-1" d="M42.1,59.91l0-.07c-.06-.11-.16-.3-.28-.58l-.08-.18h.19a1.75,1.75,0,0,0,1.36-.59,2.11,2.11,0,0,0,.51-1.44V54.37h.88V56.3a.84.84,0,0,0,.25.59.61.61,0,0,0,.41.2h1v.14c0,.09,0,.29,0,.57v.13h-.93a1,1,0,0,1-.76-.35,2.83,2.83,0,0,1-.71,1.51,2.54,2.54,0,0,1-1.72.81Zm0-.58.15.31a2.26,2.26,0,0,0,1.47-.73,2.63,2.63,0,0,0,.69-1.69l0-.42.21.37a.83.83,0,0,0,.74.5h.68c0-.14,0-.25,0-.33h-.75a.85.85,0,0,1-.59-.27,1.1,1.1,0,0,1-.32-.77V54.62H44v2.44a2.35,2.35,0,0,1-.58,1.61A2,2,0,0,1,42.09,59.33Z"/><path class="cls-1" d="M54.29,57.81H46v-.58H47.5V55.35h.57v.8a3.24,3.24,0,0,1,1.3-1.34,2.26,2.26,0,0,1,1.33-.34,1.86,1.86,0,0,1,1.53,1,4.56,4.56,0,0,1,.43,1.79h1.64ZM52,57.22a4,4,0,0,0-.16-1.06c-.22-.72-.61-1.09-1.16-1.13-1.09-.06-2,.63-2.62,2.09v.1Z"/><path class="cls-1" d="M54.42,57.93H45.89V57.1h1.48V55.23h.82v.48a3.3,3.3,0,0,1,1.12-1,2.39,2.39,0,0,1,1.4-.35,2,2,0,0,1,1.62,1,4.44,4.44,0,0,1,.43,1.73h1.65Zm-8.28-.25h8v-.33H52.54v-.12a4.41,4.41,0,0,0-.41-1.74,1.73,1.73,0,0,0-1.43-.89,2.16,2.16,0,0,0-1.26.32,3.13,3.13,0,0,0-1.25,1.29l-.24.44V55.48h-.32v1.87H46.14Zm6-.33H47.95v-.28c.67-1.5,1.59-2.23,2.74-2.17.61,0,1,.45,1.28,1.22a4.12,4.12,0,0,1,.16,1.1Zm-3.92-.25h3.66a3.7,3.7,0,0,0-.15-.9c-.2-.67-.55-1-1.05-1C49.65,55.09,48.85,55.73,48.22,57.1Z"/><path class="cls-1" d="M56.35,56.62a1.11,1.11,0,0,1-1.24,1.18h-1v-.58h1a.57.57,0,0,0,.62-.62c0,.08,0-.62,0-2.12h.63C56.34,55.92,56.35,56.63,56.35,56.62Zm-1.11-2.87h-.67v-.7h.67Zm1.12,0h-.67v-.7h.67Z"/><path class="cls-1" d="M55.12,57.93H54V57.1h1.13a.45.45,0,0,0,.49-.49h0c0-.21,0-.74-.05-2.12v-.13h.88v.12c0,1.41,0,2.12,0,2.14h0A1.23,1.23,0,0,1,55.12,57.93Zm-.88-.25h.88a1,1,0,0,0,1.11-1.06h0c0-.2,0-.71-.05-2h-.38c0,1.15,0,2,0,2v.13a.69.69,0,0,1-.74.62h-.87Zm2.25-3.81h-.92v-1h.92Zm-.67-.25h.42v-.45h-.42Zm-.45.25h-.92v-1h.92Zm-.67-.25h.42v-.45H54.7Z"/><path class="cls-2" d="M70.23,7.83V36.27H68V9a1.14,1.14,0,0,0-1.14-1.15H41.19V5.55H68A2.28,2.28,0,0,1,70.23,7.83Z"/><path class="cls-3" d="M65.43,12.37V11.23a.57.57,0,0,0-.56-.57H48a.57.57,0,0,0-.56.57v1.14a.57.57,0,0,0,.56.57H64.86a.57.57,0,0,0,.56-.57Z"/><path class="cls-4" d="M65.43,17.92V16.78a.57.57,0,0,0-.56-.57H48a.57.57,0,0,0-.56.57v1.14a.57.57,0,0,0,.56.57H64.86a.57.57,0,0,0,.56-.57Z"/><path class="cls-5" d="M65.43,24.12V23c0-.32-.14-.57-.32-.57H55.59c-.17,0-.32.26-.32.57v1.14c0,.31.14.57.32.57h9.52c.18,0,.32-.26.32-.57Z"/><path class="cls-6" d="M41.57,10.58a1.34,1.34,0,0,0-1.21,1.21V43.85a1.26,1.26,0,0,0,1.21,1.21H57.29a1.21,1.21,0,1,0,0-2.42H42.77V11.79A1.26,1.26,0,0,0,41.57,10.58ZM19.79,14.21V28.12H26a2.44,2.44,0,0,1,1.51.53l4.65,3.7h4.31L30.7,14.21ZM6.49,30.54V41.43H8.42a6.65,6.65,0,0,1,13.08,0h2a6.65,6.65,0,0,1,13.08,0h1.32V34.78H30.07l-5.31-4.23ZM15,38.4a4.23,4.23,0,1,0,4.23,4.23A4.23,4.23,0,0,0,15,38.4Zm15.12,0a4.23,4.23,0,1,0,4.23,4.23A4.23,4.23,0,0,0,30.07,38.4ZM15,41.43a1.21,1.21,0,1,1-1.21,1.21A1.21,1.21,0,0,1,15,41.43Zm15.12,0a1.21,1.21,0,1,1-1.21,1.21A1.21,1.21,0,0,1,30.07,41.43Z"/></svg>