<svg id="Layer_1" data-name="Layer 1" xmlns="http://www.w3.org/2000/svg" viewBox="0 0 55.17 35.75"><defs><style>.cls-1,.cls-4,.cls-5{fill:none;stroke:#fff;stroke-miterlimit:10;stroke-width:0.25px;}.cls-1{fill-rule:evenodd;}.cls-1,.cls-2,.cls-4{opacity:0.4;}.cls-3{fill:#fff;}</style></defs><title>Artboard 10pattern</title><polygon class="cls-1" points="26.63 9.84 3.15 9.84 3.15 4.17 23.43 4.17 26.63 9.84"/><g class="cls-2"><path class="cls-3" d="M43.36,11.15H13.28c-2.75,0-6.15-.55-8.85,0-1.15.23-1.21-.51-.65.5-.56-1,0-3.94,0-5.12,0-.63.13-4.34-.29-3.92s1.5.25,2.07.25H29.27a23.79,23.79,0,0,1,4.25,0c1.17.22.12-.3,1.31.81,2.84,2.67,5.41,5.71,8.09,8.54.55.59,1.44-.3.88-.88-2.63-2.78-5.41-7.1-8.63-9.11-1.68-1.05-3.85-.61-5.9-.61H3.15a.63.63,0,0,0-.62.63v9.53a.63.63,0,0,0,.63.63H43.36A.63.63,0,0,0,43.36,11.15Z"/></g><g class="cls-2"><path class="cls-3" d="M3.15,22.37h5.2c1.07,0,2.21-.1,3.27,0,1.49.14.19-.57.36-.21.69,1.48,0,4.95,0,6.57v5a.63.63,0,0,0,.63.63H51.79a.63.63,0,0,0,.63-.62V20c0-3.59.09-4.26-2.91-6.59a8.75,8.75,0,0,0-1.22-1c-.17-.09-.5.08-.63,0-2.6-2.08.3,1.34-.7-.05-.27-.37.13-1.22-.09-1.71s-1-.93-1.36-1.31c-1.65-1.63-3.58-4.06-5.58-5.23-1.15-.67-2.1-.51-3.54-.51a.63.63,0,0,0,0,1.25c3,0,3.22.67,5.54,2.85C44,9.58,45.71,10.36,45.71,13a.63.63,0,0,0,.63.63c7.11,0,4.84,9.8,4.84,14.45a48,48,0,0,1,0,5c-.09.87,1.15,0-.17,0-3.07,0-6.14,0-9.21,0H16.51a25.87,25.87,0,0,1-3.23,0c-.86-.11-.27,1,0-.57.52-3.41,0-7.32,0-10.78a.63.63,0,0,0-.62-.62H3.15a.63.63,0,0,0,0,1.25Z"/></g><line class="cls-4" x1="51.33" y1="16.02" x2="3.15" y2="16.02"/><g class="cls-2"><rect class="cls-5" x="16.43" y="6.78" width="0.26" height="1.48"/><rect class="cls-5" x="16.43" y="6.33" width="0.23" height="0.35"/><rect class="cls-5" x="15.51" y="6.78" width="0.26" height="1.48"/><rect class="cls-5" x="15.51" y="6.33" width="0.23" height="0.35"/><rect class="cls-5" x="14.65" y="6.78" width="0.26" height="1.48"/><rect class="cls-5" x="14.65" y="6.33" width="0.23" height="0.35"/><rect class="cls-5" x="13.89" y="6.78" width="0.26" height="1.48"/><rect class="cls-5" x="13.89" y="6.33" width="0.23" height="0.35"/><rect class="cls-5" x="13.13" y="6.78" width="0.26" height="1.48"/><rect class="cls-5" x="13.13" y="6.33" width="0.23" height="0.35"/><rect class="cls-5" x="12.21" y="6.78" width="0.26" height="1.48"/><rect class="cls-5" x="12.21" y="6.33" width="0.23" height="0.35"/><rect class="cls-5" x="11.35" y="6.78" width="0.26" height="1.48"/><rect class="cls-5" x="11.35" y="6.33" width="0.23" height="0.35"/><rect class="cls-5" x="9.22" y="6.78" width="0.26" height="1.48"/><rect class="cls-5" x="9.22" y="6.33" width="0.23" height="0.35"/><rect class="cls-5" x="8.3" y="6.78" width="0.26" height="1.48"/><rect class="cls-5" x="8.3" y="6.33" width="0.23" height="0.35"/><rect class="cls-5" x="7.43" y="6.78" width="0.26" height="1.48"/><rect class="cls-5" x="7.43" y="6.33" width="0.23" height="0.35"/><rect class="cls-5" x="6.68" y="6.78" width="0.26" height="1.48"/><rect class="cls-5" x="6.68" y="6.33" width="0.23" height="0.35"/><rect class="cls-5" x="5.92" y="6.78" width="0.26" height="1.48"/><rect class="cls-5" x="5.92" y="6.33" width="0.23" height="0.35"/><rect class="cls-5" x="5" y="6.78" width="0.26" height="1.48"/><rect class="cls-5" x="5" y="6.33" width="0.23" height="0.35"/><rect class="cls-5" x="4.14" y="6.78" width="0.26" height="1.48"/><rect class="cls-5" x="4.14" y="6.33" width="0.23" height="0.35"/></g><rect class="cls-4" x="48.26" y="25.02" width="1.17" height="1.6"/><rect class="cls-4" x="46.28" y="25.08" width="1.17" height="1.6"/><rect class="cls-4" x="46.28" y="22" width="1.17" height="1.6"/><rect class="cls-4" x="48.26" y="21.94" width="1.17" height="1.6"/><rect class="cls-4" x="43.92" y="25.08" width="1.17" height="1.6"/><rect class="cls-4" x="41.5" y="25.08" width="1.17" height="1.6"/><rect class="cls-4" x="43.92" y="22" width="1.17" height="1.6"/><rect class="cls-4" x="41.5" y="22" width="1.17" height="1.6"/><rect class="cls-4" x="39.14" y="25.08" width="1.17" height="1.6"/><rect class="cls-4" x="36.72" y="25.08" width="1.17" height="1.6"/><rect class="cls-4" x="39.14" y="22" width="1.17" height="1.6"/><rect class="cls-4" x="36.72" y="22" width="1.17" height="1.6"/><rect class="cls-4" x="34.37" y="25.08" width="1.17" height="1.6"/><rect class="cls-4" x="31.95" y="25.08" width="1.17" height="1.6"/><rect class="cls-4" x="34.37" y="22" width="1.17" height="1.6"/><rect class="cls-4" x="31.95" y="22" width="1.17" height="1.6"/><rect class="cls-4" x="29.34" y="25.08" width="1.17" height="1.6"/><rect class="cls-4" x="26.92" y="25.08" width="1.17" height="1.6"/><rect class="cls-4" x="29.34" y="22" width="1.17" height="1.6"/><rect class="cls-4" x="26.92" y="22" width="1.17" height="1.6"/><rect class="cls-4" x="24.56" y="25.08" width="1.17" height="1.6"/><rect class="cls-4" x="22.14" y="25.08" width="1.17" height="1.6"/><rect class="cls-4" x="24.56" y="22" width="1.17" height="1.6"/><rect class="cls-4" x="22.14" y="22" width="1.17" height="1.6"/><rect class="cls-4" x="19.78" y="25.08" width="1.17" height="1.6"/><rect class="cls-4" x="17.09" y="25.08" width="1.17" height="1.6"/><rect class="cls-4" x="19.78" y="22" width="1.17" height="1.6"/><rect class="cls-4" x="17.09" y="22" width="1.17" height="1.6"/><rect class="cls-4" x="14.73" y="25.08" width="1.17" height="1.6"/><rect class="cls-4" x="14.73" y="22" width="1.17" height="1.6"/><rect class="cls-4" x="49.12" y="18.32" width="0.42" height="2.19"/><rect class="cls-4" x="49.12" y="17.65" width="0.39" height="0.52"/><rect class="cls-4" x="48.03" y="18.38" width="0.42" height="2.19"/><rect class="cls-4" x="48.03" y="17.71" width="0.39" height="0.52"/><rect class="cls-4" x="46.61" y="18.38" width="0.42" height="2.19"/><rect class="cls-4" x="46.61" y="17.71" width="0.39" height="0.52"/><rect class="cls-4" x="45.36" y="18.38" width="0.42" height="2.19"/><rect class="cls-4" x="45.36" y="17.71" width="0.39" height="0.52"/><rect class="cls-4" x="44.11" y="18.38" width="0.42" height="2.19"/><rect class="cls-4" x="44.11" y="17.71" width="0.39" height="0.52"/><rect class="cls-4" x="42.59" y="18.38" width="0.42" height="2.19"/><rect class="cls-4" x="42.59" y="17.71" width="0.39" height="0.52"/><rect class="cls-4" x="41.16" y="18.38" width="0.42" height="2.19"/><rect class="cls-4" x="41.16" y="17.71" width="0.39" height="0.52"/><rect class="cls-4" x="39.64" y="18.38" width="0.42" height="2.19"/><rect class="cls-4" x="39.64" y="17.71" width="0.39" height="0.52"/><rect class="cls-4" x="38.19" y="18.38" width="0.42" height="2.19"/><rect class="cls-4" x="38.19" y="17.71" width="0.39" height="0.52"/><rect class="cls-4" x="36.67" y="18.38" width="0.42" height="2.19"/><rect class="cls-4" x="36.67" y="17.71" width="0.39" height="0.52"/><rect class="cls-4" x="35.25" y="18.38" width="0.42" height="2.19"/><rect class="cls-4" x="35.25" y="17.71" width="0.39" height="0.52"/><rect class="cls-4" x="34" y="18.38" width="0.42" height="2.19"/><rect class="cls-4" x="34" y="17.71" width="0.39" height="0.52"/><rect class="cls-4" x="32.74" y="18.38" width="0.42" height="2.19"/><rect class="cls-4" x="32.74" y="17.71" width="0.39" height="0.52"/><rect class="cls-4" x="31.22" y="18.38" width="0.42" height="2.19"/><rect class="cls-4" x="31.22" y="17.71" width="0.39" height="0.52"/><rect class="cls-4" x="29.8" y="18.38" width="0.42" height="2.19"/><rect class="cls-4" x="29.8" y="17.71" width="0.39" height="0.52"/><rect class="cls-4" x="28.28" y="18.38" width="0.42" height="2.19"/><rect class="cls-4" x="28.28" y="17.71" width="0.39" height="0.52"/><rect class="cls-4" x="26.39" y="18.38" width="0.42" height="2.19"/><rect class="cls-4" x="26.39" y="17.71" width="0.39" height="0.52"/><rect class="cls-4" x="24.87" y="18.38" width="0.42" height="2.19"/><rect class="cls-4" x="24.87" y="17.71" width="0.39" height="0.52"/><rect class="cls-4" x="23.44" y="18.38" width="0.42" height="2.19"/><rect class="cls-4" x="23.44" y="17.71" width="0.39" height="0.52"/><rect class="cls-4" x="22.2" y="18.38" width="0.42" height="2.19"/><rect class="cls-4" x="22.2" y="17.71" width="0.39" height="0.52"/><rect class="cls-4" x="20.53" y="18.38" width="0.42" height="2.19"/><rect class="cls-4" x="20.53" y="17.71" width="0.39" height="0.52"/><rect class="cls-4" x="19.11" y="18.38" width="0.42" height="2.19"/><rect class="cls-4" x="19.11" y="17.71" width="0.39" height="0.52"/><rect class="cls-4" x="17.68" y="18.38" width="0.42" height="2.19"/><rect class="cls-4" x="17.68" y="17.71" width="0.39" height="0.52"/><rect class="cls-4" x="16.15" y="18.38" width="0.42" height="2.19"/><rect class="cls-4" x="16.15" y="17.71" width="0.39" height="0.52"/><rect class="cls-4" x="14.73" y="18.38" width="0.42" height="2.19"/><rect class="cls-4" x="14.73" y="17.71" width="0.39" height="0.52"/><rect class="cls-4" x="11.81" y="18.38" width="0.42" height="2.19"/><rect class="cls-4" x="11.81" y="17.71" width="0.39" height="0.52"/><rect class="cls-4" x="10.2" y="18.38" width="0.42" height="2.19"/><rect class="cls-4" x="10.2" y="17.71" width="0.39" height="0.52"/><rect class="cls-4" x="8.76" y="18.38" width="0.42" height="2.19"/><rect class="cls-4" x="8.76" y="17.71" width="0.39" height="0.52"/><rect class="cls-4" x="7.16" y="18.38" width="0.42" height="2.19"/><rect class="cls-4" x="7.16" y="17.71" width="0.39" height="0.52"/><rect class="cls-4" x="5.78" y="18.38" width="0.42" height="2.19"/><rect class="cls-4" x="5.78" y="17.71" width="0.39" height="0.52"/><rect class="cls-4" x="41.39" y="11.86" width="0.39" height="4.1"/><rect class="cls-4" x="3.15" y="12.55" width="18.85" height="0.32"/><rect class="cls-4" x="3.15" y="13.29" width="18.85" height="0.32"/><rect class="cls-4" x="3.15" y="14.02" width="18.85" height="0.32"/><rect class="cls-4" x="3.15" y="14.68" width="18.85" height="0.32"/><rect class="cls-4" x="3.15" y="12.17" width="36.62" height="0.12"/><rect class="cls-4" x="3.15" y="12.45" width="36.62" height="0.12"/><rect class="cls-4" x="3.15" y="12.73" width="36.62" height="0.12"/><rect class="cls-4" x="3.15" y="14.4" width="36.62" height="0.12"/><rect class="cls-4" x="3.15" y="12.98" width="36.62" height="0.12"/><rect class="cls-4" x="26.58" y="12.56" width="13.18" height="0.32"/><rect class="cls-4" x="26.58" y="13.3" width="13.18" height="0.32"/><rect class="cls-4" x="26.58" y="14.02" width="13.18" height="0.32"/><rect class="cls-4" x="26.58" y="14.68" width="13.18" height="0.32"/><rect class="cls-4" x="3.15" y="15.97" width="48.33" height="0.57"/><polygon class="cls-1" points="28.45 5.57 35.8 5.4 39.28 9.61 30.95 9.81 28.45 5.57"/><g class="cls-2"><path class="cls-5" d="M6.62,27v6.86H6.4V27c0-1.65-.73-2.24-1.94-3.22-.37-.3-.78-.63-1.2-1l-.11.1v-.37l.11-.1c.46.44.91.81,1.31,1.13C5.8,24.52,6.62,25.18,6.62,27Z"/><path class="cls-5" d="M6.47,27.18v6.61H6.26V27.18c0-1.6-.7-2.17-1.86-3.11-.35-.29-.74-.61-1.15-1l-.1.09v-.36l.1-.09c.44.42.87.78,1.26,1.09C5.69,24.77,6.47,25.41,6.47,27.18Z"/></g><path class="cls-4" d="M5.69,28v5.77H5.53V28a3.16,3.16,0,0,0-1.41-2.71,11.89,11.89,0,0,1-.87-.87l-.1.1v-.3l.1-.11c.33.37.66.68.95,1A3.43,3.43,0,0,1,5.69,28Z"/><path class="cls-4" d="M7.89,33.63v-4a2.22,2.22,0,0,1,1-1.9c.19-.17.4-.37.61-.6.21.23.42.43.61.6a2.22,2.22,0,0,1,1,1.9v4h.11v-4a2.4,2.4,0,0,0-1-2.06c-.2-.19-.43-.41-.67-.67-.23.26-.46.48-.67.67a2.4,2.4,0,0,0-1,2.06v4Z"/><g class="cls-2"><path class="cls-5" d="M7.28,33.81V28.9c0-1.19.5-1.61,1.32-2.31.25-.21.53-.45.82-.74.29.29.57.52.82.74.82.7,1.32,1.12,1.32,2.31v4.92h.15V28.9a2.86,2.86,0,0,0-1.39-2.51c-.27-.23-.58-.49-.89-.81-.31.32-.62.58-.89.81A2.86,2.86,0,0,0,7.13,28.9v4.92Z"/><path class="cls-5" d="M7.37,33.76V29a2.57,2.57,0,0,1,1.27-2.24c.24-.21.51-.44.79-.71.28.28.55.51.79.71A2.57,2.57,0,0,1,11.47,29v4.76h.14V29a2.77,2.77,0,0,0-1.34-2.43c-.26-.23-.56-.48-.86-.79-.3.31-.6.56-.86.79A2.77,2.77,0,0,0,7.22,29v4.76Z"/></g></svg>