<svg xmlns="http://www.w3.org/2000/svg" viewBox="0 0 212 309"><defs><style>.cls-1{isolation:isolate;}.cls-2{fill:#30b7b3;}.cls-3{fill:#f4b78e;}.cls-4{fill:#f5dcd5;mix-blend-mode:multiply;}.cls-5{fill:#e8e8e9;}.cls-6{fill:#f2a57f;}.cls-7{fill:#472109;}.cls-8{fill:#2f1806;}.cls-9{fill:#fff;}.cls-10{fill:#eba17d;}.cls-11{fill:none;stroke:#e89780;stroke-linecap:round;stroke-linejoin:round;}.cls-12{fill:#d1d1d1;}.cls-13{fill:#25acac;}.cls-14{fill:#1c7c83;}</style></defs><g class="cls-1"><g id="Layer_1" data-name="Layer 1"><circle class="cls-2" cx="106" cy="203" r="106"/><path class="cls-3" d="M635.89,1209.87h-37.7s1,23.81-3.66,30.72l12.09,2.07h11l22.36-2.07C635.42,1233.68,635.89,1209.87,635.89,1209.87Z" transform="translate(-507 -1063)"/><path class="cls-4" d="M597.71,1227.86c5.37,3.47,13.43,5.21,19.87,5.27,7,.07,13.26-1.78,19.23-4.31a153.13,153.13,0,0,1-.92-19h-37.7A149.41,149.41,0,0,1,597.71,1227.86Z" transform="translate(-507 -1063)"/><path class="cls-3" d="M686,1257.09l-50.6-19.61H599.11l-48.52,21.68s-13,4.23-10.72,34.82H684.29C686.9,1261.51,686,1257.09,686,1257.09Z" transform="translate(-507 -1063)"/><path class="cls-5" d="M693.44,1344.28a121.57,121.57,0,0,1-65.85,27.18l-20.28.23a121.61,121.61,0,0,1-77.49-35.33c4.77-35.91,14.56-79.27,14.56-79.27L594.94,1239l.39.2c2.1,1.09,12.15,6.21,18.67,7.68a11.55,11.55,0,0,0,3.62.38,16.9,16.9,0,0,0,2.38-.46c6.91-1.72,19-7.45,19-7.45L667.37,1294Z" transform="translate(-507 -1063)"/><path class="cls-3" d="M658.57,1163.08c-1.3,8,1,15.18,5,16s8.42-5.12,9.72-13.15-1-15.19-5.05-16S659.87,1155,658.57,1163.08Z" transform="translate(-507 -1063)"/><path class="cls-6" d="M663.48,1160.91s.06-.45.22-1.19a14.45,14.45,0,0,1,1-2.89c.51-1.07,1.33-2.31,2.37-2.37a2.14,2.14,0,0,1,.78.11,4,4,0,0,1,.4.21,1.82,1.82,0,0,1,.29.24,4.1,4.1,0,0,1,1,1.75,9.82,9.82,0,0,1,.48,2.28,11.13,11.13,0,0,1,0,2.3c-.13.81-.17,1.64-.31,2.34s-.27,1.39-.39,2-.29,1.21-.41,1.73-.27,1-.36,1.33c-.21.73-.31,1.16-.31,1.16s.2-.36.54-1c.16-.35.39-.74.59-1.24s.44-1.05.67-1.66.43-1.35.65-2.1.33-1.52.49-2.33a11.1,11.1,0,0,0,.1-2.76,12.81,12.81,0,0,0-.52-2.72,5.73,5.73,0,0,0-1.43-2.36,3.08,3.08,0,0,0-.57-.41,5,5,0,0,0-.56-.23,2.84,2.84,0,0,0-3.23,1.36,7.7,7.7,0,0,0-1,2,13.41,13.41,0,0,0-.55,3.24A8.3,8.3,0,0,0,663.48,1160.91Z" transform="translate(-507 -1063)"/><path class="cls-6" d="M663.48,1160.91s-.38-.86,2.3-1.06c0,0,3,.55,1.24,4.55a13,13,0,0,0-.9,2.7c-.27,1.34.21,3.16-.51,4.35-.93,1.54-3.29.67-3.43-1.09-.11-1.35,1.28-3.66,1.91-4.62C664.09,1165.74,666,1162.83,663.48,1160.91Z" transform="translate(-507 -1063)"/><path class="cls-6" d="M662.18,1170.18a2.46,2.46,0,0,0-.21.22,2.83,2.83,0,0,0-.39.75,2.38,2.38,0,0,0-.14.57,2.46,2.46,0,0,0-.05.67c0,.22,0,.47.06.71a5.9,5.9,0,0,0,.23.67,3.15,3.15,0,0,0,.3.61c.12.17.27.32.4.47a1.76,1.76,0,0,0,.81.58,2.55,2.55,0,0,0,.92.23,5.83,5.83,0,0,0-.42-1,2.08,2.08,0,0,0-.22-.38c-.07-.14-.12-.3-.19-.44a4.13,4.13,0,0,0-.22-.42,1.92,1.92,0,0,1-.18-.45,4,4,0,0,1-.32-.88,2.64,2.64,0,0,1-.12-.44c0-.15-.09-.3-.1-.44C662.24,1170.67,662.18,1170.18,662.18,1170.18Z" transform="translate(-507 -1063)"/><path class="cls-3" d="M576.59,1163.08c1.3,8-1,15.18-5,16s-8.42-5.12-9.72-13.15,1-15.19,5-16S575.3,1155,576.59,1163.08Z" transform="translate(-507 -1063)"/><path class="cls-6" d="M571.69,1160.91s-.06-.45-.22-1.19a14.45,14.45,0,0,0-1-2.89c-.51-1.07-1.34-2.31-2.37-2.37a2.11,2.11,0,0,0-.78.11,3.15,3.15,0,0,0-.4.21,1.82,1.82,0,0,0-.29.24,4.1,4.1,0,0,0-1,1.75,9.82,9.82,0,0,0-.48,2.28,11.13,11.13,0,0,0,0,2.3c.13.81.16,1.64.31,2.34s.27,1.39.39,2,.29,1.21.4,1.73.28,1,.37,1.33c.21.73.31,1.16.31,1.16s-.21-.36-.55-1c-.15-.35-.38-.74-.58-1.24s-.44-1.05-.68-1.66-.42-1.35-.64-2.1-.33-1.52-.49-2.33a10.65,10.65,0,0,1-.1-2.76,12.81,12.81,0,0,1,.52-2.72,5.82,5.82,0,0,1,1.42-2.36,3.16,3.16,0,0,1,.58-.41,5,5,0,0,1,.56-.23,3.18,3.18,0,0,1,1.23-.06,3.23,3.23,0,0,1,2,1.42,7.35,7.35,0,0,1,1,2,12.49,12.49,0,0,1,.55,3.24A7.7,7.7,0,0,1,571.69,1160.91Z" transform="translate(-507 -1063)"/><path class="cls-6" d="M571.69,1160.91s.38-.86-2.31-1.06c0,0-3,.55-1.23,4.55a13,13,0,0,1,.9,2.7c.26,1.34-.21,3.16.5,4.35.94,1.54,3.3.67,3.44-1.09.11-1.35-1.28-3.66-1.91-4.62C571.08,1165.74,569.15,1162.83,571.69,1160.91Z" transform="translate(-507 -1063)"/><path class="cls-6" d="M573,1170.18a1.87,1.87,0,0,1,.2.22,2.55,2.55,0,0,1,.4.75,3,3,0,0,1,.14.57,2.46,2.46,0,0,1,0,.67,6.08,6.08,0,0,1-.07.71,4.37,4.37,0,0,1-.22.67,3.15,3.15,0,0,1-.3.61c-.12.17-.27.32-.4.47a1.73,1.73,0,0,1-.82.58,2.53,2.53,0,0,1-.91.23,5.83,5.83,0,0,1,.42-1,2.08,2.08,0,0,1,.22-.38c.07-.14.12-.3.19-.44a2.78,2.78,0,0,1,.22-.42,1.92,1.92,0,0,0,.18-.45,5.44,5.44,0,0,0,.32-.88,4.16,4.16,0,0,0,.12-.44c0-.15.09-.3.1-.44C572.93,1170.67,573,1170.18,573,1170.18Z" transform="translate(-507 -1063)"/><path class="cls-3" d="M618.08,1076.37h-1.29c-32.4.29-50.6,9.52-45.62,68.58l5.57,47s1,8.58,10.41,13.72l17.6,13s8.36,3.71,12.7,3.35c4.33.36,12.69-3.35,12.69-3.35l17.6-13c9.41-5.13,10.4-13.72,10.4-13.72l5.87-46C669,1087,650.47,1076.65,618.08,1076.37Z" transform="translate(-507 -1063)"/><path class="cls-7" d="M656.17,1163.08c-1.15,5-1.95,13-5.2,17.31a12.28,12.28,0,0,1-9.45,4.85,34.8,34.8,0,0,1-7.76-.53c-2-.35-3.85-1.35-5.9-1.39-2.31,0-3.86.74-5.81,1.8-2.44,1.34-4.62,1.19-7.28.37-3.8-1.18-7.25-2.6-11.31-2.46-4.46.15-9.59,1.34-14,0-4.68-1.44-7.12-5.51-9-9.79-1-2.32-1.69-7.77-2.39-10.16-.88-3-2.25-.93-5-1l3.54,33.22s1,8.58,10.41,13.71l17.6,13s8.36,3.72,12.7,3.35c4.33.37,12.69-3.35,12.69-3.35l17.6-13c9.41-5.14,10.4-13.72,10.4-13.72l3.89-33.78C659,1161.47,657,1159.59,656.17,1163.08Z" transform="translate(-507 -1063)"/><path class="cls-8" d="M593.57,1148.8c0,3.06,1.74,5.55,3.85,5.53s3.8-2.51,3.78-5.58-1.74-5.55-3.85-5.53S593.55,1145.73,593.57,1148.8Z" transform="translate(-507 -1063)"/><path class="cls-9" d="M595.87,1147a1.65,1.65,0,1,1-1.65-1.66A1.65,1.65,0,0,1,595.87,1147Z" transform="translate(-507 -1063)"/><path class="cls-8" d="M641.6,1148.8c0,3.06-1.74,5.55-3.85,5.53s-3.8-2.51-3.78-5.58,1.74-5.55,3.85-5.53S641.62,1145.73,641.6,1148.8Z" transform="translate(-507 -1063)"/><path class="cls-9" d="M639.3,1147a1.65,1.65,0,1,0,1.65-1.66A1.65,1.65,0,0,0,639.3,1147Z" transform="translate(-507 -1063)"/><path class="cls-10" d="M623.19,1178.68a10.64,10.64,0,0,1-3.06,2,11.82,11.82,0,0,1-3.66,1,12.88,12.88,0,0,1-2,.08,12.26,12.26,0,0,1-2-.28,10.23,10.23,0,0,1-1.93-.59,16.17,16.17,0,0,1-1.83-.88l-.75-.38-.17-1.28a13,13,0,0,1-.14-1.6c0-.52,0-1,0-1.55a18.47,18.47,0,0,1,.42-3.06,13.63,13.63,0,0,1,1-3,10.78,10.78,0,0,1,1.79-2.78,14.84,14.84,0,0,1,.87,3.14,23.85,23.85,0,0,1,.37,3c0,1,.06,1.93,0,2.89l-.09,1.44c0,.47-.09,1-.14,1.39l-.93-1.66c.41.25.78.59,1.22.81a9,9,0,0,0,1.31.67,13.2,13.2,0,0,0,1.41.53c.49.1,1,.28,1.51.34a10.32,10.32,0,0,0,1.59.17,15.08,15.08,0,0,0,1.65,0A21,21,0,0,0,623.19,1178.68Z" transform="translate(-507 -1063)"/><path class="cls-7" d="M605.37,1137.47a2.68,2.68,0,0,1-3,2,29.27,29.27,0,0,0-15.41,1.29,2.76,2.76,0,0,1-3.29-1.52h0a2.44,2.44,0,0,1,1.33-3.44,34.64,34.64,0,0,1,18.16-1.6,2.7,2.7,0,0,1,2.23,3.22Z" transform="translate(-507 -1063)"/><path class="cls-7" d="M628.33,1137.47a2.68,2.68,0,0,0,3,2,29.31,29.31,0,0,1,15.42,1.29,2.77,2.77,0,0,0,3.29-1.52h0a2.45,2.45,0,0,0-1.34-3.44,34.6,34.6,0,0,0-18.15-1.6,2.71,2.71,0,0,0-2.24,3.22Z" transform="translate(-507 -1063)"/><path class="cls-11" d="M619.18,1199.42a10.21,10.21,0,0,1-4.56.07" transform="translate(-507 -1063)"/><path class="cls-9" d="M606.62,1190l2.65,5.21s11.84,6.65,20.19-4.94A206.79,206.79,0,0,1,606.62,1190Z" transform="translate(-507 -1063)"/><polygon class="cls-12" points="55.72 60.89 58.66 74.32 65.04 89.28 64.06 65.48 55.72 60.89"/><path class="cls-13" d="M678.12,1138.57l-7.1,13.57-12.9,3.55.54-20.74s-26-5.94-38.35-5.32-43.78,6-43.78,6l-.55,18.66-12.12-6.61L558,1136.4s53.28-27.18,59.73-27.38" transform="translate(-507 -1063)"/><path class="cls-14" d="M557.34,1137.25s44-13.84,61-13.47,59.78,14.79,59.78,14.79l2-16.82s-12.17-22-15-24.57-21.5-19.72-25-21.18-13.35-2.8-13.35-2.8-14.24-.49-18.87.61-36.26,18.26-37.67,20-11.75,13.61-11.75,13.61-4,10.49-4,11.22S557.34,1137.25,557.34,1137.25Z" transform="translate(-507 -1063)"/><path class="cls-13" d="M557.18,1132.41s44-13.83,61-13.47S678,1133.73,678,1133.73l2-16.82s-12.17-22-15-24.57-21.5-19.72-25-21.18-13.35-2.8-13.35-2.8-14.25-.49-18.87.61-36.26,18.26-37.67,20-11.75,13.61-11.75,13.61-4,10.49-4,11.22S557.18,1132.41,557.18,1132.41Z" transform="translate(-507 -1063)"/><path class="cls-14" d="M557.36,1127.16s44-13.84,61-13.47,59.79,14.78,59.79,14.78l2-16.81s-12.17-22-15-24.57-21.5-19.72-25-21.18-13.35-2.8-13.35-2.8-14.25-.49-18.87.61-36.26,18.26-37.67,20-11.75,13.61-11.75,13.61-4,10.49-4,11.22S557.36,1127.16,557.36,1127.16Z" transform="translate(-507 -1063)"/><path class="cls-5" d="M703.81,1333.65a124.53,124.53,0,0,1-11.32,10.59L666.56,1294l-28.38-55-.07-.14,51,18.28S699.06,1298.26,703.81,1333.65Z" transform="translate(-507 -1063)"/><path class="cls-14" d="M620,1246.77V1306h-6v-59.15a11.55,11.55,0,0,0,3.62.38A16.9,16.9,0,0,0,620,1246.77Z" transform="translate(-507 -1063)"/></g></g></svg>