<svg id="Layer_1" data-name="Layer 1" xmlns="http://www.w3.org/2000/svg" viewBox="0 0 172.82 170.68"><defs><style>.cls-1{fill:#fff;}.cls-2{opacity:0.37;isolation:isolate;}.cls-3{fill:none;}</style></defs><path class="cls-1" d="M80.68,45.35a1.63,1.63,0,0,1-.7-.24c-13.8-10.29-29.12-5.84-29.35-5.73a1.22,1.22,0,0,1-.7-2.34,36.86,36.86,0,0,1,31.45,6.09,1.17,1.17,0,0,1,.24,1.75C81.5,45.23,81.15,45.35,80.68,45.35Z"/><g class="cls-2"><path class="cls-1" d="M108.28,100.42a.7.7,0,0,1,.35-.7.7.7,0,0,1-.35.7Z"/></g><path class="cls-1" d="M105.35,62.77h0a17.52,17.52,0,0,0-2.22,2h0a3.14,3.14,0,0,1-.58.35,1,1,0,0,1-1.06-.35,1.31,1.31,0,0,1-.35-.82.84.84,0,0,1,.35-.7h0l1.06-1.05a6.21,6.21,0,0,0,.93-.82c.12-.12.24-.24.35-.24a11.19,11.19,0,0,1,1.17-.82c.12-.11.24-.11.35-.23v1.64A1.58,1.58,0,0,1,105.35,62.77Z"/><path class="cls-1" d="M103.72,54.35c.58-.35,1-.7,1.63-1.05V56c-.58.35-1.17.82-1.75,1.17a13.6,13.6,0,0,0-2,1.63,10.75,10.75,0,0,0-1.52,1.64c-.35.35-.58.7-.93,1s-.47.59-.71.94a18.87,18.87,0,0,0-1.28,1.87c-.47.82-.82,1.52-1.29,2.34A13.59,13.59,0,0,0,95,69a10.73,10.73,0,0,0-.71,2.57,21,21,0,0,0-.46,2.69,27.87,27.87,0,0,0-.12,5.5A1.26,1.26,0,0,1,92.72,81a1.33,1.33,0,0,1-.93-.35.88.88,0,0,1-.24-.58v-.24c0-.58-.11-1.17-.11-1.75h0V75.52h0a27.32,27.32,0,0,1,.47-3.4,15.14,15.14,0,0,1,.58-2.22,13.72,13.72,0,0,1,.82-2.34,17.46,17.46,0,0,1,.93-2.22,5.5,5.5,0,0,0,.36-.82,27.24,27.24,0,0,1,3.27-4.91c.12-.23.35-.35.47-.58a8.75,8.75,0,0,1,1.52-1.52l.11-.12c.59-.58,1.29-1.17,2-1.75A13.49,13.49,0,0,1,103.72,54.35Z"/><path class="cls-1" d="M108.16,54.47h0a.11.11,0,0,0-.12.11V53.3l.12.82Z"/><path class="cls-1" d="M89.45,64.29c0,.12-.12.23-.12.35a.78.78,0,0,1-.58.47,1.07,1.07,0,0,1-1-.12.61.61,0,0,1-.35-.47h0l-.36-.7V59a1.18,1.18,0,0,0,.47.58,8,8,0,0,1,.94,1.64,22.84,22.84,0,0,1,1.17,2.46h0C89.45,63.82,89.45,64.06,89.45,64.29Z"/><path class="cls-1" d="M84.19,45.35h0v3h0a6.5,6.5,0,0,0-.94-.82,10,10,0,0,0-1.17-.94L82.67,45l.23-.71C83.37,44.65,83.72,45,84.19,45.35Z"/><path class="cls-1" d="M94.48,67.45a26.36,26.36,0,0,1-.7,6h0a10.08,10.08,0,0,1-.47,1.75v.24a1.73,1.73,0,0,1-.35.47c-.24.23-.59.23-1,.11a1.33,1.33,0,0,1-.47-.35h0a1.12,1.12,0,0,1-.24-1,21.73,21.73,0,0,0,1.06-5.38,22.92,22.92,0,0,0,.11-2.69,20.49,20.49,0,0,0-.23-2.69v-.11a16.16,16.16,0,0,0-.47-2.34c-.12-.47-.23-.94-.35-1.29s-.23-.82-.35-1.29a15.17,15.17,0,0,0-.82-2.1c-.12-.35-.35-.7-.47-1s-.46-.82-.7-1.29c-.35-.7-.82-1.29-1.17-2a5.78,5.78,0,0,0-.82-1V47.8a8.17,8.17,0,0,1,1.29,1.52,23.16,23.16,0,0,1,1.52,2.11,10.52,10.52,0,0,1,1.17,2,25.66,25.66,0,0,1,1.87,4.09,20.74,20.74,0,0,1,.82,2.92h0a17.63,17.63,0,0,1,.47,2.34,12.26,12.26,0,0,1,.23,2v.47A13.77,13.77,0,0,1,94.48,67.45Z"/><path class="cls-1" d="M88.63,45c.82.81,1.52,1.52,2.22,2.33s1.17,1.41,1.76,2.23a18.67,18.67,0,0,1,1.63,2.57,14.63,14.63,0,0,1,1.29,2.34,25.17,25.17,0,0,1,1.17,2.69,21.35,21.35,0,0,1,.82,2.45c0,.12.12.35.12.47a1.15,1.15,0,0,0,.81.82,2,2,0,0,0,.82.12,1.19,1.19,0,0,0,.94-1.41v-.23a21.5,21.5,0,0,0-.82-2.46,27.74,27.74,0,0,0-1.17-2.8,14.63,14.63,0,0,0-1.29-2.34,30.6,30.6,0,0,0-1.63-2.69c-.59-.82-1.06-1.52-1.64-2.34a31.19,31.19,0,0,0-2.57-2.92h0c-.12-.24-.35-.35-.47-.47a1.36,1.36,0,0,0-1.17-.23,1.18,1.18,0,0,0-.58.23A1,1,0,0,0,88.63,45Z"/><path class="cls-1" d="M67.23,117a1.75,1.75,0,0,0-2.1,0,1.52,1.52,0,0,0-.35,1.17,1.4,1.4,0,0,0,.35,1,1.43,1.43,0,0,0,1.05.35,1.64,1.64,0,0,0,1-.35,1.53,1.53,0,0,0,.35-1.17A1.39,1.39,0,0,0,67.23,117Zm3.51,0a1.75,1.75,0,0,0-2.1,0,1.52,1.52,0,0,0-.35,1.17,1.4,1.4,0,0,0,.35,1,1.43,1.43,0,0,0,1,.35,1.64,1.64,0,0,0,1-.35,1.45,1.45,0,0,0,.35-1A1.76,1.76,0,0,0,70.74,117Z"/><path class="cls-1" d="M71.56,139a1.45,1.45,0,0,0-1-.35,1.47,1.47,0,0,0-1.06.35,1.76,1.76,0,0,0-.35,1.17,1.24,1.24,0,0,0,1.41,1.4,1.6,1.6,0,0,0,1-.35,1.43,1.43,0,0,0,.35-1A2,2,0,0,0,71.56,139Z"/><path class="cls-1" d="M32.15,152.22h-2a5.84,5.84,0,0,1-1.52-.23,6.76,6.76,0,0,0,2.11-2.69,7.78,7.78,0,0,0,.7-3.27A8.82,8.82,0,0,0,27.12,145a7.13,7.13,0,0,0-2.57.47,11,11,0,0,0-2.34,1.29,6.87,6.87,0,0,0,1.06,2.8A9.53,9.53,0,0,0,25.14,152,8.75,8.75,0,0,0,23,154.1a3.82,3.82,0,0,0-.7,2.22,3.44,3.44,0,0,0,1.05,2.57,3.74,3.74,0,0,0,2.81.93,8.28,8.28,0,0,0,1.64-.11,14.53,14.53,0,0,0,1.75-.47l-.35-1.87a10.61,10.61,0,0,1-2.57.35,1.73,1.73,0,0,1-1.41-.47,1.35,1.35,0,0,1-.46-1.17,2.59,2.59,0,0,1,.46-1.52A9.79,9.79,0,0,1,26.77,153a4.07,4.07,0,0,0,1.64.7,7.89,7.89,0,0,0,1.52.24h2.22a.12.12,0,0,0,.12-.12l-.12-1.64Zm-3.86-2.8a4.85,4.85,0,0,1-1.52,1.63,6.35,6.35,0,0,1-2-3.27,4.43,4.43,0,0,1,1.05-.47,5.56,5.56,0,0,1,1.17-.23,2.51,2.51,0,0,1,1,.12,2.75,2.75,0,0,1,.94.23A6.9,6.9,0,0,1,28.29,149.42Z"/><path class="cls-1" d="M43.38,152.22h0a2.72,2.72,0,0,1-1.05-.11,2.64,2.64,0,0,1-.71-.47,4.61,4.61,0,0,0,.36-1.75,4.08,4.08,0,0,0-.59-2.11,3.58,3.58,0,0,0-1.52-1.4,4.58,4.58,0,0,0-2.1-.47,9.75,9.75,0,0,0-1.64.23,10.81,10.81,0,0,0-1.76.71,5.94,5.94,0,0,0-.58,1.52,8.72,8.72,0,0,0-.23,1.63,5.24,5.24,0,0,0,.46,2.34H32a.12.12,0,0,0-.12.12v1.87a.12.12,0,0,0,.12.12H37.3a8.77,8.77,0,0,0,1.75-.24,6.14,6.14,0,0,0,1.52-.82,3.26,3.26,0,0,0,1.29.94,5.78,5.78,0,0,0,1.52.23h.23s.12,0,.12-.11l-.35-2.23Zm-4.8-.7a2.35,2.35,0,0,1-1.75.7h-.7a6.27,6.27,0,0,1-.35-2,8.77,8.77,0,0,1,.23-1.87,2.86,2.86,0,0,1,1.64-.47,1.44,1.44,0,0,1,1.17.58,2,2,0,0,1,.47,1.52A2.27,2.27,0,0,1,38.58,151.52Z"/><path class="cls-1" d="M51.1,152.22H48.52v-6.54H46v6.43H43.26s-.12,0-.12.11v1.88a.11.11,0,0,0,.12.11H51.1a.11.11,0,0,0,.11-.11l-.11-1.88Zm-4.68-10.17a1.09,1.09,0,0,0-.82-.35.93.93,0,0,0-.82.35,1.35,1.35,0,0,0-.35.94,1.33,1.33,0,0,0,.35.93,1.14,1.14,0,0,0,1.64,0,1.16,1.16,0,0,0,.35-.93A1.35,1.35,0,0,0,46.42,142.05Zm2.92,0a1.07,1.07,0,0,0-.82-.35,1.09,1.09,0,0,0-.82.35,1.35,1.35,0,0,0-.35.94,1.33,1.33,0,0,0,.35.93,1.05,1.05,0,0,0,.82.35,1,1,0,0,0,.82-.35,1.28,1.28,0,0,0,.35-.93A1.31,1.31,0,0,0,49.34,142.05Z"/><path class="cls-1" d="M61.62,152.22H60.45A6.35,6.35,0,0,1,59.28,149,4.12,4.12,0,0,0,58,146.38a3.9,3.9,0,0,0-2.69-.82,7.16,7.16,0,0,0-3.63.82l.82,1.87a7.9,7.9,0,0,1,1.17-.47,3.51,3.51,0,0,1,1.17-.12,1.87,1.87,0,0,1,1.4.47,2.64,2.64,0,0,1,.7,1.64A4.38,4.38,0,0,0,58,152.22H51a.12.12,0,0,0-.12.12v1.87a.12.12,0,0,0,.12.12H61.62c.12,0,.12,0,.12-.12l-.12-2Zm-5.73,4.21a1.07,1.07,0,0,0-.82-.35.93.93,0,0,0-.82.35,1.37,1.37,0,0,0-.35.94,1.33,1.33,0,0,0,.35.93,1.06,1.06,0,0,0,.82.36,1,1,0,0,0,.82-.36,1.14,1.14,0,0,0,.35-.93A1.37,1.37,0,0,0,55.89,156.43Z"/><path class="cls-1" d="M72.85,152.22h0a2.8,2.8,0,0,1-1.06-.11,2.77,2.77,0,0,1-.7-.47,4.59,4.59,0,0,0,.35-1.75,4.07,4.07,0,0,0-.58-2.11,3.58,3.58,0,0,0-1.52-1.4,4.62,4.62,0,0,0-2.11-.47,9.78,9.78,0,0,0-1.63.23,10.81,10.81,0,0,0-1.76.71,5.59,5.59,0,0,0-.58,1.52A8.8,8.8,0,0,0,63,150a5.24,5.24,0,0,0,.47,2.34h-2a.11.11,0,0,0-.11.12v1.87s0,.12.11.12h5.27a8.87,8.87,0,0,0,1.75-.24,6.33,6.33,0,0,0,1.52-.82,3.26,3.26,0,0,0,1.29.94,5.71,5.71,0,0,0,1.52.23h.23s.12,0,.12-.11l-.35-2.23Zm-4.8-.7a2.37,2.37,0,0,1-1.75.7h-.7a6.31,6.31,0,0,1-.36-2,8.75,8.75,0,0,1,.24-1.87,2.84,2.84,0,0,1,1.64-.47,1.46,1.46,0,0,1,1.17.58,2,2,0,0,1,.46,1.52A2.25,2.25,0,0,1,68.05,151.52Z"/><path class="cls-1" d="M74.83,141.12v11.1H72.61a.12.12,0,0,0-.12.12v1.87a.12.12,0,0,0,.12.12h4.8v-13.1H74.83Z"/><path class="cls-1" d="M80.91,141.12v13.09h2.58V141.12Z"/><path class="cls-1" d="M97.87,145.68a7.63,7.63,0,0,0-2.92.58,4.59,4.59,0,0,0-2,1.64,4.3,4.3,0,0,0-.7,2.45,4.17,4.17,0,0,0,1,3,3.77,3.77,0,0,0,2.81,1.06h1.75v.11a2.17,2.17,0,0,1-.59,1.52,2,2,0,0,1-1.52.59,4.26,4.26,0,0,1-1.28-.12,5.59,5.59,0,0,1-1.29-.47l-1,1.87a5,5,0,0,0,1.64.71,10.76,10.76,0,0,0,2,.23,5.14,5.14,0,0,0,3.4-1,3.83,3.83,0,0,0,1.16-3v-9.12Zm0,6.54H96.7a1.48,1.48,0,0,1-1.29-.46,2.63,2.63,0,0,1-.46-1.52,2.44,2.44,0,0,1,.58-1.76,2.14,2.14,0,0,1,1.75-.58h.59Z"/><path class="cls-1" d="M119.27,152.22h-2.22v-7.36h-2.58v.82H114a6.08,6.08,0,0,0-2.69.58,4.42,4.42,0,0,0-1.76,1.52A4.83,4.83,0,0,0,109,150a4.35,4.35,0,0,0,1.28,3.16,6,6,0,0,0,3.75,1.17h5.26a.12.12,0,0,0,.12-.12l-.12-2Zm-4.8,0H114a2.44,2.44,0,0,1-1.76-.58,1.9,1.9,0,0,1-.58-1.64,2.3,2.3,0,0,1,.58-1.63,2.92,2.92,0,0,1,1.87-.59h.47v4.44Zm-.7-10.64a1.07,1.07,0,0,0-.82-.35.9.9,0,0,0-.81.35,1.33,1.33,0,0,0-.36.94,1.29,1.29,0,0,0,.36.93,1,1,0,0,0,.81.35,1,1,0,0,0,.82-.35,1.11,1.11,0,0,0,.35-.93A7,7,0,0,0,113.77,141.58Zm2.93,0a1.09,1.09,0,0,0-.82-.35.93.93,0,0,0-.82.35,1.32,1.32,0,0,0-.35.94,1.28,1.28,0,0,0,.35.93,1,1,0,0,0,.82.35,1.05,1.05,0,0,0,.82-.35,1.14,1.14,0,0,0,.35-.93A1.37,1.37,0,0,0,116.7,141.58Z"/><path class="cls-1" d="M122.07,145.68v6.43h-3a.11.11,0,0,0-.11.11v1.88a.11.11,0,0,0,.11.11h5.62v-8.53Zm-.81,10.75a1.09,1.09,0,0,0-.82-.35.93.93,0,0,0-.82.35,1.37,1.37,0,0,0-.35.94,1.33,1.33,0,0,0,.35.93,1,1,0,0,0,.82.36,1.06,1.06,0,0,0,.82-.36,1.14,1.14,0,0,0,.35-.93A1.37,1.37,0,0,0,121.26,156.43Zm3,0a1.09,1.09,0,0,0-.82-.35,1.07,1.07,0,0,0-.82.35,1.37,1.37,0,0,0-.35.94,1.33,1.33,0,0,0,.35.93,1,1,0,0,0,.82.36,1.06,1.06,0,0,0,.82-.36,1.14,1.14,0,0,0,.35-.93C124.53,157,124.41,156.67,124.3,156.43Z"/><path class="cls-1" d="M137.63,152.22h-2.22a15.49,15.49,0,0,0-2-5,7.84,7.84,0,0,0-3.63-2.81l-.93,2.46a8.14,8.14,0,0,1,2,1.16,4.88,4.88,0,0,1,1.29,1.76,11,11,0,0,1,.82,2.57h-5.73v2.11h10.64a.12.12,0,0,0,.12-.12l-.35-2.11Z"/><path class="cls-1" d="M144.41,152.22h-2.22v-11.1h-2.58v11.1h-2.22a.11.11,0,0,0-.11.12v1.87s0,.12.11.12h7a.12.12,0,0,0,.12-.12l-.12-2Z"/><path class="cls-1" d="M151.19,152.22H149v-6.54H146.4v6.43h-2.11a.11.11,0,0,0-.11.11v1.88a.11.11,0,0,0,.11.11h7a.11.11,0,0,0,.11-.11l-.23-1.88Zm-2.81,4.21a1.05,1.05,0,0,0-.81-.35.91.91,0,0,0-.82.35,2.25,2.25,0,0,0-.35.94,1.28,1.28,0,0,0,.35.93,1,1,0,0,0,.82.36,1,1,0,0,0,.81-.36,1.12,1.12,0,0,0,.36-.93A1.33,1.33,0,0,0,148.38,156.43Z"/><path class="cls-1" d="M153.18,141.12v11.1H151a.12.12,0,0,0-.12.12v1.87a.12.12,0,0,0,.12.12h4.79v-13.1h-2.57Z"/><path class="cls-1" d="M159.26,141.12v13.09h2.57V141.12Z"/><line class="cls-3" x1="108.51" y1="65.69" x2="105.94" y2="84.4"/><path class="cls-1" d="M107.57,97.38a.67.67,0,0,1-.46.12,1.28,1.28,0,0,1-1.17-.7c-7.49-17-1.41-28.07-1.17-28.53a.9.9,0,0,1,.47-.47v6.9a30.85,30.85,0,0,0,0,11.46c0,.23.11.46.11.7a48.65,48.65,0,0,0,2.81,8.89A1.13,1.13,0,0,1,107.57,97.38Z"/><path class="cls-1" d="M105.35,62.77h0a1.55,1.55,0,0,1-.35.47c-.11.11-8.18,6.08-4,27.24a1.23,1.23,0,0,1-.94,1.41h-.23a1.14,1.14,0,0,1-1.17-1.06c-3-15.43.11-23.5,2.57-27.12.47-.71,1-1.29,1.4-1.76a13.4,13.4,0,0,1,1.06-.93c.11,0,.11-.12.23-.12a1.28,1.28,0,0,1,1.52.47v.11A3.91,3.91,0,0,1,105.35,62.77Z"/><path class="cls-1" d="M97.17,37h0l-.24-.23c-.11-.12-.11-.12-.23-.12l-.12-.11h-1.4a3.82,3.82,0,0,0-2.92,1.87A3.24,3.24,0,0,0,91.79,40v.82A.87.87,0,0,1,91,41.84h-1.4a.93.93,0,0,1-.94-.94V40c-.12-.47-.23-.82-.35-1.17a3,3,0,0,0-2.1-1.87l-.24-.12A3.37,3.37,0,0,0,82.43,38a4.19,4.19,0,0,0-1.05,2.81V83.7a.87.87,0,0,1-.82,1h-1a3.66,3.66,0,0,0-2.22.82,4.16,4.16,0,0,0-1.4,3.16V96.8c0,.35,0,.35-.24.35H73.9a3.7,3.7,0,0,0-3.51,4v5.73A4.08,4.08,0,0,0,73,110.6a3.83,3.83,0,0,0,1.64.11,1.52,1.52,0,1,0,0-3h-.47a.92.92,0,0,1-.93-.93v-5.62c0-.7.35-1.05.93-1.05h1.52c.35,0,.35-.12.35.35v6.43a3.81,3.81,0,0,0,2.93,4,8.38,8.38,0,0,0,2.45,0,3.68,3.68,0,0,0,3-3.86v-6a3.71,3.71,0,0,0-3.51-3.86H79c-.23,0-.23,0-.23-.24V88.73c-.12-.47.35-.94.82-1H80.8a3.56,3.56,0,0,0,1.87-.59,4.1,4.1,0,0,0,1.75-3.39V40.55a1.11,1.11,0,0,1,.94-1,1,1,0,0,1,.93.94v1.05a4.1,4.1,0,0,0,2.22,2.92c.12,0,.12,0,.24.12a3.31,3.31,0,0,0,1,.23h1.52a1.56,1.56,0,0,0,.7-.11h.12A2.93,2.93,0,0,0,94,43.24a4,4,0,0,0,.7-1.64c0-.23.12-.58.12-.81a1,1,0,0,1,.82-1.17h1.4a1,1,0,0,0,.47-.47A2.49,2.49,0,0,0,97.17,37ZM78.69,100h1.87a1,1,0,0,1,.94.94v6a1,1,0,0,1-.94,1.06h-1a.92.92,0,0,1-.93-.94v-6.78C78.58,100.07,78.58,100,78.69,100Z"/><path class="cls-1" d="M56.12,98.32l-5,6.08a1.49,1.49,0,0,1-.94.47,1.69,1.69,0,0,1-.82-.24,1.27,1.27,0,0,1-.11-1.75l5-6.08A28.82,28.82,0,0,0,61,76.92l-.24-5.38a1.41,1.41,0,0,0-2.81,0v.23l.24,4.92a26.26,26.26,0,0,1-6.08,17.89l-5.26,6.31a1.28,1.28,0,0,1-1.76.12A1.18,1.18,0,0,1,45,99.25l5.26-6.31A23.94,23.94,0,0,0,55.77,76.8l-.23-4.91h0a3.87,3.87,0,0,1,7.72-.47v.24L63.49,77A31,31,0,0,1,56.12,98.32Z"/><path class="cls-1" d="M52.73,80.19c0,.24-.11.59-.11.82a21.2,21.2,0,0,1-4.45,9.71l-3.74,4.44a1.24,1.24,0,1,1-1.87-1.64l3.74-4.44a18.42,18.42,0,0,0,4-8.65c0-.24.11-.35.11-.59a.42.42,0,0,1,.12-.23l.12-.12a1.26,1.26,0,0,1,.82-.35A1.38,1.38,0,0,1,52.73,80.19Z"/><path class="cls-1" d="M68.64,71l.23,5.37a36.76,36.76,0,0,1-8.65,25.26L56,106.74a1.48,1.48,0,0,1-.94.46,1.68,1.68,0,0,1-.82-.23,1.27,1.27,0,0,1-.11-1.75h0l4.32-5.15a33.9,33.9,0,0,0,7.95-23.62l-.23-5.38a6.73,6.73,0,0,0-13.45.59v.23a.45.45,0,0,1-.11.35c0,.12-.12.24-.12.35s-.23.24-.35.24a1.8,1.8,0,0,1-.7.23,1.28,1.28,0,0,1-1.29-1v-.24A9.25,9.25,0,0,1,68.64,71Z"/><path class="cls-1" d="M47.47,79.49h0v.24h0a16.74,16.74,0,0,1-3.39,7.6l-3.39,4.09a1.29,1.29,0,0,1-1.76.12,1.14,1.14,0,0,1-.11-1.64l3.39-4a14.22,14.22,0,0,0,2.92-6.31v-.35c0-.12.12-.24.12-.35l.12-.12a1.25,1.25,0,0,1,2.1.7Z"/><path class="cls-1" d="M73.9,70.84l.23,5.38a42,42,0,0,1-9.82,28.88l-1.17,1.4a1.4,1.4,0,0,1-.94.47,1.72,1.72,0,0,1-.81-.23,1.27,1.27,0,0,1-.12-1.76h0l1.17-1.4a39.77,39.77,0,0,0,9.24-27.13l-.24-5.38a8.75,8.75,0,0,0-.23-1.75,5,5,0,0,0-.12-.59h0v-.35c0-.11.12-.23.24-.35l.11-.11a1.27,1.27,0,0,1,.82-.36,1.48,1.48,0,0,1,1,.47,3.37,3.37,0,0,1,.24,1.17A3.15,3.15,0,0,1,73.9,70.84Z"/><path class="cls-1" d="M39.87,72.83a1.65,1.65,0,0,1-.23-.71V72A3.14,3.14,0,0,1,39.87,72.83Z"/><path class="cls-1" d="M42.33,76.92a1.21,1.21,0,0,0-1.41-1A1.5,1.5,0,0,0,39.75,77a7.55,7.55,0,0,1-1.87,5.37l-3,3.63A1.26,1.26,0,0,0,35,87.79a1.08,1.08,0,0,0,.82.24,1.44,1.44,0,0,0,.93-.47l3-3.63A9.09,9.09,0,0,0,42.33,76.92Z"/><path class="cls-1" d="M70.62,58.21l-.11-.12c-.12,0-.12-.11-.12-.23h0C70.39,58,70.51,58.09,70.62,58.21Z"/><path class="cls-1" d="M79.16,70.49,79.39,76a41,41,0,0,1-.23,6.55A1.5,1.5,0,0,1,78,83.7h-.12a1.2,1.2,0,0,1-1.05-1.4,53.55,53.55,0,0,0,.24-6.2l-.24-5.38v-.58h0V70h0v-.47a.42.42,0,0,1,.12-.23l.12-.12a1.26,1.26,0,0,1,.81-.35,1.28,1.28,0,0,1,1.17.7A2.26,2.26,0,0,1,79.16,70.49Z"/><path class="cls-1" d="M72.49,65.11h0v.12a.46.46,0,0,1-.11.35c0,.11-.12.23-.12.35l-.35.35a1.75,1.75,0,0,1-.7.23,1.27,1.27,0,0,1-1-.47c-.12-.23-.24-.35-.35-.58v-.94c0-.11.11-.23.23-.35l.12-.11a1.4,1.4,0,0,1,1.75-.12C72.14,64.52,72.38,64.76,72.49,65.11Z"/><path class="cls-1" d="M66.18,55.52a1.26,1.26,0,0,0,.94-2.34,20.09,20.09,0,0,0-5.73-1.52A1.24,1.24,0,1,0,61,54.12,17.43,17.43,0,0,1,66.18,55.52Z"/><path class="cls-1" d="M45.13,53.65a1.7,1.7,0,0,0,.7-.23,22.74,22.74,0,0,1,6.67-3.51,1.26,1.26,0,0,0-.59-2.46c-.11,0-.11,0-.23.12a22.25,22.25,0,0,0-7.37,3.86A1.29,1.29,0,0,0,44,53.18a2.41,2.41,0,0,0,1.17.47Z"/><path class="cls-1" d="M37.06,77.15l-.23-4.91a23,23,0,0,1,5.5-15.78,1.29,1.29,0,0,0,0-1.76,1.27,1.27,0,0,0-1.76,0l-.12.12a24.56,24.56,0,0,0-6.08,17.42l.24,4.91A3.53,3.53,0,0,1,34,79l-1.4,1.76a1.26,1.26,0,0,0,.12,1.75.78.78,0,0,0,.82.24,1.44,1.44,0,0,0,.93-.47l1.4-1.76A4.29,4.29,0,0,0,37.06,77.15Z"/><path class="cls-1" d="M39.4,52a28,28,0,0,1,22.92-8.42,1.2,1.2,0,0,0,1.29-1.17,1.26,1.26,0,0,0-1-1.28A30.33,30.33,0,0,0,29.23,68.27a23.69,23.69,0,0,0-.12,2.92,1.31,1.31,0,0,0,1.29,1.29h.12a1.18,1.18,0,0,0,1.17-1.17A26.93,26.93,0,0,1,39.4,52Z"/><path class="cls-1" d="M57.29,35.76A38.84,38.84,0,0,0,49.11,37a1.26,1.26,0,0,0-.94,1.52,1.24,1.24,0,0,0,1.52.94h.12a33.52,33.52,0,0,1,7.6-1.17,33.08,33.08,0,0,1,24.32,9.24,1.37,1.37,0,0,0,.94.35,1.09,1.09,0,0,0,.82-.35,1.29,1.29,0,0,0,0-1.76h0a36.11,36.11,0,0,0-11.81-7.6A33.92,33.92,0,0,0,57.29,35.76Z"/><path class="cls-1" d="M30.75,52.36a1.63,1.63,0,0,0,.7.24,1.49,1.49,0,0,0,.94-.47A33.52,33.52,0,0,1,45.48,41.37,1.28,1.28,0,0,0,46,39.62,1.53,1.53,0,0,0,44.43,39a35.46,35.46,0,0,0-14,11.58,1.46,1.46,0,0,0,.35,1.75Z"/><path class="cls-1" d="M40.92,37.51a1.13,1.13,0,0,0,.59-.11A38.5,38.5,0,0,1,67,33.65a1.2,1.2,0,0,0,1.4-1,1.36,1.36,0,0,0-.93-1.4,37.38,37.38,0,0,0-9.59-.7,40.17,40.17,0,0,0-17.54,4.79,1.18,1.18,0,0,0-.47,1.64A.87.87,0,0,0,40.92,37.51Z"/><path class="cls-1" d="M72.14,35.06A26,26,0,0,1,76,36.69a1,1,0,0,0,.59.12,1.11,1.11,0,0,0,1-.7,1.2,1.2,0,0,0-.58-1.64h0c-1.29-.58-2.69-1.17-4.1-1.64a1.3,1.3,0,0,0-1.63.71,1.42,1.42,0,0,0,.81,1.52Z"/><path class="cls-1" d="M66.06,49.79h0l-.23-.12Z"/><path class="cls-1" d="M68.87,42.54h0l-.94-.23h-.11A3.31,3.31,0,0,1,68.87,42.54Z"/><path class="cls-1" d="M72.49,53l-.35-.12v-.12C72.26,52.83,72.38,52.83,72.49,53Z"/><path class="cls-1" d="M47.7,55.52c-.11.12-.23.23-.35.23v-.11A.41.41,0,0,0,47.7,55.52Z"/><path class="cls-1" d="M45.37,57.51a7.41,7.41,0,0,0-.94,1.05,2.69,2.69,0,0,1,.94-1.05Z"/><path class="cls-1" d="M50.28,63.71c-.12,0-.12.11-.24.23h0l.24-.23Z"/><path class="cls-1" d="M57.88,71.42a6.37,6.37,0,0,1-2.11,5l-.23-4.91Z"/><path class="cls-1" d="M67.82,62.77h0a1.31,1.31,0,0,1-.59-.47C67.35,62.42,67.58,62.54,67.82,62.77Z"/><path class="cls-1" d="M47.47,79.49h0v.24h0v.11c0,.12-.12.24-.12.35l-.23.24a1.75,1.75,0,0,1-.7.23,1.21,1.21,0,0,1-1.29-1.17v-.7c0-.12.12-.23.12-.35l.12-.12a1.05,1.05,0,0,1,.81-.35c.71.35,1.29.82,1.29,1.52Z"/><path class="cls-1" d="M73.78,68.5h0V69c0,.11-.12.23-.12.35l-.35.35a1.57,1.57,0,0,1-.7.23,1.33,1.33,0,0,1-1.28-.7c-.12-.12-.12-.23-.12-.47V68.5h0v-.35c0-.12.12-.23.23-.35l.12-.12a1.26,1.26,0,0,1,.82-.35,1.44,1.44,0,0,1,1.05.47c.23.23.23.47.35.7Z"/><path class="cls-1" d="M47.47,65.69s-.23.47-.58,1.41Z"/><path class="cls-1" d="M55.54,71.54l.23,4.91A6.57,6.57,0,0,1,53,78a5.79,5.79,0,0,1-1.41.24,3.14,3.14,0,0,1-1.05-.12,6.85,6.85,0,0,1-5-3.51c-.11.12-.23.12-.35.23a3,3,0,0,1-1.4.35A3.68,3.68,0,0,1,40,72.83a1.67,1.67,0,0,1-.24-.71V70h0v-.35a1.12,1.12,0,0,1,1.41-.94,1.39,1.39,0,0,1,1.05,1.17v.24a10.91,10.91,0,0,0,0,2h0a1.34,1.34,0,0,0,1.4.71,1.28,1.28,0,0,0,1.17-.71h0L44.9,72a.43.43,0,0,0,.12-.35,15,15,0,0,1,.11-2.22V69.2c0-.12.12-.23.24-.35a1.06,1.06,0,0,1,.93-.47h.35a1.13,1.13,0,0,1,.82,1.06,1,1,0,0,1-.12.58,10.67,10.67,0,0,0-.11,1.87l.11,1.75a4.31,4.31,0,0,0,3,2.23h.82a4.39,4.39,0,0,0,4.33-4.33Z"/><path class="cls-1" d="M82,60.31c-.12-.35-.35-.58-.47-.93h0a24.94,24.94,0,0,0-5.38-6.78,3.86,3.86,0,0,0,1.29-5.38,3.74,3.74,0,0,0-1.76-1.52v.11a32.85,32.85,0,0,0-6.78-3.15l-.94-.35h-.46a3.27,3.27,0,0,0-2.11.7A5.24,5.24,0,0,0,64,44.76a3.78,3.78,0,0,0-.24,2,19.81,19.81,0,0,0-5.26-.35,5.57,5.57,0,0,0-1.4.12,1.38,1.38,0,0,0-1.17,1.4,1.16,1.16,0,0,0,1.29,1h0c.46,0,.82-.12,1.28-.12a25.51,25.51,0,0,1,7.25.82l.24.12A22.61,22.61,0,0,1,72,52.71h.11a.12.12,0,0,1,.12.12c.12,0,.12.12.23.12a22.59,22.59,0,0,1,7.84,9.7v.12a1.52,1.52,0,0,1-1.87,1.29h0a.89.89,0,0,1-.59-.24,20.5,20.5,0,0,0-5.61-7.72c-.12-.11-.23-.11-.35-.23a2.67,2.67,0,0,0-.58-.35,1.23,1.23,0,1,0-1.06,2.22h0l.24.12.35.35a1.33,1.33,0,0,1,.35.94,1.43,1.43,0,0,1-.59,1.16,2.19,2.19,0,0,1-1.17.36,14.5,14.5,0,0,0-9.7-3.86h-.59c-.58,0-1,.11-1.63.11a1.83,1.83,0,0,1-.82-.46,1.09,1.09,0,0,1-.35-.82,1.49,1.49,0,0,1,1-1.87h.12a1.22,1.22,0,0,0,.93-1.41,1.12,1.12,0,0,0-1.4-.93,1.61,1.61,0,0,0-.7.23A3,3,0,0,0,54.72,53a3.84,3.84,0,0,0-.82,1.87V56.1a3.59,3.59,0,0,0,.7,1.52c-.35.12-.81.36-1.17.47A4,4,0,0,0,53,56.81,2.88,2.88,0,0,0,52,55.75a3.65,3.65,0,0,0-1.52-.7,4,4,0,0,0-2.57.24l-.12.11h0c-.11,0-.11.12-.23.24a12.15,12.15,0,0,0-1.87,1.63,8.13,8.13,0,0,0-.94,1.06,3.91,3.91,0,0,0-.58,2,4.39,4.39,0,0,0,.58,2.11c.12.12.12.23.24.35a3.85,3.85,0,0,0,2,1.4.94.94,0,0,0-.23.47,6.78,6.78,0,0,1-.47.94v.35h0a1.13,1.13,0,0,0,.82.93h.59a5.56,5.56,0,0,0,.58-.11h0l.12-.12A3.56,3.56,0,0,1,49,65.46c.35-.7.82-1.29,1.17-1.87v-.12h0c0-.12.12-.12.12-.23h0A6.8,6.8,0,0,1,51.56,62a2.21,2.21,0,0,1,.59-.47,11.31,11.31,0,0,1,5.73-2.33h1A12,12,0,0,1,67.12,62l.58.59a3.79,3.79,0,0,0,1.64.35h.11a3.77,3.77,0,0,0,3.4-2.22c0-.12,0-.12.11-.12a16.66,16.66,0,0,1,2.34,4l.35.71a4.13,4.13,0,0,0,2.22,1.16c.24,0,.47.12.71.12h.23a5,5,0,0,0,2.22-.7c.12-.12.24-.12.24-.23l.11-.12h0a3.64,3.64,0,0,0,1.29-2.34c0-.23.12-.58.12-.82C82.55,61.72,82.32,61,82,60.31ZM75.18,49.79h0c-.11.23-.46.47-.7.7a1.58,1.58,0,0,1-1,0h0a26.39,26.39,0,0,0-6.31-3v-.12a1.33,1.33,0,0,1-.71-1.75,1.14,1.14,0,0,1,1.64-.7h0a17.4,17.4,0,0,1,3.39,1.4c1,.47,2.11,1.17,3.16,1.76a1.33,1.33,0,0,1,.7.7A2.81,2.81,0,0,1,75.18,49.79ZM50.75,59.85a13.55,13.55,0,0,0-2.34,2.22,1.48,1.48,0,0,1-.71.12,1.67,1.67,0,0,1-1.4-1.76c0-.12,0-.23.12-.23a27.33,27.33,0,0,1,2.69-2.58h.58a1.9,1.9,0,0,1,.94.71A1.43,1.43,0,0,1,50.75,59.85Z"/><path class="cls-1" d="M46.3,70.72h-.12a1.21,1.21,0,0,1-1-1.4c.12-.47.12-.82.24-1.17V68c.11-.47.23-.93.35-1.28A1.3,1.3,0,0,1,47.35,66a1.31,1.31,0,0,1,.71,1.64h0a8.54,8.54,0,0,1-.36.94v.11c-.11.35-.11.59-.23.94A1,1,0,0,1,46.3,70.72Z"/><path class="cls-1" d="M52.73,80.43v.11a.44.44,0,0,1-.11.35c0,.12,0,.12-.12.24a.12.12,0,0,1-.12.12c-.11.11-.23.23-.35.23a1.61,1.61,0,0,1-.7.23,1.38,1.38,0,0,1-1.4-1.17h0V80a.39.39,0,0,1,.11-.23l.12-.12a1.23,1.23,0,0,1,.82-.35,1.52,1.52,0,0,1,1.4.93l.35.24Z"/><path class="cls-1" d="M79.28,69.9h0c0,.24,0,.35-.12.47h0a.12.12,0,0,1-.12.12l-.11.11c-.12.12-.24.24-.35.24a1.65,1.65,0,0,1-.71.23,1.2,1.2,0,0,1-1.28-1.17h0v-.46a.43.43,0,0,1,.11-.24l.12-.12a1.31,1.31,0,0,1,.82-.35,1.28,1.28,0,0,1,1.17.71.41.41,0,0,1,.12.35c.23,0,.23.11.35.11Z"/><path class="cls-1" d="M113.19,50.84a3.33,3.33,0,0,0-1,.24v2.69a5.63,5.63,0,0,1,1.4-.24,1.3,1.3,0,0,0,1.17-1.4A1.39,1.39,0,0,0,113.3,51l-.11-.12Z"/><path id="SVGID" class="cls-1" d="M113.19,50.84a3.33,3.33,0,0,0-1,.24v2.69a5.63,5.63,0,0,1,1.4-.24,1.3,1.3,0,0,0,1.17-1.4A1.39,1.39,0,0,0,113.3,51l-.11-.12"/><path class="cls-1" d="M117.75,51.9a1.32,1.32,0,0,0,1.17,1.52h0a16.12,16.12,0,0,1,5.26,1.63,1.31,1.31,0,0,0,1.17-2.34h-.12a21.7,21.7,0,0,0-6.08-1.87h-.23a1.15,1.15,0,0,0-1.17,1.06Z"/><path class="cls-1" d="M114.71,44.88a1.3,1.3,0,0,0-1.29,1.29,1.32,1.32,0,0,0,1.29,1.4h1.52a24.17,24.17,0,0,1,24.2,24.2v.71a1.4,1.4,0,0,0,1.41,1.28,1.42,1.42,0,0,0,1.17-.82h0c0-.11,0-.11.11-.23v-.94a26.89,26.89,0,0,0-26.89-26.89Z"/><path class="cls-1" d="M117.75,51.9a1.32,1.32,0,0,0,1.17,1.52h0a16.12,16.12,0,0,1,5.26,1.63,1.31,1.31,0,0,0,1.17-2.34h-.12a21.7,21.7,0,0,0-6.08-1.87h-.23a1.15,1.15,0,0,0-1.17,1.06"/><g id="C"><path class="cls-1" d="M114.71,44.88a1.3,1.3,0,0,0-1.29,1.29,1.32,1.32,0,0,0,1.29,1.4h1.52a24.17,24.17,0,0,1,24.2,24.2v.71a1.4,1.4,0,0,0,1.41,1.28,1.42,1.42,0,0,0,1.17-.82h0c0-.11,0-.11.11-.23v-.94a26.89,26.89,0,0,0-26.89-26.89h-1.52"/></g><path class="cls-1" d="M138.33,49.67a1.3,1.3,0,0,0-.12,1.87h0a28.94,28.94,0,0,1,6.32,10.65,1.26,1.26,0,0,0,1.28.93.86.86,0,0,0,.47-.12,1.26,1.26,0,0,0,.82-1.63h0a32.89,32.89,0,0,0-6.9-11.7,1.46,1.46,0,0,0-.94-.46,2.26,2.26,0,0,0-.93.46Z"/><path id="SVGID-2" data-name="SVGID" class="cls-1" d="M138.33,49.67a1.3,1.3,0,0,0-.12,1.87h0a28.94,28.94,0,0,1,6.32,10.65,1.26,1.26,0,0,0,1.28.93.86.86,0,0,0,.47-.12,1.26,1.26,0,0,0,.82-1.63h0a32.89,32.89,0,0,0-6.9-11.7,1.46,1.46,0,0,0-.94-.46,2.26,2.26,0,0,0-.93.46"/><path class="cls-1" d="M125,41.84a1.26,1.26,0,0,0,.82,1.64h0A30.38,30.38,0,0,1,134,47.8a1.69,1.69,0,0,0,.82.24,1.22,1.22,0,0,0,1.05-.59,1.32,1.32,0,0,0-.23-1.87h0a32.49,32.49,0,0,0-8.89-4.68c-.11,0-.23-.11-.47-.11A1.65,1.65,0,0,0,125,41.84Z"/><path class="cls-1" d="M125,41.84a1.26,1.26,0,0,0,.82,1.64h0A30.38,30.38,0,0,1,134,47.8a1.69,1.69,0,0,0,.82.24,1.22,1.22,0,0,0,1.05-.59,1.32,1.32,0,0,0-.23-1.87h0a32.49,32.49,0,0,0-8.89-4.68c-.11,0-.23-.11-.47-.11A1.65,1.65,0,0,0,125,41.84"/><path class="cls-1" d="M107.34,34.59a1.31,1.31,0,0,0,.47,2.57h.12a39.31,39.31,0,0,1,8.18-.93,35.75,35.75,0,0,1,25.73,11,1.44,1.44,0,0,0,.93.47,1.33,1.33,0,0,0,.94-.36,1.22,1.22,0,0,0,0-1.87h0a37.66,37.66,0,0,0-36.37-10.87Z"/><path class="cls-1" d="M107.34,34.59a1.31,1.31,0,0,0,.47,2.57h.12a39.31,39.31,0,0,1,8.18-.93,35.75,35.75,0,0,1,25.73,11,1.44,1.44,0,0,0,.93.47,1.33,1.33,0,0,0,.94-.36,1.22,1.22,0,0,0,0-1.87h0a37.66,37.66,0,0,0-36.37-10.87"/><path class="cls-1" d="M130.73,31.67a1.48,1.48,0,0,0,.7,1.75c1.4.58,2.69,1.17,4.09,1.87a1.24,1.24,0,0,0,1.76-.58h0a1.24,1.24,0,0,0-.59-1.76h0c-1.4-.7-2.81-1.4-4.33-2a.72.72,0,0,0-.46-.11,1.26,1.26,0,0,0-1.17.82Z"/><path class="cls-1" d="M121.61,88.73a.42.42,0,0,0-.12.35v.23a1.42,1.42,0,0,0,1.4,1.41,1.29,1.29,0,0,0,1.17-.7c.12-.12.12-.24.12-.47v-.24a1.26,1.26,0,0,0-1.4-1.28,1.28,1.28,0,0,0-1.17.7Z"/><path class="cls-1" d="M130.73,31.67a1.48,1.48,0,0,0,.7,1.75c1.4.58,2.69,1.17,4.09,1.87a1.24,1.24,0,0,0,1.76-.58h0a1.24,1.24,0,0,0-.59-1.76h0c-1.4-.7-2.81-1.4-4.33-2a.72.72,0,0,0-.46-.11,1.26,1.26,0,0,0-1.17.82"/><path id="SVGID-3" data-name="SVGID" class="cls-1" d="M121.61,88.73a.42.42,0,0,0-.12.35v.23a1.42,1.42,0,0,0,1.4,1.41,1.29,1.29,0,0,0,1.17-.7c.12-.12.12-.24.12-.47v-.24a1.26,1.26,0,0,0-1.4-1.28,1.28,1.28,0,0,0-1.17.7"/><path class="cls-1" d="M120.55,91.89a.43.43,0,0,1-.11.23c0,.12-.12.23-.12.35a1.27,1.27,0,0,0,1.4,1.29,1.25,1.25,0,0,0,1.06-.59h0l.23-.47h0v-.23a1.42,1.42,0,0,0-1.4-1.4,1.29,1.29,0,0,0-1.06.82Z"/><path id="SVGID-4" data-name="SVGID" class="cls-1" d="M120.55,91.89a.43.43,0,0,1-.11.23c0,.12-.12.23-.12.35a1.27,1.27,0,0,0,1.4,1.29,1.25,1.25,0,0,0,1.06-.59h0l.23-.47h0v-.23a1.42,1.42,0,0,0-1.4-1.4,1.29,1.29,0,0,0-1.06.82"/><path class="cls-1" d="M122.43,85.57v.35a1.4,1.4,0,0,0,2.68.59h0c0-.12.12-.24.12-.47h0a1.42,1.42,0,0,0-1.4-1.4h0a1.7,1.7,0,0,0-1.4.93Z"/><path class="cls-1" d="M122.43,85.57v.35a1.4,1.4,0,0,0,2.68.59h0c0-.12.12-.24.12-.47h0a1.42,1.42,0,0,0-1.4-1.4h0a1.7,1.7,0,0,0-1.4.93"/><path class="cls-1" d="M122.89,64.64a1.33,1.33,0,0,0-.7-.7c.24.23.47.47.7.7Z"/><path class="cls-1" d="M122.89,64.64a1.33,1.33,0,0,0-.7-.7c.24.23.47.47.7.7"/><path class="cls-1" d="M123.13,81.71c0,.12-.12.24-.12.47v.12a1.4,1.4,0,0,0,1.4,1.28,1.36,1.36,0,0,0,1.29-1V82.3a1.42,1.42,0,0,0-1.29-1.41,1.08,1.08,0,0,0-1.28.82Z"/><path class="cls-1" d="M123.13,81.71c0,.12-.12.24-.12.47v.12a1.4,1.4,0,0,0,1.4,1.28,1.36,1.36,0,0,0,1.29-1V82.3a1.42,1.42,0,0,0-1.29-1.41,1.08,1.08,0,0,0-1.28.82"/><path class="cls-1" d="M140.32,92.47a1.44,1.44,0,0,0-1.87.94v.46A1.55,1.55,0,0,0,140,95.39a2.07,2.07,0,0,0,.81-.23.78.78,0,0,0,.47-.7h0c0-.12.12-.23.12-.47v-.12A1.94,1.94,0,0,0,140.32,92.47Zm-.47,1.29Z"/><path class="cls-1" d="M139.85,95.28a1.55,1.55,0,0,1-1.52-1.52v-.47a1.49,1.49,0,0,1,1.87-.94,1.72,1.72,0,0,1,1.05,1.29v.12a.9.9,0,0,1-.12.47h0A1.24,1.24,0,0,1,139.85,95.28Zm0-1.52Z"/><path class="cls-1" d="M140.43,72.12v.47a1.41,1.41,0,0,0,1.41,1.29,1.42,1.42,0,0,0,1.17-.82h0c0-.12,0-.12.11-.23v-.24h0v-.35a1.43,1.43,0,0,0-1.63-1,1.45,1.45,0,0,0-1.06.93Z"/><path class="cls-1" d="M140.43,72.12v.47a1.41,1.41,0,0,0,1.41,1.29,1.42,1.42,0,0,0,1.17-.82h0c0-.12,0-.12.11-.23v-.24h0v-.35a1.43,1.43,0,0,0-1.63-1,1.45,1.45,0,0,0-1.06.93"/><path class="cls-1" d="M113.07,70.25V83a.42.42,0,0,0,.12.35.79.79,0,0,0,.7.47h.82a30.33,30.33,0,0,0,.93-7.25V71.31a1.5,1.5,0,0,1,1.29-1.52,1.55,1.55,0,0,1,1.75,1.28v6.08a36.31,36.31,0,0,1-.93,7.95,2.82,2.82,0,0,1,.58,1.64V91.3a32.82,32.82,0,0,0,3.16-14.15V71.42a4.21,4.21,0,0,0-3.86-4.21h-.35a4.23,4.23,0,0,0-4.21,3Z"/><path class="cls-1" d="M115.18,61.13c-.24,0-.59.12-.82.12h0a1.37,1.37,0,0,0-.59,1.87,1.44,1.44,0,0,0,1.29.82h.35a1.45,1.45,0,0,0,1-1.64c-.35-.58-.7-1-1.28-1.17Z"/><path class="cls-1" d="M115.18,61.13c-.24,0-.59.12-.82.12h0a1.37,1.37,0,0,0-.59,1.87,1.44,1.44,0,0,0,1.29.82h.35a1.45,1.45,0,0,0,1-1.64c-.35-.58-.7-1-1.28-1.17Z"/><path class="cls-1" d="M117.28,63.47a1.27,1.27,0,0,0,.94,1.29l.35.11h.11a1.42,1.42,0,0,0,1.41-1.4,1.56,1.56,0,0,0-.7-1.17c-.24,0-.47-.11-.71-.11a1.16,1.16,0,0,0-1.4,1.28Z"/><path class="cls-1" d="M117.28,63.47a1.27,1.27,0,0,0,.94,1.29l.35.11h.11a1.42,1.42,0,0,0,1.41-1.4,1.56,1.56,0,0,0-.7-1.17c-.24,0-.47-.11-.71-.11a1.16,1.16,0,0,0-1.4,1.28"/><path class="cls-1" d="M115.53,56.22a5.6,5.6,0,0,0-1.41.12h-.35a1.81,1.81,0,0,0-.93.7c0,.12-.12.23-.12.35v.23a1.42,1.42,0,0,0,1.4,1.41h.35c.35,0,.82-.12,1.17-.12A12.83,12.83,0,0,1,129,71.31v6.31a42,42,0,0,1-6.19,22.1c0,.12-.12.23-.24.35s-.11.24-.11.35v.24a1.42,1.42,0,0,0,1.4,1.4h0a1.44,1.44,0,0,0,1-.47h0l.12-.23a45.17,45.17,0,0,0,6.55-23.51V72A15.65,15.65,0,0,0,116,56.34h-.46Z"/><path class="cls-1" d="M115.53,56.22a5.6,5.6,0,0,0-1.41.12h-.35a1.81,1.81,0,0,0-.93.7c0,.12-.12.23-.12.35v.23a1.42,1.42,0,0,0,1.4,1.41h.35c.35,0,.82-.12,1.17-.12A12.83,12.83,0,0,1,129,71.31v6.31a42,42,0,0,1-6.19,22.1c0,.12-.12.23-.24.35s-.11.24-.11.35v.24a1.42,1.42,0,0,0,1.4,1.4h0a1.44,1.44,0,0,0,1-.47h0l.12-.23a45.17,45.17,0,0,0,6.55-23.51V72A15.65,15.65,0,0,0,116,56.34h-.46"/><path class="cls-1" d="M140.32,81.36a50.4,50.4,0,0,1-.59,5.85,1.32,1.32,0,0,0,1.05,1.52h.47a1.37,1.37,0,0,0,1.05-1,54,54,0,0,0,.59-6.2,1.41,1.41,0,0,0-1.29-1.4h0a1.29,1.29,0,0,0-1.28,1.28Z"/><path class="cls-1" d="M140.32,81.36a50.4,50.4,0,0,1-.59,5.85,1.32,1.32,0,0,0,1.05,1.52h.47a1.37,1.37,0,0,0,1.05-1,54,54,0,0,0,.59-6.2,1.41,1.41,0,0,0-1.29-1.4h0a1.29,1.29,0,0,0-1.28,1.28"/><path class="cls-1" d="M128.39,56.22a1.44,1.44,0,0,0,.23,1.76,18.64,18.64,0,0,1,6.08,13.79v5.85a40.34,40.34,0,0,1-.46,6.55,1.32,1.32,0,0,0,.7,1.4,1.2,1.2,0,0,0,1.75-.58.43.43,0,0,0,.12-.35,47.31,47.31,0,0,0,.47-7V71.77a21.15,21.15,0,0,0-7-15.78,1.29,1.29,0,0,0-.94-.35,1,1,0,0,0-.93.58Z"/><path class="cls-1" d="M128.39,56.22a1.44,1.44,0,0,0,.23,1.76,18.64,18.64,0,0,1,6.08,13.79v5.85a40.34,40.34,0,0,1-.46,6.55,1.32,1.32,0,0,0,.7,1.4,1.2,1.2,0,0,0,1.75-.58.43.43,0,0,0,.12-.35,47.31,47.31,0,0,0,.47-7V71.77a21.15,21.15,0,0,0-7-15.78,1.29,1.29,0,0,0-.94-.35,1,1,0,0,0-.93.58"/><path class="cls-1" d="M120.55,91.89a.43.43,0,0,1-.11.23c-.35.82-.7,1.64-1.17,2.57a1.44,1.44,0,0,1,.7.12,3.29,3.29,0,0,1,1.64,1c.46-.82.82-1.75,1.28-2.57h0l.24-.47h0v-.23a1.43,1.43,0,0,0-1.41-1.41,1.09,1.09,0,0,0-1.17.71Z"/><path class="cls-1" d="M120.55,91.89a.43.43,0,0,1-.11.23c-.35.82-.7,1.64-1.17,2.57a1.44,1.44,0,0,1,.7.12,3.29,3.29,0,0,1,1.64,1c.46-.82.82-1.75,1.28-2.57h0l.24-.47h0v-.23a1.43,1.43,0,0,0-1.41-1.41,1.09,1.09,0,0,0-1.17.71"/><path class="cls-1" d="M121.61,88.73c0,.12-.12.23-.12.35v.23a1.42,1.42,0,0,0,1.4,1.41,1.29,1.29,0,0,0,1.17-.7c0-.12.12-.24.12-.47v-.24a1.26,1.26,0,0,0-1.4-1.28,1.28,1.28,0,0,0-1.17.7Z"/><path class="cls-1" d="M121.61,88.73c0,.12-.12.23-.12.35v.23a1.42,1.42,0,0,0,1.4,1.41,1.29,1.29,0,0,0,1.17-.7c0-.12.12-.24.12-.47v-.24a1.26,1.26,0,0,0-1.4-1.28,1.28,1.28,0,0,0-1.17.7"/><path class="cls-1" d="M120.32,65.34a1.37,1.37,0,0,0,.35.94l.24.23h0a7.29,7.29,0,0,1,2.45,5.38v5.85c0,1.4-.12,2.69-.23,4.09a.7.7,0,0,1-.12.47,1.4,1.4,0,0,0,1.4,1.28,1.36,1.36,0,0,0,1.29-1V82.3a29.57,29.57,0,0,0,.23-4.45V72a9.92,9.92,0,0,0-3.15-7.25l-.71-.7c-.11,0-.35-.12-.46-.12a1.41,1.41,0,0,0-1.29,1.4Z"/><path class="cls-1" d="M120.32,65.34a1.37,1.37,0,0,0,.35.94l.24.23h0a7.29,7.29,0,0,1,2.45,5.38v5.85c0,1.4-.12,2.69-.23,4.09a.7.7,0,0,1-.12.47,1.4,1.4,0,0,0,1.4,1.28,1.36,1.36,0,0,0,1.29-1V82.3a29.57,29.57,0,0,0,.23-4.45V72a9.92,9.92,0,0,0-3.15-7.25l-.71-.7c-.11,0-.35-.12-.46-.12a1.41,1.41,0,0,0-1.29,1.4"/><path class="cls-1" d="M122.43,85.57v.35a1.4,1.4,0,0,0,2.68.59h0c.12-.12.12-.24.12-.47h0a1.42,1.42,0,0,0-1.4-1.4h0a1.7,1.7,0,0,0-1.4.93Z"/><path class="cls-1" d="M131.43,95.51a4.37,4.37,0,0,1-4.33-4.21h0a1.29,1.29,0,0,1,2.58,0,1.75,1.75,0,1,0,3.5,0,1.29,1.29,0,0,1,2.58,0A4.55,4.55,0,0,1,131.43,95.51Z"/><path class="cls-1" d="M122.43,85.57v.35a1.4,1.4,0,0,0,2.68.59h0c.12-.12.12-.24.12-.47h0a1.42,1.42,0,0,0-1.4-1.4h0a1.7,1.7,0,0,0-1.4.93"/><path class="cls-1" d="M138.45,89h-.36a4.45,4.45,0,0,1-2.92-1.52,4.37,4.37,0,0,1-.93-3.15l2.45.23a2.8,2.8,0,0,0,.35,1.4,1.45,1.45,0,0,0,1.17.59,1.5,1.5,0,0,0,1.17-.47,1.94,1.94,0,0,0,.59-1.4l2.57.23a5.54,5.54,0,0,1-1.29,3A4,4,0,0,1,138.45,89Z"/><path class="cls-1" d="M118.92,95c0,.12-.12.24-.12.35v.24a1.42,1.42,0,0,0,1.4,1.4,1.28,1.28,0,0,0,1.17-.7c0-.12.12-.23.12-.47v-.23a1.26,1.26,0,0,0-1.4-1.29,1.12,1.12,0,0,0-1.17.7Z"/><path class="cls-1" d="M146.63,90.72a1.31,1.31,0,0,1-1.29-1.29V89.2c6.08-26.31-7.71-38.47-7.83-38.59a1.27,1.27,0,0,1,.12-1.76,1.21,1.21,0,0,1,1.4-.11c.58.58,15.2,13.21,8.65,41A1,1,0,0,1,146.63,90.72Z"/><path class="cls-1" d="M118.92,95c0,.12-.12.24-.12.35v.24a1.42,1.42,0,0,0,1.4,1.4,1.28,1.28,0,0,0,1.17-.7c0-.12.12-.23.12-.47v-.23a1.26,1.26,0,0,0-1.4-1.29,1.12,1.12,0,0,0-1.17.7"/><path class="cls-1" d="M143.71,92.47a4.29,4.29,0,0,1-4.33-4.21,1.23,1.23,0,0,1,2.46-.12v.24a1.87,1.87,0,0,0,3.74,0h0a1.29,1.29,0,1,1,2.57,0,4.38,4.38,0,0,1-4.44,4.09Z"/><path class="cls-1" d="M151.78,91.42h-.24a1.16,1.16,0,0,1-.93-1.29h0c5.49-28.18-6.2-40.34-6.32-40.34a1.13,1.13,0,0,1,0-1.64,1.15,1.15,0,0,1,1.64,0h0c.12.12,12.74,12.87,6.9,42.45A.94.94,0,0,1,151.78,91.42Z"/><path class="cls-1" d="M128.16,106.5a1.16,1.16,0,0,1-1.17-1.17,1,1,0,0,1,.46-.93c3.28-2.34,4.45-6.78,4.45-6.9a1.19,1.19,0,0,1,1.4-.82,1.21,1.21,0,0,1,.82,1.4c-.12.24-1.4,5.27-5.38,8.07C128.62,106.5,128.39,106.5,128.16,106.5Z"/><path class="cls-1" d="M134.94,107.91a1.58,1.58,0,0,1-.7-.24,1.11,1.11,0,0,1-.24-1.52c3.28-4.56,3.63-7.83,3.63-8a1.08,1.08,0,0,1,1.28-.93,1,1,0,0,1,.94,1.28c0,.12-.47,3.86-4.09,8.89A1,1,0,0,1,134.94,107.91Z"/><path class="cls-1" d="M142.42,106.62a1.44,1.44,0,0,1-.7-.12,1.15,1.15,0,0,1-.47-1.52h0c2.69-4.91,2.81-8.18,2.81-8.3a1.17,1.17,0,0,1,2.34,0c0,.12,0,3.86-3,9.36A.93.93,0,0,1,142.42,106.62Z"/><path class="cls-1" d="M122.07,110.13v-9.82a1.84,1.84,0,0,0-.35-1.06,3.76,3.76,0,0,0-2.33-2.1,2.56,2.56,0,0,0-.94-.12H116.7c-.24,0-.24,0-.24-.23V88.26a3.32,3.32,0,0,0-.82-2.1,3.53,3.53,0,0,0-1.87-1.29,3.14,3.14,0,0,0-1-.12h-1.17a.74.74,0,0,1-.7-.58c0-.12-.12-.24-.12-.35v-43a3.48,3.48,0,0,0-.11-1.06,1.67,1.67,0,0,0-.24-.7,3.92,3.92,0,0,0-1.75-2.1h0c-.24-.12-.35-.24-.59-.24a1.56,1.56,0,0,0-.7-.11,3.42,3.42,0,0,0-1,.11A3.49,3.49,0,0,0,104,38.56c-.12.12-.12.36-.23.47a4.47,4.47,0,0,0-.24,1.76.9.9,0,0,1-.82.93h-1.28a.92.92,0,0,1-.94-.93v-.12h0V40A3.8,3.8,0,0,0,99,37.4a3.39,3.39,0,0,0-2.57-.82c0,.11,0,.11.11.11s.12.12.24.12l.11.12.12.11a1.59,1.59,0,0,1,.12,1.88,1.68,1.68,0,0,1-.47.46h.12a.84.84,0,0,1,.82.94v.35a4,4,0,0,0,2.8,3.86,10.58,10.58,0,0,0,2.69.12.41.41,0,0,0,.35-.12,3.9,3.9,0,0,0,2.81-3.74h0v-.47a.89.89,0,0,1,.93-.7.75.75,0,0,1,.71.58V83.58a2.09,2.09,0,0,0,.11.82,3.89,3.89,0,0,0,1.64,2.69h.12a3.43,3.43,0,0,0,1.87.47h1a.85.85,0,0,1,.82.7c0,.12.12.35.12.47V96.8c0,.23,0,.23-.24.23h-1.75a3.22,3.22,0,0,0-2,.7,4.29,4.29,0,0,0-1.52,3.16V107a4.05,4.05,0,0,0,1.64,3.27,2.16,2.16,0,0,0,.93.47,1,1,0,0,0,.59.12,4.9,4.9,0,0,0,1.87,0h.11a3.62,3.62,0,0,0,2.34-1.29,4,4,0,0,0,.94-2.57v-6.66c0-.24,0-.24.23-.24h1.76a.92.92,0,0,1,.93.94v9.59a1.3,1.3,0,0,0,1.29,1.28H121a1.37,1.37,0,0,0,1.17-1v-.35A.92.92,0,0,1,122.07,110.13ZM113,107.79h-1.28a.83.83,0,0,1-.82-.94v-6a.91.91,0,0,1,.82-.94h2c.11,0,.11,0,.11.24v6.43A1,1,0,0,1,113,107.79Z"/><path id="SVGID-5" data-name="SVGID" class="cls-1" d="M134.12,84.75v.35c-.12.94-.24,1.88-.35,2.81a1.44,1.44,0,0,1,.7-.12,4,4,0,0,1,2,.59c.11-.94.35-1.87.47-2.81h0l.11-.47h0c0-.11,0-.11-.11-.23a1.34,1.34,0,0,0-1.64-.94,1.08,1.08,0,0,0-1.17.82"/><path class="cls-1" d="M133.65,87.68v.23c-.12.94-.35,1.75-.47,2.69h.59a2.47,2.47,0,0,1,1.64.82c.23-.94.35-1.87.58-2.81h0l.12-.47h0v-.23a1.27,1.27,0,0,0-1.41-1,1,1,0,0,0-1,.82"/><circle class="cls-1" cx="81.97" cy="53.53" r="1.29"/><path class="cls-1" d="M105.35,62.77h0V61.6A1.94,1.94,0,0,1,105.35,62.77Z"/><path class="cls-1" d="M105.35,86.16c0,.23.12.46.12.7h-.12Z"/><path class="cls-1" d="M26.54,20.79h0l.12,1.29H24.44V20.79h2.1Z"/><path class="cls-1" d="M28.41,20.79h0l.12,1.29H26.31V20.79h2.1Z"/><path class="cls-1" d="M30.4,20.79h0l.12,1.29H28.29V20.79H30.4Z"/><path class="cls-1" d="M32.39,20.79h0l.11,1.29H30.28V20.79h2.11Z"/><path class="cls-1" d="M34.37,20.79h0l.12,1.29H32.27V20.79h2.1Z"/><path class="cls-1" d="M36.25,20.79h0l.11,1.29H34.14V20.79h2.11Z"/><path class="cls-1" d="M38.23,20.79h0l.12,1.29H36.13V20.79h2.1Z"/><path class="cls-1" d="M40.22,20.79h0l.12,1.29H38.12V20.79h2.1Z"/><path class="cls-1" d="M42.21,20.79h0l.12,1.29H40.1V20.79h2.11Z"/><path class="cls-1" d="M44.08,20.79h0l.12,1.29H42V20.79h2.1Z"/><path class="cls-1" d="M51.91,22.08a2.52,2.52,0,0,1-2.1-.82A3.2,3.2,0,0,1,49,19a3.88,3.88,0,0,1,.12-1.17,5.27,5.27,0,0,1,.35-1.05h2a9.87,9.87,0,0,0-.24,1.87,1.46,1.46,0,0,0,.35,1,1.53,1.53,0,0,0,1.06.47h4.79V10.85h2.22v9.36h2v1.63a.12.12,0,0,1-.12.12H51.91Zm.82-5.26.82-.12a2,2,0,0,1-.47-.35,1,1,0,0,1,.24-1.52,1.71,1.71,0,0,1,1.17-.35,3.43,3.43,0,0,1,1.17.23l-.35.7a1.68,1.68,0,0,0-.82-.23.6.6,0,0,0-.47.23.86.86,0,0,0-.23.47.83.83,0,0,0,.46.7h.24a4.67,4.67,0,0,1,1.17-.12v.82a22.05,22.05,0,0,0-3,.35v-.81Z"/><path class="cls-1" d="M61.27,22.08h0l-.12-1.76h2.34V14.83h2.22v5.49h2.34V22a.12.12,0,0,1-.12.12Zm2-8.54a1,1,0,0,1-.7-.23,1,1,0,0,1-.24-.82,1.65,1.65,0,0,1,.24-.82c.11-.23.46-.23.7-.23a1,1,0,0,1,.7.23,1.65,1.65,0,0,1,.23.82,1.68,1.68,0,0,1-.23.82A.88.88,0,0,1,63.26,13.54Zm2.45,0a1,1,0,0,1-.7-.23,1,1,0,0,1-.23-.82,1.65,1.65,0,0,1,.23-.82c.12-.23.47-.23.7-.23a1,1,0,0,1,.7.23,1.65,1.65,0,0,1,.24.82,1.69,1.69,0,0,1-.24.82C66.3,13.54,66.06,13.54,65.71,13.54Z"/><path class="cls-1" d="M69.45,20.32a5.49,5.49,0,0,1-.35-2,5.79,5.79,0,0,1,.24-1.41,4.17,4.17,0,0,1,.58-1.28,5.87,5.87,0,0,1,1.52-.59,8.23,8.23,0,0,1,1.41-.23,3.44,3.44,0,0,1,1.87.46,3.18,3.18,0,0,1,1.75,3.05,6.3,6.3,0,0,1-.23,1.52c.23.23.35.35.58.35a1.86,1.86,0,0,0,.82.11h.23V22s0,.12-.11.12h-.12a4.12,4.12,0,0,1-1.29-.24,2.11,2.11,0,0,1-1-.82,2.75,2.75,0,0,1-1.29.71,6.15,6.15,0,0,1-1.52.23H67.7a.12.12,0,0,1-.12-.12V20.21h1.87ZM71,18.69a5.65,5.65,0,0,0,.36,1.75h.58a2.48,2.48,0,0,0,1.52-.58A2,2,0,0,0,74,18.45a2.28,2.28,0,0,0-.35-1.28,1.13,1.13,0,0,0-1-.47,3.15,3.15,0,0,0-1.4.35A6.74,6.74,0,0,0,71,18.69Z"/><path class="cls-1" d="M80,20.32h0L80.1,22a.12.12,0,0,1-.12.12H77.29a.12.12,0,0,1-.12-.12V20.32H80Z"/><path class="cls-1" d="M82.43,20.32h0L82.55,22a.12.12,0,0,1-.12.12H79.74a.11.11,0,0,1-.11-.12V20.32h2.8Z"/><path class="cls-1" d="M82.32,22.08h0l-.12-1.76h1.87V14.83h2.22V17.4a4.38,4.38,0,0,1,4-2.69,3.73,3.73,0,0,1,2.69.94,4.16,4.16,0,0,1,.93,2.92v1.75h2V22a.12.12,0,0,1-.12.12Zm9.35-1.76V18.57c0-.7-.12-1.29-.47-1.52a2,2,0,0,0-1.52-.47c-1.28,0-2.45.94-3.39,2.69v1.17h5.38Z"/><path class="cls-1" d="M95.65,22.08h0l-.12-1.76h2V14.83h2.22v7.25Zm2.8,3.74a1,1,0,0,1-.7-.23,1,1,0,0,1-.23-.82,1.76,1.76,0,0,1,.23-.82c.12-.24.47-.24.7-.24a1,1,0,0,1,.71.24,1.76,1.76,0,0,1,.23.82,1.8,1.8,0,0,1-.23.82A1.79,1.79,0,0,1,98.45,25.82Z"/><path class="cls-1" d="M105.82,24a3.45,3.45,0,0,1,.59-1.87,6.16,6.16,0,0,1,1.75-1.76,9.8,9.8,0,0,1-1.64-2.1,6.81,6.81,0,0,1-.82-2.46,8.1,8.1,0,0,1,2-1.17,7.74,7.74,0,0,1,2.11-.46,7.29,7.29,0,0,1,3.62.93,7.11,7.11,0,0,1-.58,2.81,8.34,8.34,0,0,1-1.76,2.22,4.29,4.29,0,0,0,1.29.12h1.75v1.63s0,.12-.11.12h-1.87a6.41,6.41,0,0,1-1.29-.23,6.74,6.74,0,0,1-1.4-.59,4.36,4.36,0,0,0-1.29,1.29,2.39,2.39,0,0,0-.35,1.28,1.07,1.07,0,0,0,.47.94,1.88,1.88,0,0,0,1.28.35,6.76,6.76,0,0,0,2.11-.35l.23,1.64a4.08,4.08,0,0,1-1.52.35,6,6,0,0,1-1.4.11,3.5,3.5,0,0,1-2.46-.81A3.1,3.1,0,0,1,105.82,24Zm2.11-7.37a7.11,7.11,0,0,0,1.75,2.81A4.9,4.9,0,0,0,111,18a4.64,4.64,0,0,0,.58-1.63c-.23-.12-.47-.12-.7-.24h-.94a3.14,3.14,0,0,0-1,.12A1.68,1.68,0,0,0,107.93,16.58Z"/><path class="cls-1" d="M116.7,20.32h0l.11,1.64s0,.12-.11.12H114a.12.12,0,0,1-.12-.12V20.32h2.81Z"/><path class="cls-1" d="M119.15,20.32h0l.12,1.64a.12.12,0,0,1-.12.12h-2.69a.12.12,0,0,1-.12-.12V20.32h2.81Z"/><path class="cls-1" d="M121.72,20.32h0l.12,1.64a.12.12,0,0,1-.12.12H119a.11.11,0,0,1-.11-.12V20.32h2.8Z"/><path class="cls-1" d="M124.18,20.32h0L124.3,22a.12.12,0,0,1-.12.12h-2.69a.12.12,0,0,1-.12-.12V20.32h2.81Z"/><path class="cls-1" d="M126.75,20.32h0l.12,1.64a.12.12,0,0,1-.12.12h-2.69A.11.11,0,0,1,124,22V20.32h2.8Z"/><path class="cls-1" d="M126.64,22.08h0l-.12-1.76h1.87V14.83h2.22V17.4a4.38,4.38,0,0,1,4-2.69,3.73,3.73,0,0,1,2.69.94,4.16,4.16,0,0,1,.93,2.92v3.51Zm9.23-1.76V18.57c0-.7-.11-1.29-.46-1.52a2,2,0,0,0-1.53-.47c-1.28,0-2.45.94-3.39,2.69v1.17h5.38Zm-2.34-6.78a1,1,0,0,1-.7-.23,1,1,0,0,1-.23-.82,1.76,1.76,0,0,1,.23-.82c.12-.23.47-.23.7-.23a1,1,0,0,1,.71.23,1.76,1.76,0,0,1,.23.82,1.8,1.8,0,0,1-.23.82C134.12,13.54,133.88,13.54,133.53,13.54Z"/><path class="cls-1" d="M145.11,20.79h0l.12,1.29H143V20.79h2.1Z"/><path class="cls-1" d="M147.1,20.79h0l.12,1.29H145V20.79h2.11Z"/><path class="cls-1" d="M149.09,20.79h0l.11,1.29H147V20.79h2.11Z"/><path class="cls-1" d="M151.07,20.79h0l.12,1.29H149V20.79h2.1Z"/><path class="cls-1" d="M153,20.79h0l.11,1.29h-2.22V20.79H153Z"/><path class="cls-1" d="M154.93,20.79h0l.12,1.29h-2.22V20.79h2.1Z"/><path class="cls-1" d="M156.92,20.79h0l.12,1.29h-2.22V20.79h2.1Z"/><path class="cls-1" d="M158.91,20.79h0l.12,1.29H156.8V20.79h2.11Z"/><path class="cls-1" d="M160.78,20.79h0l.12,1.29h-2.23V20.79h2.11Z"/><path class="cls-1" d="M121.37,132.11h-2.69v-8.89h-3v1.06h-.58a7.12,7.12,0,0,0-3.28.7,4.75,4.75,0,0,0-2.1,1.87,5.53,5.53,0,0,0-.7,2.81,4.9,4.9,0,0,0,1.64,3.85,6.62,6.62,0,0,0,4.56,1.41h6.43c.11,0,.11,0,.11-.12l-.35-2.69Zm-5.73,0h-.58a3.34,3.34,0,0,1-2.22-.7,3,3,0,0,1,0-4.09,3.13,3.13,0,0,1,2.22-.7h.58Zm-.93-12.86a1.77,1.77,0,0,0-2.11,0,1.56,1.56,0,0,0-.35,1.17,1.43,1.43,0,0,0,.35,1,1.47,1.47,0,0,0,1.06.35,1.66,1.66,0,0,0,1-.35,1.56,1.56,0,0,0,.35-1.17A1.43,1.43,0,0,0,114.71,119.25Zm3.62,0a1.75,1.75,0,0,0-2.1,0,1.52,1.52,0,0,0-.35,1.17,1.39,1.39,0,0,0,.35,1,1.43,1.43,0,0,0,1,.35,1.64,1.64,0,0,0,1-.35,1.39,1.39,0,0,0,.35-1A1.52,1.52,0,0,0,118.33,119.25Z"/><path class="cls-1" d="M140.55,132.11h-2.81v-2.57a6.23,6.23,0,0,0-1.28-4.21,5.2,5.2,0,0,0-3.86-1.4c-2.57,0-4.44,1.28-5.73,3.86V124h-3.16v8h-2.45c-.12,0-.12,0-.12.12v2.34c0,.12,0,.12.12.12h19.29c.12,0,.12,0,.12-.12l-.12-2.34Zm-6,0h-7.84v-1.64c1.41-2.57,3-4,4.91-4a3.13,3.13,0,0,1,2.22.7,3.17,3.17,0,0,1,.71,2.22Z"/><path class="cls-1" d="M148.85,132.11h-2.8v-8h-3.16v8H140.2c-.12,0-.12,0-.12.12v2.34c0,.11,0,.11.12.11h8.54c.11,0,.11,0,.11-.11v-2.46Zm-3.39-12.28a1.75,1.75,0,0,0-2.1,0A1.55,1.55,0,0,0,143,121a1.24,1.24,0,0,0,1.4,1.41,1.64,1.64,0,0,0,1.05-.35,1.43,1.43,0,0,0,.35-1.06A1.55,1.55,0,0,0,145.46,119.83Z"/><path class="cls-1" d="M160.08,126.62a5.38,5.38,0,0,0-1.87-1.76,4.9,4.9,0,0,0-2.58-.58,6.27,6.27,0,0,0-2,.35,7.69,7.69,0,0,0-2.23.93,6.88,6.88,0,0,0-.81,1.87,6.38,6.38,0,0,0-.35,2,8.22,8.22,0,0,0,.58,2.93H148.5c-.12,0-.12,0-.12.11v2.34c0,.12,0,.12.12.12h6.43a6.1,6.1,0,0,0,2.93-.7,4.84,4.84,0,0,0,2.8-4.68A4.33,4.33,0,0,0,160.08,126.62Zm-3.39,4.67a2.82,2.82,0,0,1-2.11.82h-.82a6.87,6.87,0,0,1-.46-2.45,7.36,7.36,0,0,1,.35-2.34,4.3,4.3,0,0,1,2-.59,1.69,1.69,0,0,1,1.41.7,2.89,2.89,0,0,1-.35,3.86Z"/><polygon class="cls-1" points="92.61 136.56 78.34 136.56 78.34 133.05 88.98 133.05 88.87 118.9 92.37 118.9 92.61 136.56"/><rect class="cls-1" x="84.19" y="122.29" width="3.51" height="14.85" transform="translate(-55.79 65.5) rotate(-32.1)"/><polygon class="cls-1" points="17.77 139.59 10.99 132.93 13.68 130.12 17.77 134.1 27.59 124.04 30.4 126.73 17.77 139.59"/><rect class="cls-1" x="95.88" y="119.02" width="3.27" height="17.66"/><polygon class="cls-1" points="70.62 137.14 65.6 128.37 60.33 136.91 55.54 128.95 50.16 136.91 44.08 126.97 44.08 126.97 38 115.86 67.12 110.25 61.5 118.43 58.7 116.44 59.52 115.27 43.26 118.31 47.12 125.21 50.28 130.47 55.77 122.52 60.33 130.12 65.71 121.59 70.74 130.36 74.6 124.04 77.52 125.91 70.62 137.14"/><polygon class="cls-1" points="33.44 136.79 33.79 107.91 37.3 108.02 37.06 127.67 43.38 120.77 45.95 123.11 33.44 136.79"/></svg>