<?xml version="1.0"?>
<svg xmlns="http://www.w3.org/2000/svg" id="Capa_1" enable-background="new 0 0 512 512" height="512px" viewBox="0 0 512 512" width="512px"><g><path d="m83.554 160.176c44.16 0 80.088-35.928 80.088-80.088s-35.928-80.088-80.088-80.088-80.088 35.927-80.088 80.088 35.928 80.088 80.088 80.088zm0-145.176c35.89 0 65.088 29.198 65.088 65.088s-29.198 65.088-65.088 65.088-65.088-29.199-65.088-65.088 29.198-65.088 65.088-65.088z" data-original="#000000" class="active-path" data-old_color="#000000" fill="#04458F"/><path d="m77.146 243.955c0-11.581-9.422-21.003-21.003-21.003s-21.003 9.422-21.003 21.003c0 11.582 9.422 21.003 21.003 21.003s21.003-9.421 21.003-21.003zm-27.005 0c0-3.31 2.693-6.003 6.003-6.003s6.003 2.693 6.003 6.003-2.693 6.003-6.003 6.003-6.003-2.693-6.003-6.003z" data-original="#000000" class="active-path" data-old_color="#000000" fill="#04458F"/><path d="m131.967 243.955c0-11.581-9.422-21.003-21.003-21.003s-21.003 9.422-21.003 21.003c0 11.582 9.422 21.003 21.003 21.003s21.003-9.421 21.003-21.003zm-21.003 6.003c-3.31 0-6.003-2.693-6.003-6.003s2.693-6.003 6.003-6.003 6.003 2.693 6.003 6.003-2.694 6.003-6.003 6.003z" data-original="#000000" class="active-path" data-old_color="#000000" fill="#04458F"/><path d="m83.554 512c44.16 0 80.088-35.927 80.088-80.088s-35.928-80.088-80.088-80.088-80.088 35.927-80.088 80.088 35.928 80.088 80.088 80.088zm0-145.176c35.89 0 65.088 29.199 65.088 65.088s-29.199 65.088-65.088 65.088-65.088-29.198-65.088-65.088 29.198-65.088 65.088-65.088z" data-original="#000000" class="active-path" data-old_color="#000000" fill="#04458F"/><path d="m83.554 135.198c22.25 0 42.197-13.26 50.817-33.782 3.264-7.77-2.48-16.362-10.9-16.362h-79.834c-8.428 0-14.162 8.597-10.9 16.363 8.619 20.521 28.567 33.781 50.817 33.781zm34.792-35.144c-7.09 12.379-20.268 20.145-34.792 20.145s-27.702-7.766-34.792-20.145z" data-original="#000000" class="active-path" data-old_color="#000000" fill="#04458F"/><path d="m43.724 70.464c4.143 0 7.5-3.358 7.5-7.5 0-3.422 2.783-6.206 6.205-6.206s6.206 2.784 6.206 6.206c0 4.142 3.357 7.5 7.5 7.5s7.5-3.358 7.5-7.5c0-11.693-9.513-21.206-21.206-21.206-11.692 0-21.205 9.513-21.205 21.206 0 4.142 3.357 7.5 7.5 7.5z" data-original="#000000" class="active-path" data-old_color="#000000" fill="#04458F"/><path d="m95.973 70.464c4.143 0 7.5-3.358 7.5-7.5 0-3.422 2.784-6.206 6.206-6.206s6.206 2.784 6.206 6.206c0 4.142 3.357 7.5 7.5 7.5s7.5-3.358 7.5-7.5c0-11.693-9.513-21.206-21.206-21.206s-21.206 9.513-21.206 21.206c0 4.142 3.357 7.5 7.5 7.5z" data-original="#000000" class="active-path" data-old_color="#000000" fill="#04458F"/><path d="m43.724 429.141c4.143 0 7.5-3.358 7.5-7.5 0-3.422 2.783-6.206 6.205-6.206s6.206 2.784 6.206 6.206c0 4.142 3.357 7.5 7.5 7.5s7.5-3.358 7.5-7.5c0-11.693-9.513-21.206-21.206-21.206-11.692 0-21.205 9.513-21.205 21.206 0 4.142 3.357 7.5 7.5 7.5z" data-original="#000000" class="active-path" data-old_color="#000000" fill="#04458F"/><path d="m95.973 429.141c4.143 0 7.5-3.358 7.5-7.5 0-3.422 2.784-6.206 6.206-6.206s6.206 2.784 6.206 6.206c0 4.142 3.357 7.5 7.5 7.5s7.5-3.358 7.5-7.5c0-11.693-9.513-21.206-21.206-21.206s-21.206 9.513-21.206 21.206c0 4.142 3.357 7.5 7.5 7.5z" data-original="#000000" class="active-path" data-old_color="#000000" fill="#04458F"/><path d="m44.067 470.333c2.984 2.872 7.732 2.782 10.604-.202 15.772-16.385 41.938-16.44 57.764 0 2.87 2.983 7.618 3.076 10.604.202 2.984-2.873 3.075-7.621.202-10.604-21.669-22.512-57.635-22.588-79.377 0-2.872 2.983-2.781 7.731.203 10.604z" data-original="#000000" class="active-path" data-old_color="#000000" fill="#04458F"/><path d="m49.417 292.705h68.273c4.143 0 7.5-3.358 7.5-7.5s-3.357-7.5-7.5-7.5h-68.273c-4.143 0-7.5 3.358-7.5 7.5s3.357 7.5 7.5 7.5z" data-original="#000000" class="active-path" data-old_color="#000000" fill="#04458F"/><path d="m197.235 120.559h295.684c8.61 0 15.615-7.005 15.615-15.615v-49.712c0-8.61-7.005-15.615-15.615-15.615-4.849 0-290.826 0-295.684 0-8.61 0-15.616 7.005-15.616 15.615v49.711c0 8.611 7.006 15.616 15.616 15.616zm230.293-65.942h65.391c.339 0 .615.276.615.615v49.711c0 .339-.276.615-.615.615h-65.391zm-230.909.615c0-.339.276-.615.616-.615h215.293v50.942h-215.293c-.34 0-.616-.276-.616-.615z" data-original="#000000" class="active-path" data-old_color="#000000" fill="#04458F"/><path d="m181.619 280.855c0 8.61 7.006 15.616 15.616 15.616h295.684c8.61 0 15.615-7.005 15.615-15.616v-49.711c0-8.61-7.005-15.616-15.615-15.616-12.975 0-282.709 0-295.684 0-8.61 0-15.616 7.005-15.616 15.616zm170.958-50.326h140.342c.339 0 .615.276.615.616v49.711c0 .339-.276.616-.615.616h-140.342zm-155.958.616c0-.339.276-.616.616-.616h140.342v50.942h-140.342c-.34 0-.616-.276-.616-.616z" data-original="#000000" class="active-path" data-old_color="#000000" fill="#04458F"/><path d="m83.554 336.088c36.905 0 68.869-24.996 77.731-60.786.995-4.021-1.457-8.087-5.478-9.083-4.021-.998-8.088 1.458-9.083 5.478-7.201 29.081-33.178 49.391-63.171 49.391-35.89 0-65.088-29.199-65.088-65.088s29.198-65.088 65.088-65.088c29.993 0 55.97 20.31 63.171 49.391.995 4.021 5.062 6.472 9.083 5.478 4.021-.996 6.473-5.063 5.478-9.083-8.862-35.79-40.826-60.785-77.731-60.785-44.16 0-80.088 35.927-80.088 80.088s35.928 80.087 80.088 80.087z" data-original="#000000" class="active-path" data-old_color="#000000" fill="#04458F"/><path d="m181.619 407.057v49.711c0 8.61 7.006 15.616 15.616 15.616h295.684c8.61 0 15.615-7.005 15.615-15.616v-49.711c0-8.61-7.005-15.615-15.615-15.615h-130.342c-4.143 0-7.5 3.358-7.5 7.5s3.357 7.5 7.5 7.5h130.342c.339 0 .615.276.615.615v49.711c0 .339-.276.616-.615.616h-218.32v-50.942h52.979c4.143 0 7.5-3.358 7.5-7.5s-3.357-7.5-7.5-7.5c-3.354 0-125.111 0-130.342 0-8.609-.001-15.617 7.002-15.617 15.615zm15 0c0-.339.276-.616.616-.616h62.363v50.942h-62.363c-.34 0-.616-.276-.616-.616z" data-original="#000000" class="active-path" data-old_color="#000000" fill="#04458F"/></g> </svg>
