<svg id="Layer_1" data-name="Layer 1" xmlns="http://www.w3.org/2000/svg" xmlns:xlink="http://www.w3.org/1999/xlink" viewBox="0 0 86.01 130.08"><defs><style>.cls-1{fill:#369;stroke:#369;stroke-width:0.25px;}.cls-1,.cls-2,.cls-3{stroke-miterlimit:10;}.cls-2,.cls-3{fill:none;}.cls-2{stroke-width:3px;stroke:url(#linear-gradient);}.cls-3{stroke-width:7px;stroke:url(#linear-gradient-2);}.cls-4{fill:url(#linear-gradient-3);}.cls-5{fill:url(#linear-gradient-4);}</style><linearGradient id="linear-gradient" x1="4.81" y1="35.44" x2="82.8" y2="35.44" gradientUnits="userSpaceOnUse"><stop offset="0" stop-color="#ff1597"/><stop offset="0.11" stop-color="#e22299"/><stop offset="0.57" stop-color="#695ba0"/><stop offset="0.77" stop-color="#3971a3"/><stop offset="0.82" stop-color="#3b75a7"/><stop offset="0.87" stop-color="#4180b1"/><stop offset="0.91" stop-color="#4a92c4"/><stop offset="0.96" stop-color="#58acdd"/><stop offset="1" stop-color="#69cefe"/><stop offset="1" stop-color="#6acfff"/></linearGradient><linearGradient id="linear-gradient-2" x1="6.19" y1="25.88" x2="81.22" y2="25.88" xlink:href="#linear-gradient"/><linearGradient id="linear-gradient-3" x1="16.55" y1="48.62" x2="31.89" y2="48.62" xlink:href="#linear-gradient"/><linearGradient id="linear-gradient-4" x1="53.35" y1="46.4" x2="73.25" y2="46.4" xlink:href="#linear-gradient"/></defs><path class="cls-1" d="M12.06,104.35v.89H10.93a1.58,1.58,0,0,1-1.08-.46,1.81,1.81,0,0,1-.56-1.19,5.64,5.64,0,0,0-.36-1.78,1.47,1.47,0,0,0-1.4-.9,1.53,1.53,0,0,0-1.18.49,1.75,1.75,0,0,0-.46,1.22h2.5l0,1.73a3.89,3.89,0,0,1-1.1,2.78,3.45,3.45,0,0,1-2.62,1.17,3.46,3.46,0,0,1-2.61-1.17,3.9,3.9,0,0,1-1.1-2.8c0-.35,0-.91-.05-1.71h1c0,.3,0,.87,0,1.73a3,3,0,0,0,.81,2.1,2.65,2.65,0,0,0,2,.86,2.57,2.57,0,0,0,2-.88,3,3,0,0,0,.81-2.11l0-.8H4.86c0-2.35.9-3.53,2.68-3.53a2.25,2.25,0,0,1,2.21,1.4,6.67,6.67,0,0,1,.47,2.07,1,1,0,0,0,.88.89Zm-7.59,6.07h-1v-1.09h1Zm1.73,0h-1v-1.09h1Z"/><path class="cls-1" d="M15.22,103.42a1.7,1.7,0,0,1-1.9,1.82H11.48v-.89H13.3a.89.89,0,0,0,1-1c0,.13,0-1,0-3.26h1C15.21,102.34,15.22,103.44,15.22,103.42Zm0-4.41h-1V97.93h1Z"/><path class="cls-1" d="M21.6,103.94a4.55,4.55,0,0,1-1,3A3.71,3.71,0,0,1,18,108.3l-.42-.89a2.86,2.86,0,0,0,1.83-.6,3.21,3.21,0,0,0,1.07-1.57H19.19a1.92,1.92,0,0,1-1.57-.73,2.67,2.67,0,0,1-.58-1.78,2.71,2.71,0,0,1,.87-2.07,2.22,2.22,0,0,1,1.5-.56,2,2,0,0,1,2.19,2.21Zm-1,.41,0-2.34c0-.83-.38-1.25-1.09-1.25a1.15,1.15,0,0,0-1,.48,2.11,2.11,0,0,0-.47,1.42c0,.94.52,1.69,1.35,1.69Z"/><path class="cls-1" d="M28,104.35c0,.15,0,.46,0,.89H26.72a1.45,1.45,0,0,1-1.3-.87,4.25,4.25,0,0,1-1.11,2.72,3.67,3.67,0,0,1-2.52,1.19,9.27,9.27,0,0,1-.42-.87,2.91,2.91,0,0,0,2.24-1,3.43,3.43,0,0,0,.84-2.36v-4h1l0,2.79a1.47,1.47,0,0,0,.43,1,1.12,1.12,0,0,0,.77.37Z"/><path class="cls-1" d="M33.62,105.24H32.37a1.33,1.33,0,0,1-1.06-.53,1.77,1.77,0,0,1-.35-.6,1.94,1.94,0,0,1-1.75,1.13H27.65v-.89h.49l.8,0a1.32,1.32,0,0,0,.73-.21.85.85,0,0,0,.42-.76c0,.23,0-.85,0-3.23h1c0,.9,0,1.78,0,2.66a1.76,1.76,0,0,0,.44,1.18,1.06,1.06,0,0,0,.77.38h1.34v.89ZM30.2,99h-1V97.92h1Zm1.73,0H30.88V97.92h1.05Z"/><path class="cls-1" d="M43,104.35v.89H33.16v-.89h6.36a3.73,3.73,0,0,0-.94-2.44,2.76,2.76,0,0,0-2.12-.94,3.87,3.87,0,0,0-1.93.57l-.45-.81.07,0,3.35-3.48.64.63-2.43,2.36a6,6,0,0,1,.92-.08c2,0,3.19,1.06,3.68,3.21a7.62,7.62,0,0,1,.16,1Z"/><path class="cls-1" d="M45.55,103.42a1.7,1.7,0,0,1-1.91,1.82h-.91v-.89h.9a.89.89,0,0,0,.95-1q0-1.32,0-3.6c0-1.75,0-3,0-3.61h1c0,.64,0,1.85,0,3.63C45.53,101.32,45.55,102.52,45.55,103.42Z"/><path class="cls-1" d="M51.32,102.5a2.35,2.35,0,0,1-1,2,4.18,4.18,0,0,1-2.6.76H47v-.91h.61a3.57,3.57,0,0,0,1.71-.38,1.75,1.75,0,0,0,1-1.65c0-.2,0-2.24-.07-6.12h1Zm-2.62.92a1.51,1.51,0,0,1-1,.2c0-1.24,0-3.73-.07-7.47h1Z"/><path class="cls-1" d="M54.17,105.24h-1l-.07-9.06h1Z"/><path class="cls-1" d="M65.33,105.24H64.27c-1.17,0-1.91-.85-2.23-2.58H61.1a1.88,1.88,0,0,0-1.37.58,1.91,1.91,0,0,0,0,2.74,1.88,1.88,0,0,0,1.37.58H63v1H61a2.84,2.84,0,0,1-2.07-4.79,2.69,2.69,0,0,1,1.86-.92,2.1,2.1,0,0,1-.53-1.49,2,2,0,0,1,.63-1.48,1.91,1.91,0,0,1,1.3-.54,2,2,0,0,1,1.61.75l-.52.54a1.69,1.69,0,0,0-.94-.39c-.74,0-1.1.42-1.09,1.25a1.26,1.26,0,0,0,1.29,1.33h1.22v.89h-.86a3.35,3.35,0,0,0,.26.87,1.12,1.12,0,0,0,1,.82h1.15v.89Z"/><path class="cls-1" d="M70.62,104a1.13,1.13,0,0,1-1.26,1.23H65.08v-.89h4c.37,0,.56-.21.58-.65v-.6H68.2a2,2,0,0,1-1.56-.74,2.68,2.68,0,0,1-.57-1.78,2.73,2.73,0,0,1,.87-2.06,2.17,2.17,0,0,1,1.47-.58,2,2,0,0,1,2.21,2.23Zm-1-1.81V99.86c0-.82-.38-1.24-1.09-1.24a1.23,1.23,0,0,0-1,.46,2.35,2.35,0,0,0-.46,1.43,1.48,1.48,0,0,0,1.34,1.69ZM68.91,97h-1v-1.1h1Z"/><path class="cls-1" d="M79.71,105.24H72.3l.29-.89h3.83a4.55,4.55,0,0,0-.69-2.41c-.39-.63-.81-.94-1.27-.94v-.87a2.25,2.25,0,0,1,1.83,1,6,6,0,0,1,1,3.18h2.38Z"/><path class="cls-1" d="M82.25,103.42a1.7,1.7,0,0,1-1.9,1.82h-.91v-.89h.9a.89.89,0,0,0,1-1c0-.88,0-2.08,0-3.6,0-1.75,0-3,0-3.61h1q0,1,0,3.63C82.24,101.32,82.25,102.52,82.25,103.42Z"/><path class="cls-1" d="M85.11,105.24h-1l-.07-9.06h1Z"/><rect class="cls-2" x="6.31" y="10.23" width="74.99" height="50.41" rx="9.36"/><line class="cls-3" x1="6.19" y1="25.88" x2="81.22" y2="25.88"/><path class="cls-4" d="M17.43,50.84H31a.89.89,0,0,0,.89-.88V47.28A.88.88,0,0,0,31,46.4H17.43a.87.87,0,0,0-.88.88V50A.88.88,0,0,0,17.43,50.84Z"/><path class="cls-5" d="M59.55,40.2a6.12,6.12,0,0,1,3.75,1.27,6.19,6.19,0,1,1,0,9.86A6.2,6.2,0,1,1,59.55,40.2Z"/></svg>