<svg id="Layer_1" data-name="Layer 1" xmlns="http://www.w3.org/2000/svg" xmlns:xlink="http://www.w3.org/1999/xlink" viewBox="0 0 87.31 130.56"><defs><style>.cls-1{fill:url(#linear-gradient);}.cls-2{fill:url(#linear-gradient-2);}.cls-3{fill:url(#linear-gradient-3);}.cls-4{fill:url(#linear-gradient-4);}.cls-5{fill:#369;stroke:#369;stroke-miterlimit:10;stroke-width:0.25px;}</style><linearGradient id="linear-gradient" x1="13.16" y1="64.06" x2="74.14" y2="-1.33" gradientUnits="userSpaceOnUse"><stop offset="0" stop-color="#ff1597"/><stop offset="0.08" stop-color="#e22299"/><stop offset="0.41" stop-color="#695ba0"/><stop offset="0.56" stop-color="#3971a3"/><stop offset="0.66" stop-color="#3b75a7"/><stop offset="0.75" stop-color="#4180b1"/><stop offset="0.83" stop-color="#4a92c4"/><stop offset="0.92" stop-color="#58acdd"/><stop offset="1" stop-color="#69cefe"/><stop offset="1" stop-color="#6acfff"/></linearGradient><linearGradient id="linear-gradient-2" x1="46.45" y1="48.91" x2="70.04" y2="23.61" xlink:href="#linear-gradient"/><linearGradient id="linear-gradient-3" x1="19.81" y1="38.98" x2="34.04" y2="23.72" xlink:href="#linear-gradient"/><linearGradient id="linear-gradient-4" x1="12.52" y1="33.79" x2="17.22" y2="28.74" xlink:href="#linear-gradient"/></defs><g id="layer101"><path class="cls-1" d="M10.57,59.83a8.11,8.11,0,0,1-6.45-5.91c-.2-.78-.2-1-.2-22.55s0-21.77.2-22.55a10.33,10.33,0,0,1,.67-1.73A5.75,5.75,0,0,1,6.21,5.2,7.27,7.27,0,0,1,8.9,3.34c1.4-.57-.85-.53,35.05-.51L77,2.86l.7.24A8.07,8.07,0,0,1,82.6,7.32c.86,1.76.79-.38.79,24.15V53.21l-.28.88a8.07,8.07,0,0,1-2.37,3.79,9.46,9.46,0,0,1-3.32,1.82c-.57.17-2.46.18-33.49.19C25.84,59.9,10.83,59.87,10.57,59.83ZM76.62,56.6a4.79,4.79,0,0,0,3.52-3.83q.1-.65.11-21.5c0-17.72,0-20.95-.15-21.53a4.78,4.78,0,0,0-3.37-3.61C76.3,6,70.92,6,43.62,6,11.49,6,11,6,10.38,6.19a4.66,4.66,0,0,0-3.27,4c-.07.56-.1,8-.08,21.75l0,20.89.21.62a4.86,4.86,0,0,0,3.35,3.17c.44.12,5.38.14,33,.14C72.41,56.75,76.09,56.73,76.62,56.6Z"/><path class="cls-2" d="M44.43,47c-.66-.45-.75-.66-.78-2a7.12,7.12,0,0,1,.68-3.62c1-2,2.41-3.1,6-4.53,1.82-.72,2-.8,2.45-1.2l.35-.31v-.9c0-.71,0-.94-.19-1.15A6.65,6.65,0,0,1,52,31.37c-.18-.61-.27-.77-.51-.91a3.32,3.32,0,0,1-1-2,3.13,3.13,0,0,1,.16-2.07c.18-.39.18-.45,0-1.19a16.06,16.06,0,0,1,0-4.8,6.49,6.49,0,0,1,5-4.67,6.61,6.61,0,0,1,5.36.66A5,5,0,0,0,62.2,17a5.54,5.54,0,0,1,2.13,1.36,6.37,6.37,0,0,1,1.15,2.61,10.29,10.29,0,0,1-.19,4L65,26l.21.47c.52,1.19,0,3.65-.93,4-.22.09-.29.22-.39.72a7.06,7.06,0,0,1-1,2.24c-.19.2-.2.29-.13,1.08.1,1.22.15,1.26,2.82,2.33.84.33,1.85.77,2.23,1,3.14,1.57,4.54,3.87,4.43,7.25,0,1.24-.13,1.47-.77,1.91l-.33.22H44.76ZM69,43.55c-.21-1.39-1.22-2.38-3.35-3.26l-2.18-.92a6.49,6.49,0,0,1-3.49-2.65,4.85,4.85,0,0,1-.32-2.07c-.11-1.95,0-2.32.53-2.91a4.74,4.74,0,0,0,1-2.21,1.91,1.91,0,0,1,.93-1.33c.22-.17.2-.56,0-.89s-.34-.88-.06-1.91c.67-2.52.58-4.52-.25-5.22a2.22,2.22,0,0,0-.79-.34,2,2,0,0,1-1.23-.67c-.23-.61-2.86-.7-4.13-.13a3.38,3.38,0,0,0-1.79,2.46A11.81,11.81,0,0,0,53.84,25c.28,1.43.29,1.89,0,2.29-.34.58-.29.86.22,1.17a2.54,2.54,0,0,1,.76,1.52,5,5,0,0,0,.8,1.74c.06,0,.22.19.37.41.27.41.27.41.27,2.18V36l-.32.64c-.61,1.24-1.67,2-4.4,3.09a13.89,13.89,0,0,0-2.91,1.36A3.24,3.24,0,0,0,47,43.55l-.07.46H69Z"/><path class="cls-3" d="M20.76,39.23a3.82,3.82,0,0,1-1.73-1,4.31,4.31,0,0,1-.57-.91l-.25-.55V31.42c0-4.94,0-5.41.17-5.89A3.42,3.42,0,0,1,20,23.74l.56-.28H33.33l.5.25a3.55,3.55,0,0,1,1.55,1.54l.24.5V37l-.27.51a3.89,3.89,0,0,1-1.75,1.59c-.43.17-.94.19-6.44.2C23.88,39.3,21,39.27,20.76,39.23Zm11.73-7.86V26.59H21.34V31.3c0,2.6,0,4.75.07,4.78s2.54.07,5.57.07h5.51Z"/><path class="cls-4" d="M12.58,33.71l-2.34-2.34L12.61,29,15,26.64v4.71c0,2.58,0,4.7,0,4.7Z"/></g><path class="cls-5" d="M11.36,105.72H9.94a1.32,1.32,0,0,1-1.48-1.54H6.4c-1.07,0-1.6-.67-1.6-2a2.76,2.76,0,0,1,.69-2,1.77,1.77,0,0,1,1.33-.57,1.85,1.85,0,0,1,1.54.8h0V99.7h1v4.43c0,.46.2.7.59.7h1.42Zm-3-2.41v-2.07a1.51,1.51,0,0,0-1.32-.87,1,1,0,0,0-.87.47,2.18,2.18,0,0,0-.39,1.4,1.76,1.76,0,0,0,.11.7.66.66,0,0,0,.67.37ZM6.87,98.45h-1V97.36h1Zm1.71,0h-1V97.36h1Z"/><path class="cls-5" d="M17.08,105.72H15.84a1.36,1.36,0,0,1-1.07-.53,1.68,1.68,0,0,1-.35-.6,1.91,1.91,0,0,1-1.75,1.13H10.84v-.89h1.55a1.35,1.35,0,0,0,.73-.21.89.89,0,0,0,.43-.77c0,.22,0-.86,0-3.24h1c0,.9,0,1.78,0,2.66a1.76,1.76,0,0,0,.44,1.18,1.07,1.07,0,0,0,.77.38h1.34v.89Zm-3.27,2.08H12.75v-1.08h1.06Zm1.7,0h-1v-1.08h1Z"/><path class="cls-5" d="M24,105.72H16.74v-.89H23a3.75,3.75,0,0,0-.94-2.44,2.76,2.76,0,0,0-2.12-.94A3.78,3.78,0,0,0,18,102l-.45-.82.07,0L21,97.7l.64.63-2.43,2.37a5.36,5.36,0,0,1,1-.09,3.29,3.29,0,0,1,3,1.57A6.44,6.44,0,0,1,24,105.72Z"/><path class="cls-5" d="M33.07,105.72H25.66l.3-.89h3.82a4.55,4.55,0,0,0-.69-2.41c-.39-.63-.81-.94-1.27-.94v-.87a2.24,2.24,0,0,1,1.83,1,6,6,0,0,1,1,3.18h2.38ZM29,99.49h-1V98.41h1Z"/><path class="cls-5" d="M35.62,103.9a1.71,1.71,0,0,1-1.91,1.82H32.8v-.89h.9a.89.89,0,0,0,.95-1c0-.89,0-2.09,0-3.61,0-1.75,0-3,0-3.61h1q0,1,0,3.63C35.6,101.8,35.62,103,35.62,103.9Z"/><path class="cls-5" d="M38.47,105.72h-1l-.07-9.06h1Z"/><path class="cls-5" d="M49,105.72H47.59a1.33,1.33,0,0,1-1.49-1.54H44c-1.06,0-1.59-.67-1.59-2a2.76,2.76,0,0,1,.68-2,1.8,1.8,0,0,1,1.33-.57,1.85,1.85,0,0,1,1.54.8h0V99.7h1v4.43c0,.46.2.7.59.7H49Zm-3-2.41,0-2.07a1.5,1.5,0,0,0-1.31-.87,1,1,0,0,0-.87.47,2.12,2.12,0,0,0-.39,1.4,1.76,1.76,0,0,0,.11.7.65.65,0,0,0,.67.37Zm-1.53-4.86h-1V97.36h1Zm1.71,0h-1V97.36h1Z"/><path class="cls-5" d="M54.28,104.49A1.13,1.13,0,0,1,53,105.72H48.75v-.89h4c.37,0,.56-.21.58-.65v-.6h-1.5a2,2,0,0,1-1.56-.74,2.61,2.61,0,0,1-.57-1.78A2.74,2.74,0,0,1,50.6,99a2.16,2.16,0,0,1,1.47-.57,2,2,0,0,1,2.21,2.22Zm-2.55-7h-1V96.37h1Zm1.57,5.22v-2.34c0-.82-.38-1.24-1.1-1.24a1.2,1.2,0,0,0-1,.46,2.44,2.44,0,0,0-.47,1.43,1.5,1.5,0,0,0,1.35,1.69Zm.15-5.22h-1V96.37h1Z"/><path class="cls-5" d="M58.81,105.72h-1.2a1.37,1.37,0,0,1-1-.4,1.67,1.67,0,0,1-.48-1.25l0-7.41h1l0,7.28c0,.52.22.82.65.89h1.05Z"/><path class="cls-5" d="M70.31,105.72H58.57v-.89h1.54l0-7.41h1l-.11,6.24a5.27,5.27,0,0,1,2.28-2.59,3.48,3.48,0,0,1,2-.47c1.9.15,2.91,1.55,3,4.23h2.08Zm-3.08-.91a5.65,5.65,0,0,0-.25-1.64c-.32-1.1-.93-1.68-1.79-1.72q-2.59-.15-4.09,3.36Z"/><path class="cls-5" d="M76,105.72H74.7a1.33,1.33,0,0,1-1.06-.53,1.68,1.68,0,0,1-.35-.6,1.92,1.92,0,0,1-1.75,1.13H70v-.89h1.29a1.37,1.37,0,0,0,.72-.21.89.89,0,0,0,.43-.77c0,.22,0-.86,0-3.24h1c0,.9,0,1.78,0,2.66a1.76,1.76,0,0,0,.44,1.18,1.06,1.06,0,0,0,.77.38H76v.89Zm-2.49,2.06h-1V106.7h1Z"/><path class="cls-5" d="M78.48,103.9a1.7,1.7,0,0,1-1.9,1.82h-.91v-.89h.89a.89.89,0,0,0,1-1c0-.89,0-2.09,0-3.61,0-1.75,0-3,0-3.61h1q0,1,0,3.63C78.47,101.8,78.48,103,78.48,103.9Z"/><path class="cls-5" d="M81.34,105.72h-1l-.07-9.06h1Z"/></svg>