<svg id="Layer_1" data-name="Layer 1" xmlns="http://www.w3.org/2000/svg" xmlns:xlink="http://www.w3.org/1999/xlink" viewBox="0 0 86.01 130.08"><defs><style>.cls-1{fill:url(#linear-gradient);}.cls-2{fill:url(#linear-gradient-2);}.cls-3{fill:url(#linear-gradient-3);}.cls-4{fill:url(#linear-gradient-4);}.cls-5{fill:url(#linear-gradient-5);}.cls-6{fill:url(#linear-gradient-6);}.cls-7{fill:none;stroke-linecap:round;stroke-linejoin:round;stroke-width:3px;stroke:url(#linear-gradient-7);}.cls-8{fill:#369;stroke:#369;stroke-miterlimit:10;stroke-width:0.25px;}</style><linearGradient id="linear-gradient" x1="9.49" y1="64.34" x2="52.84" y2="16.2" gradientUnits="userSpaceOnUse"><stop offset="0" stop-color="#ff1597"/><stop offset="0.08" stop-color="#e22299"/><stop offset="0.41" stop-color="#695ba0"/><stop offset="0.56" stop-color="#3971a3"/><stop offset="0.66" stop-color="#3b75a7"/><stop offset="0.75" stop-color="#4180b1"/><stop offset="0.83" stop-color="#4a92c4"/><stop offset="0.92" stop-color="#58acdd"/><stop offset="1" stop-color="#69cefe"/><stop offset="1" stop-color="#6acfff"/></linearGradient><linearGradient id="linear-gradient-2" x1="28.88" y1="30.51" x2="49.84" y2="7.23" xlink:href="#linear-gradient"/><linearGradient id="linear-gradient-3" x1="75.11" y1="81.75" x2="77.68" y2="78.9" xlink:href="#linear-gradient"/><linearGradient id="linear-gradient-4" x1="37.32" y1="72.93" x2="61.04" y2="46.59" xlink:href="#linear-gradient"/><linearGradient id="linear-gradient-5" x1="57.53" y1="63.08" x2="66.7" y2="52.89" xlink:href="#linear-gradient"/><linearGradient id="linear-gradient-6" x1="28.41" y1="62.45" x2="39.46" y2="50.17" xlink:href="#linear-gradient"/><linearGradient id="linear-gradient-7" x1="41.27" y1="12.15" x2="58.95" y2="12.15" gradientTransform="translate(-15.85 27.45) rotate(-11.36)" xlink:href="#linear-gradient"/></defs><path class="cls-1" d="M37.3,71H21.86a3.94,3.94,0,0,1-4-3.89V62.82A4.82,4.82,0,0,0,19,63a4,4,0,0,0,.49,0,5.14,5.14,0,0,0,.8-.15v4.3a1.6,1.6,0,0,0,1.61,1.58H37a1.16,1.16,0,1,0,0-2.31H22.61V61.26l0,0A4.56,4.56,0,0,0,22.25,55a4.65,4.65,0,0,0,2-1.41,4.55,4.55,0,0,0-.38-6.23,4.65,4.65,0,0,0,2-1.41,4.51,4.51,0,0,0,1-3.39,4.62,4.62,0,0,0-1.72-3.11l-2.58-2.05V14.78h5.21l0,.11a2.94,2.94,0,0,0,2.82,2h9.11a3,3,0,0,0,2.83-2l0-.11h4.68v16a1.18,1.18,0,0,0,2.36,0V14.05a1.59,1.59,0,0,0-1.61-1.57H42.33a1.91,1.91,0,0,0-1.83,1.31l-.13.4a.59.59,0,0,1-.58.41H30.68a.61.61,0,0,1-.58-.41l-.13-.4a1.9,1.9,0,0,0-1.83-1.31H21.86a1.59,1.59,0,0,0-1.61,1.57V35.54a4.84,4.84,0,0,0-2.36-.89V22.91a1.18,1.18,0,0,0-2.35,0,4.83,4.83,0,0,0-2.89-.62A4.76,4.76,0,0,0,9.47,24a4.53,4.53,0,0,0-1,3.39,4.58,4.58,0,0,0,1.72,3.11l5.38,4.27V35a4.68,4.68,0,0,0-1.77,1.32,4.55,4.55,0,0,0,.38,6.23,4.59,4.59,0,0,0-1.62,7.64,4.62,4.62,0,0,0-2,1.4,4.56,4.56,0,0,0,.69,6.5l4.32,3.44v5.52a6.26,6.26,0,0,0,6.32,6.19H37.3a1.15,1.15,0,1,0,0-2.3ZM11.65,28.67a2.26,2.26,0,0,1-.86-1.55,2.23,2.23,0,0,1,.51-1.7,2.41,2.41,0,0,1,3.33-.34l.91.73v6Zm3.95,9.12A2.34,2.34,0,0,1,17.19,37h.25a2.34,2.34,0,0,1,1.48.52l4.78,3.79a2.3,2.3,0,0,1,.35,3.26,2.4,2.4,0,0,1-3.33.33L16,41.05a2.33,2.33,0,0,1-.87-1.56,2.29,2.29,0,0,1,.52-1.7ZM14,45.43a2.34,2.34,0,0,1,1.59-.84,2.37,2.37,0,0,1,1.67.46l2,1.59.07,0,2.77,2.2a2.29,2.29,0,0,1,.34,3.26,2.39,2.39,0,0,1-3.32.33l-4.78-3.79A2.29,2.29,0,0,1,14,45.43Zm-2.14,9.34a2.28,2.28,0,0,1,.52-1.7,2.38,2.38,0,0,1,3.25-.39l2,1.59.07,0,2.78,2.21a2.28,2.28,0,0,1,.34,3.25,2.38,2.38,0,0,1-3.32.34l-4.78-3.8A2.3,2.3,0,0,1,11.84,54.77Z"/><path class="cls-2" d="M16.72,19.15A1.16,1.16,0,0,0,17.89,18V14.05a3.93,3.93,0,0,1,4-3.88H48.08a3.93,3.93,0,0,1,4,3.88V35.34a1.18,1.18,0,0,0,2.35,0V14.05a6.26,6.26,0,0,0-6.32-6.19H21.86a6.26,6.26,0,0,0-6.32,6.19V18a1.16,1.16,0,0,0,1.18,1.15Z"/><path class="cls-3" d="M81.31,84.21l-8-9.26a1.19,1.19,0,0,0-1.66-.13,1.14,1.14,0,0,0-.13,1.62l8,9.26a1.18,1.18,0,0,0,1.66.13,1.14,1.14,0,0,0,.13-1.62Z"/><path class="cls-4" d="M52.46,81a1.21,1.21,0,0,0-.75-.44,10,10,0,0,1-8.24-7.73L43,70.76a9.68,9.68,0,0,1,1.12-6.86l5.83-10a3.63,3.63,0,0,0-.31-4.09L44.21,43a5.26,5.26,0,0,1,.19-6.77l.3-.33a.63.63,0,0,1,.45-.21.64.64,0,0,1,.46.19l5.21,5.41a1.18,1.18,0,0,0,1.66,0,1.13,1.13,0,0,0,.05-1.63l-5.21-5.41a3,3,0,0,0-2.22-.91,3,3,0,0,0-2.18,1l-.29.33a7.51,7.51,0,0,0-.27,9.7l5.46,6.86a1.36,1.36,0,0,1,.11,1.53l-5.83,10a12,12,0,0,0-1.38,8.46l.44,2.07a12.37,12.37,0,0,0,9.7,9.47l2.27,2.9a1.2,1.2,0,0,0,1.66.21A1.14,1.14,0,0,0,55,84.25Z"/><path class="cls-5" d="M67,67.69a1.61,1.61,0,0,1-.4-1.06V60.69a16,16,0,0,0-4.52-11.14L56,43.24a1.21,1.21,0,0,0-1.67-.05,1.14,1.14,0,0,0-.05,1.63l6.08,6.31a13.73,13.73,0,0,1,3.87,9.56v5.94a3.87,3.87,0,0,0,1,2.55l3,3.51a1.23,1.23,0,0,0,.9.4,1.2,1.2,0,0,0,.76-.27A1.14,1.14,0,0,0,70,71.19Z"/><path class="cls-6" d="M38.28,59.79H29.06a.34.34,0,0,1-.34-.34V54.52a.34.34,0,0,1,.34-.34H40.89a1.16,1.16,0,1,0,0-2.31H29.06a2.68,2.68,0,0,0-2.7,2.65v4.93a2.68,2.68,0,0,0,2.7,2.65h9.22a1.16,1.16,0,1,0,0-2.31Z"/><polyline class="cls-7" points="28.47 30.94 31.77 35.31 41.89 23.22"/><path class="cls-8" d="M16,104.35a3.88,3.88,0,0,1-1.09,2.78,3.44,3.44,0,0,1-2.61,1.17,3.52,3.52,0,0,1-2.63-1.17,3.89,3.89,0,0,1-1.09-2.8c0-.73,0-1.68,0-2.87h.95c0,1.79,0,2.76,0,2.89a2.93,2.93,0,0,0,.81,2.1,2.62,2.62,0,0,0,2,.86,2.55,2.55,0,0,0,2-.88,2.88,2.88,0,0,0,.8-2.11L15,96h1C16,100,16,102.79,16,104.35Z"/><path class="cls-8" d="M20.58,105.24H19.37a1.38,1.38,0,0,1-1-.4,1.67,1.67,0,0,1-.48-1.25l0-7.41h1l0,7.28a.78.78,0,0,0,.66.89h1Z"/><path class="cls-8" d="M27.61,104.35v.89H26.15a5.21,5.21,0,0,1-2.11-.47,5.15,5.15,0,0,1-2.12.47h-1.6v-.89H22a6,6,0,0,0,1.19-.08A3.26,3.26,0,0,1,22,102.92a3,3,0,0,1-.34-1.36,2.44,2.44,0,0,1,4.06-1.82,2.34,2.34,0,0,1,.73,1.82,3.16,3.16,0,0,1-.33,1.36,3.28,3.28,0,0,1-1.18,1.35,6.1,6.1,0,0,0,1.19.08Zm-3.94-6.29h-1V97h1Zm1.75,3.5a1.91,1.91,0,0,0-.35-1.19A1.25,1.25,0,0,0,24,99.83a1.23,1.23,0,0,0-1,.54,1.91,1.91,0,0,0-.35,1.19,2.45,2.45,0,0,0,.6,1.64c.32.4.59.6.8.6s.49-.2.81-.6A2.58,2.58,0,0,0,25.42,101.56Zm0-3.5h-1V97h1Z"/><path class="cls-8" d="M33.35,105.24H32.1a1.33,1.33,0,0,1-1.06-.53,1.77,1.77,0,0,1-.35-.6,1.94,1.94,0,0,1-1.75,1.13H27.1v-.89h1.57a1.44,1.44,0,0,0,.73-.21.91.91,0,0,0,.42-.78c0,.23,0-.85,0-3.23h1c0,.9,0,1.78,0,2.66a1.71,1.71,0,0,0,.43,1.18,1.09,1.09,0,0,0,.77.38h1.35v.89ZM30.77,99H29.72V97.93h1.05Z"/><path class="cls-8" d="M35.88,103.42A1.7,1.7,0,0,1,34,105.24h-.91v-.89H34a.88.88,0,0,0,.95-1c0-.88,0-2.08,0-3.6,0-1.75,0-3,0-3.61h1c0,.64,0,1.85,0,3.63C35.87,101.32,35.88,102.52,35.88,103.42Z"/><path class="cls-8" d="M38.74,105.24h-1l-.07-9.06h1Z"/><path class="cls-8" d="M54.41,105.24H52.33a5,5,0,0,1-2.08-.47,5.32,5.32,0,0,1-2.15.47H46a2.72,2.72,0,0,1-2.47-1.3,5.38,5.38,0,0,1-.74-2.82l0-.82h.83l0,.82a3.46,3.46,0,0,0,1,2.68,2.09,2.09,0,0,0,1.42.55h2.2a6.15,6.15,0,0,0,1.2-.08,3.38,3.38,0,0,1-1.19-1.35,3.18,3.18,0,0,1-.34-1.36,2.34,2.34,0,0,1,.73-1.82,2.36,2.36,0,0,1,1.67-.62,2.44,2.44,0,0,1,1.68.62,2.36,2.36,0,0,1,.71,1.82,3.33,3.33,0,0,1-1.49,2.71,5.86,5.86,0,0,0,1.17.08h2.12Zm-2.79-3.68a1.91,1.91,0,0,0-.35-1.19,1.28,1.28,0,0,0-1.05-.54,1.22,1.22,0,0,0-1,.54,1.91,1.91,0,0,0-.35,1.19,2.5,2.5,0,0,0,.6,1.64c.33.4.59.6.82.6s.46-.2.78-.6A2.54,2.54,0,0,0,51.62,101.56Zm-.85-3.5h-1V97h1Z"/><path class="cls-8" d="M57.58,103.42a1.7,1.7,0,0,1-1.91,1.82H54.12v-.89h1.54a.88.88,0,0,0,1-1c0,.13,0-1,0-3.26h1C57.57,102.34,57.58,103.44,57.58,103.42ZM55.87,99h-1V97.92h1Zm1.72,0h-1V97.92h1Z"/><path class="cls-8" d="M62.13,105.24h-1.2a1.39,1.39,0,0,1-1-.4,1.67,1.67,0,0,1-.48-1.25l0-7.41h1l0,7.28a.79.79,0,0,0,.66.89h1.05Z"/><path class="cls-8" d="M72.09,105.24H61.68v-.89H64a2.24,2.24,0,0,1-.56-1.57,2.92,2.92,0,0,1,.54-1.8,3.82,3.82,0,0,0-1,.41l-.32-.69a7.23,7.23,0,0,1,2.8-.57c2.52,0,4,1.4,4.33,4.22h2.34Zm-5.4-2.56a1.94,1.94,0,0,0-.39-1.3,1,1,0,0,0-.82-.42,1,1,0,0,0-.82.42,2.19,2.19,0,0,0-.33,1.3A2,2,0,0,0,64.7,104a1.06,1.06,0,0,0,.85.43C66.2,104.4,66.69,103.8,66.69,102.68Zm2.09,1.67a4.72,4.72,0,0,0-.57-1.88,2.35,2.35,0,0,0-1-1.12,2.44,2.44,0,0,1,.42,1.43,2.72,2.72,0,0,1-.42,1.57Z"/><path class="cls-8" d="M74.63,103.42a1.7,1.7,0,0,1-1.9,1.82h-.91v-.89h.89a.88.88,0,0,0,1-1c0-.88,0-2.08,0-3.6,0-1.75,0-3,0-3.61h1c0,.64,0,1.85,0,3.63C74.62,101.32,74.63,102.52,74.63,103.42Z"/><path class="cls-8" d="M77.49,105.24h-1l-.07-9.06h1Z"/></svg>