<svg id="Capa_1" enable-background="new 0 0 512 512" height="512" viewBox="0 0 512 512" width="512" xmlns="http://www.w3.org/2000/svg"><g><path d="m496 362h-50.986c5.794-15.146 5.82-21.061 24.448-100.057 1.863-8.066-3.169-16.127-11.24-17.991l-42.311-9.772 33.426-98.665c7.982-23.564-6.119-48.977-30.436-54.593-24.336-5.62-48.137 11.054-51.294 35.716l-13.227 103.331-43.286-9.997c-8.075-1.865-16.126 3.168-17.991 11.24l-18.864 81.676c-4.528 19.604-4.599 39.715-.31 59.112h-63.244l-48.685-24.281v-31.719h25c35.841 0 65-29.159 65-65v-40c0-8.284-6.716-15-15-15h-40c-12.881 0-24.888 3.782-35 10.271v-47.779l23.891-23.891c25.344-25.343 25.344-66.581 0-91.924l-28.284-28.283c-5.857-5.858-15.355-5.858-21.213 0l-28.284 28.284c-25.344 25.343-25.344 66.581 0 91.924l23.89 23.89v17.779c-10.111-6.489-22.119-10.271-35-10.271h-40c-8.284 0-15 6.716-15 15v40c0 35.841 29.159 65 65 65h25v61.729l-48.541 24.271h-67.459c-8.284 0-15 6.716-15 15v120c0 8.284 6.716 15 15 15h480c8.284 0 15-6.716 15-15v-120c0-8.284-6.716-15-15-15zm-98.635-241.552c.912-7.127 7.765-11.918 14.786-10.295 6.959 1.607 11.099 8.87 8.773 15.737l-34.389 101.506-2.778-.641zm-93.894 189.191 15.489-67.061c11.513 2.659 105.202 24.298 117.896 27.229l-15.578 67.447c-5.311 22.993-17.976 43.104-36.113 57.698l-28.559-28.559c-2.812-2.812-6.628-4.393-10.606-4.393h-41.113c-4.921-17.024-5.437-34.949-1.416-52.361zm-106.471-93.639h25v25c0 19.299-15.701 35-35 35h-25c0-8.69 0-16.337 0-25 0-19.299 15.701-35 35-35zm-67.678-162.109 17.678-17.677 17.678 17.677c13.646 13.646 13.646 35.852 0 49.498l-17.678 17.677-17.678-17.677c-13.646-13.647-13.646-35.852 0-49.498zm-57.322 157.109v-25h25c19.299 0 35 15.701 35 35v25h-25c-19.299 0-35-15.701-35-35zm409 271h-450v-90c57.611-.515 57.167 1.188 62.708-1.583l53.3-26.65 53.451 26.657c5.734 2.859 1.361 1.034 139.327 1.577 5.965 5.964 32.232 32.236 33.214 33.207 5.101 5.05 13.02 5.715 18.842 1.827 14.69-9.368 27.191-21.261 37.053-35.034h52.105z"/></g></svg>