<svg id="Capa_1" enable-background="new 0 0 512.034 512.034" height="512" viewBox="0 0 512.034 512.034" width="512" xmlns="http://www.w3.org/2000/svg"><path d="m212.663 298.812v169.588c0 4.142 3.357 7.5 7.5 7.5s7.5-3.358 7.5-7.5v-169.588c0-4.142-3.357-7.5-7.5-7.5s-7.5 3.358-7.5 7.5z"/><path d="m240.488 298.812v169.588c0 4.142 3.357 7.5 7.5 7.5s7.5-3.358 7.5-7.5v-169.588c0-4.142-3.357-7.5-7.5-7.5s-7.5 3.358-7.5 7.5z"/><path d="m268.314 298.812v169.588c0 4.142 3.357 7.5 7.5 7.5s7.5-3.358 7.5-7.5v-169.588c0-4.142-3.357-7.5-7.5-7.5s-7.5 3.358-7.5 7.5z"/><path d="m61.05 512.034h332.214c4.143 0 7.5-3.358 7.5-7.5s-3.357-7.5-7.5-7.5h-5.119v-93.363c0-3.92-1.45-7.678-4.083-10.583l-26.066-28.76c-2.98-3.29-7.236-5.176-11.676-5.176h-31.377c-.256 0-.505.026-.758.038v-10.038c0-4.142-3.357-7.5-7.5-7.5s-7.5 3.358-7.5 7.5v147.881h-102.393c0-10.069 0-220.105 0-230.208 0-.806.656-1.462 1.462-1.462h99.469c.806 0 1.462.656 1.462 1.462v35.562 11.765c0 4.142 3.357 7.5 7.5 7.5s7.5-3.358 7.5-7.5v-4.265h51.211c17.304 0 32.28-14.026 31.939-31.764-.026-1.374-.151-2.724-.354-4.05h29.559c8.609 0 17.011-3.531 23.05-9.687 5.891-6.005 9.048-13.845 8.89-22.076-.31-16.17-13.295-29.448-29.357-30.495-7.291-14.875-22.47-24.369-39.28-24.369s-31.989 9.493-39.281 24.369c-8.706.572-16.81 4.784-22.298 11.46-16.636.163-31.616 9.606-38.845 24.353-3.79.246-7.516 1.18-10.962 2.734h-22.966v-41.919c0-4.142-3.357-7.5-7.5-7.5s-7.5 3.358-7.5 7.5v41.919h-42.234c-9.077 0-16.462 7.385-16.462 16.462v110.835h-14.349v-32.001c0-7.927-6.448-14.375-14.375-14.375h-44.945c-7.927 0-14.376 6.449-14.376 14.375v32.001h-14.974c-7.927 0-14.376 6.449-14.376 14.376v104.996h-3.35c-4.143 0-7.5 3.358-7.5 7.5s3.357 7.503 7.5 7.503zm291.672-285.283h.098c4.624 0 8.774-2.735 10.593-6.989 4.499-10.518 14.873-17.314 26.429-17.314 11.557 0 21.93 6.796 26.429 17.317 1.833 4.282 6.021 7.009 10.688 6.985h.121c8.877 0 16.235 7.109 16.402 15.849.081 4.171-1.553 8.178-4.6 11.284-3.236 3.299-7.734 5.191-12.342 5.191h-36.247c-5.502-6.758-13.507-10.892-22.315-11.447-4.265-8.698-11.462-15.866-20.365-20.099 1.755-.559 3.411-.777 5.109-.777zm2.404 28.826c1.758 4.108 5.741 6.987 10.809 6.987 8.837 0 16.235 7.081 16.402 15.848.177 9.109-7.794 16.476-16.941 16.476h-51.211v-28.062c0-6.527-3.948-12.506-9.909-15.101 12.074-19.381 41.702-17.534 50.85 3.852zm-40.941 119.334c0-.418.34-.758.758-.758h31.377c.213 0 .417.09.562.249l26.067 28.76c.127.14.196.32.196.509v9.401h-29.48c-4.143 0-7.5 3.358-7.5 7.5s3.357 7.5 7.5 7.5h29.48v13.845h-29.48c-4.143 0-7.5 3.358-7.5 7.5s3.357 7.5 7.5 7.5h29.48v13.845h-29.48c-4.143 0-7.5 3.358-7.5 7.5s3.357 7.5 7.5 7.5h29.48v11.272h-58.96zm-205.438-28.626h43.696v31.377h-43.696zm-29.347 46.377h80.544 21.849v104.372h-102.393z"/><path d="m163.878 413.072h-66.565c-4.143 0-7.5 3.358-7.5 7.5s3.357 7.5 7.5 7.5h66.565c4.143 0 7.5-3.358 7.5-7.5s-3.357-7.5-7.5-7.5z"/><path d="m163.878 441.917h-66.565c-4.143 0-7.5 3.358-7.5 7.5s3.357 7.5 7.5 7.5h66.565c4.143 0 7.5-3.358 7.5-7.5s-3.357-7.5-7.5-7.5z"/><path d="m163.878 470.762h-66.565c-4.143 0-7.5 3.358-7.5 7.5s3.357 7.5 7.5 7.5h66.565c4.143 0 7.5-3.358 7.5-7.5s-3.357-7.5-7.5-7.5z"/><path d="m159.984 83.834c48.64-48.641 127.366-48.645 176.01 0h.001c9.23 9.229 24.246 9.228 33.475 0s9.229-24.245 0-33.475c-67.141-67.142-175.813-67.148-242.962 0-9.228 9.229-9.228 24.246 0 33.475 9.229 9.228 24.245 9.229 33.476 0zm-22.87-22.869c29.616-29.615 68.992-45.925 110.874-45.925 41.884 0 81.259 16.31 110.873 45.925 3.381 3.381 3.381 8.881.001 12.261-3.381 3.38-8.882 3.381-12.263 0h.001c-54.505-54.504-142.716-54.508-197.225 0-3.381 3.381-8.883 3.381-12.262 0-3.379-3.379-3.379-8.88.001-12.261z"/><path d="m224.319 166.904c0 13.052 10.618 23.67 23.67 23.67s23.67-10.618 23.67-23.67c0-12.2-9.391-22.529-21.394-23.552-13.76-1.376-25.946 9.572-25.946 23.552zm32.34 0c0 4.781-3.89 8.67-8.67 8.67s-8.67-3.889-8.67-8.67c0-4.916 4.096-8.667 8.636-8.667 4.825-.001 8.704 3.883 8.704 8.667z"/><path d="m319.66 133.642c9.229-9.23 9.228-24.247-.001-33.474-14.452-14.453-32.704-24.09-52.783-27.872-4.066-.767-7.992 1.912-8.758 5.982-.767 4.071 1.911 7.992 5.982 8.759 17.099 3.22 32.644 11.429 44.952 23.738 3.381 3.38 3.381 8.88.001 12.261-3.382 3.38-8.881 3.381-12.263 0-26.909-26.909-70.695-26.91-97.606 0-3.389 3.389-8.871 3.388-12.261 0-3.38-3.381-3.381-8.882 0-12.262 12.308-12.309 27.853-20.517 44.953-23.738 4.07-.767 6.748-4.688 5.981-8.759-.766-4.071-4.686-6.745-8.759-5.982-20.079 3.782-38.331 13.42-52.783 27.873-9.228 9.229-9.228 24.245 0 33.475 9.252 9.251 24.223 9.254 33.475 0 21.063-21.06 55.333-21.061 76.394 0 9.231 9.228 24.246 9.229 33.476-.001z"/></svg>