<svg id="Layer_1" data-name="Layer 1" xmlns="http://www.w3.org/2000/svg" viewBox="0 0 24 24"><defs><style>.cls-1{fill:#fff;}.cls-2{fill:none;}</style></defs><rect class="cls-1" x="4.93" y="4.19" width="12.86" height="15.6"/><rect class="cls-2" width="24" height="24"/><path d="M12,2A10,10,0,1,0,22,12,10,10,0,0,0,12,2ZM8.46,14.45,7.1,13.83A4.28,4.28,0,0,0,7.5,12a4.42,4.42,0,0,0-.4-1.8l1.36-.63a5.85,5.85,0,0,1,0,4.91ZM11.53,16l-1.3-.74A6.32,6.32,0,0,0,11,12.12a7.59,7.59,0,0,0-.8-3.4l1.34-.67a9,9,0,0,1,1,4.07A7.8,7.8,0,0,1,11.53,16Zm3.14,1.32-1.35-.66A10.73,10.73,0,0,0,14.5,12a10.43,10.43,0,0,0-1.18-4.64l1.34-.67A11.7,11.7,0,0,1,16,12,12.1,12.1,0,0,1,14.67,17.33Z"/></svg>