<?xml version="1.0"?>
<svg xmlns="http://www.w3.org/2000/svg" id="Layer_2_copy_3" data-name="Layer 2 copy 3" viewBox="0 0 64 64" width="512" height="512"><path d="M10,43a1,1,0,0,0,0,2h3a1,1,0,0,0,0-2Z"/><path d="M35,13h3a1,1,0,0,0,0-2H35a1,1,0,0,0,0,2Z"/><path d="M49.39,50.67a1,1,0,0,0-1.31.52A10.75,10.75,0,0,0,47,55a6,6,0,0,0,12,0c0-3-4.62-10.65-5.15-11.52l-.06-.07a1,1,0,0,0-.14-.15l-.16-.12-.07-.05-.09,0-.19,0h-.19l-.18,0-.2.07-.08,0-.07.06a1,1,0,0,0-.27.3s0,0-.05.07-1.06,2.27-2,3.94a1,1,0,1,0,1.75,1c.42-.76.85-1.62,1.21-2.35C54.88,49.26,57,53.47,57,55a4,4,0,0,1-8,0,8.82,8.82,0,0,1,.92-3A1,1,0,0,0,49.39,50.67Z"/><path d="M54.41,56.67A1,1,0,1,0,53.28,55a.81.81,0,0,1-.88,0,1,1,0,0,0-1.12,1.66,2.94,2.94,0,0,0,1.6.48A2.66,2.66,0,0,0,54.41,56.67Z"/><path d="M61,35H57V15.78A5.79,5.79,0,0,0,51.22,10a1,1,0,0,0,0,2A3.79,3.79,0,0,1,55,15.78V35H49V24c0-5-.91-5.83-3.66-5.92H45V12h2a1,1,0,0,0,0-2H45V8a1,1,0,0,0-1-1H39V2h3a1,1,0,0,0,0-2H34a1,1,0,0,0,0,2h3V7a1,1,0,0,0,0,2h6V20H32V9h1a1,1,0,0,0,0-2H31a1,1,0,0,0-1,1v2H22a1,1,0,0,0,0,2h8v6H13a1,1,0,0,0-1,1V40H6V15.12A3.12,3.12,0,0,1,9.12,12H18a1,1,0,0,0,0-2H9.12A5.12,5.12,0,0,0,4,15.12V40H3a1,1,0,0,0-1,1v9a1,1,0,0,0,1,1H4V63a1,1,0,0,0,2,0V51h6V63a1,1,0,0,0,2,0V51h2a1,1,0,0,0,1-1V41a1,1,0,0,0-1-1H14V20H30v1a1,1,0,0,0,1,1H44a1,1,0,0,0,1-1v-.93h.28c1.46,0,1.72.05,1.72,3.92V35H43a1,1,0,0,0-1,1v3a1,1,0,0,0,1,1H54a1,1,0,0,0,0-2H44V37H60v1H58a1,1,0,0,0,0,2h3a1,1,0,0,0,1-1V36A1,1,0,0,0,61,35ZM15,49H4V42H15Z"/></svg>
